<svg xmlns="http://www.w3.org/2000/svg" height="1200" width="1600" version="1.1"
  xmlns:xlink="http://www.w3.org/1999/xlink" xmlns:svgjs="http://svgjs.com/svgjs">
  <g>
    <path
      d="M800.1 345.94C842.53 345.94 876.93 305.48 876.93 255.58 876.93 205.67 842.53 165.21 800.1 165.21 757.66 165.21 723.26 205.67 723.26 255.58 723.26 305.48 757.66 345.94 800.1 345.94Z"
      fill="#ffffff" opacity="1" stroke-width="4" stroke="#000000"></path>
    <path
      d="M800.1 322.13C831.36 322.13 856.71 292.33 856.71 255.58 856.71 218.82 831.36 189.02 800.1 189.02 768.83 189.02 743.48 218.82 743.48 255.58 743.48 292.33 768.83 322.13 800.1 322.13Z"
      fill="#cfcfcf" opacity="1" stroke-width="4" stroke="#000000"></path>
    <path
      d="M831.56 200.26L748.55 283.21C750.99 289.52 754.39 295.45 758.55 300.81L844.75 214.7C841.12 209.24 836.67 204.37 831.56 200.26Z"
      fill="#fefefe" opacity="1" stroke-width="4" stroke="#000000"></path>
    <path
      d="M849.1 222.3L764.28 307.12C765.86 308.6 767.49 310.03 769.16 311.33L851.83 228.66C851.02 226.51 850.11 224.35 849.1 222.3Z"
      fill="#fefefe" opacity="1" stroke-width="4" stroke="#000000"></path>
    <path
      d="M800.1 322.13C831.36 322.13 856.71 292.33 856.71 255.58 856.71 218.82 831.36 189.02 800.1 189.02 768.83 189.02 743.48 218.82 743.48 255.58 743.48 292.33 768.83 322.13 800.1 322.13Z"
      stroke="#000000" stroke-width="4" stroke-linecap="round" stroke-linejoin="round" opacity="1" fill="none"></path>
  </g>
  <g>
    <path
      d="M1376.21 1007.59L1395.89 988.82C1405.2 994.15 1430.8 1005.79 1430.8 1005.79L1430.58 1006.61C1430.58 1006.61 1429.3 1007.89 1426.52 1007.81L1376.21 1007.59Z"
      fill="#ffc947" opacity="1" stroke-width="4" stroke="#000000"></path>
    <path
      d="M1431.1 1005.94C1426.37 1005.94 1404.9 994 1395.96 988.82L1408.58 976.8C1408.88 977.03 1434.03 998.2 1431.55 1005.19L1431.1 1005.94Z"
      fill="#ff5a5f" opacity="1" stroke-width="4" stroke="#000000"></path>
    <path
      d="M1389.8 932.95L1390.63 932.88 1392.81 947.22C1393.11 947.14 1426.52 941.36 1427.65 937.68L1428.4 938.21C1428.4 938.28 1428.4 938.28 1428.47 938.36 1430.28 946.02 1395.74 975.45 1395.36 975.75L1389.8 932.95Z"
      fill="#ffc947" opacity="1" stroke-width="4" stroke="#000000"></path>
    <path
      d="M1390.63 932.95C1392.66 932.8 1398.06 932.5 1404 932.5 1414.28 932.5 1426.9 933.4 1428.1 937.53 1427.27 941.29 1394.23 947.07 1392.81 947.29L1390.63 932.95Z"
      fill="#ff5a5f" opacity="1" stroke-width="4" stroke="#000000"></path>
    <path d="M1386.58 937.08L1387.85 910.05" stroke="#000000" stroke-width="4" stroke-linecap="round"
      stroke-linejoin="round" opacity="1" fill="none"></path>
    <path d="M1381.32 934.15L1374.26 899.69" stroke="#000000" stroke-width="4" stroke-linecap="round"
      stroke-linejoin="round" opacity="1" fill="none"></path>
    <path
      d="M1265.69 1006.16L1232.05 961.41C1231.82 961.03 1231.82 960.58 1232.12 960.28L1247.59 943.92C1247.82 943.69 1247.89 943.39 1247.82 943.09 1244.74 932.43 1238.51 914.03 1230.7 907.5 1223.94 901.87 1217.93 900.67 1214.1 900.67 1212.23 900.67 1210.5 900.97 1208.92 901.42L1208.77 901.49C1207.12 902.09 1205.84 903.29 1205.09 904.87 1204.34 906.45 1204.27 908.25 1204.87 909.9 1205.32 911.18 1206.14 912.23 1207.19 912.98L1214.78 919.51C1215.23 919.89 1215.15 920.56 1214.78 920.86 1213.2 922.14 1209.75 925.22 1206.22 929.27 1201.94 934.3 1196.83 942.04 1196.83 950.22 1196.83 960.96 1202.61 966.52 1207.72 969.29 1208.17 969.52 1208.32 970.12 1208.02 970.57L1193.53 990.84C1193.3 991.22 1192.85 991.29 1192.4 991.14 1191.65 990.84 1190.23 990.39 1188.12 990.39 1181.67 990.39 1167.32 990.84 1146.53 984.76 1137.59 982.13 1128.05 977.78 1118.89 973.5L1117.62 972.9C1106.5 967.79 1090.36 960.28 1082.7 966.74 1079.25 969.59 1079.25 974.02 1080.3 977.63 1082.33 984.61 1091.41 991.67 1105.9 997.38 1121.6 1003.53 1142.02 1007.51 1157.94 1007.51H1264.94C1265.69 1007.59 1266.14 1006.76 1265.69 1006.16Z"
      fill="#8f6e21" opacity="1" stroke-width="4" stroke="#000000"></path>
    <path
      d="M1187.82 1007.59C1169.2 993.77 1167.7 976.28 1169.8 963.96 1171.83 951.95 1177.54 942.41 1178.59 940.69 1178.66 940.54 1178.66 940.31 1178.44 940.24L1168.15 933.85C1167.62 933.55 1167.17 933.18 1166.72 932.73 1165.15 931.15 1164.25 929.12 1164.25 926.87 1164.25 924.62 1165.07 922.59 1166.57 921.01L1166.72 920.86C1168.3 919.29 1171.98 918.31 1176.48 918.31 1181.44 918.31 1188.42 919.59 1193 923.12 1201.19 929.35 1208.17 944.29 1209.37 946.92 1209.45 947.14 1209.75 947.14 1209.9 947.07 1214.03 944.07 1218.68 942.56 1223.79 942.56 1232.5 942.56 1240.23 946.32 1240.31 946.39 1241.36 947.22 1246.39 952.32 1253 961.49 1253.07 961.56 1253.07 961.56 1253.15 961.64 1256.15 962.61 1259.68 963.14 1263.58 963.14 1273.72 963.14 1284.83 959.68 1293.24 953.98 1300.15 949.32 1308.41 940.99 1308.86 927.77 1308.86 927.55 1309.09 927.4 1309.31 927.47 1315.92 929.72 1321.85 933.25 1327.03 937.91 1327.18 938.06 1327.48 937.98 1327.56 937.83L1332.51 928.15C1332.59 928 1332.59 927.85 1332.44 927.7L1322.15 918.24C1321.4 917.56 1320.8 916.66 1320.35 915.68 1318.92 912.15 1320.65 908.1 1324.18 906.67L1324.33 906.6C1326.51 905.77 1328.83 905.4 1331.31 905.4 1336.34 905.4 1341.45 907.2 1346.1 910.58 1353.46 915.91 1356.69 928.6 1357.29 931.15 1357.37 931.38 1357.59 931.45 1357.82 931.38 1363.82 928.3 1370.13 926.8 1376.51 926.8 1393.71 926.8 1406.85 937.83 1410.98 948.95 1411.05 949.1 1410.98 949.32 1410.83 949.4 1407.67 950.9 1404 954.88 1404 957.88 1404 962.76 1410.68 965.16 1413.83 965.99 1413.98 966.07 1414.06 966.14 1414.06 966.29 1414.36 974.33 1413.31 988.74 1404.07 998.43 1398.14 1004.58 1389.8 1007.66 1379.22 1007.66L1187.82 1007.59Z"
      fill="#ffc947" opacity="1" stroke-width="4" stroke="#000000"></path>
    <path
      d="M1309.09 978.83C1305.11 986.19 1296.4 998.28 1279.05 1005.79 1278.15 1006.16 1278.38 1007.59 1279.43 1007.59H1321.03C1321.85 1007.59 1322.3 1006.54 1321.63 1005.94 1317.8 1002.56 1309.91 993.77 1310.81 979.28 1310.89 978.38 1309.54 977.93 1309.09 978.83Z"
      fill="#ffc94700" opacity="0" stroke-width="4" stroke="#ffffff00"></path>
    <path
      d="M1357.44 931.45C1357.44 931.45 1363 954.88 1365.33 966.89 1367.8 965.01 1369.16 961.94 1368.78 958.78 1366.53 939.11 1370.51 927.1 1370.51 927.1 1366.08 927.85 1361.72 929.27 1357.44 931.45Z"
      fill="#ffc94700" opacity="0" stroke-width="4" stroke="#ffffff00"></path>
    <path
      d="M1264.41 963.89C1260.43 963.89 1256.3 963.89 1253.3 962.91 1246.84 953.9 1240.61 946.92 1239.18 945.79 1241.51 943.77 1263.96 927.17 1285.89 924.54 1287.91 924.32 1290.39 924.17 1292.42 924.17 1298.35 924.17 1303.98 925.44 1309.61 927.47 1309.31 940.99 1300.98 950 1293.99 954.73 1285.66 960.43 1274.62 963.89 1264.41 963.89Z"
      fill="#ffdb86" opacity="1" stroke-width="4" stroke="#000000"></path>
    <path d="M1398.06 959.61L1408.73 958.03" stroke="#000000" stroke-width="4" stroke-linecap="round"
      stroke-linejoin="round" opacity="1" fill="none"></path>
    <path d="M1357.44 931.45C1360.52 943.77 1362.92 956.38 1365.33 966.89" stroke="#000000" stroke-width="4"
      stroke-linecap="round" stroke-linejoin="round" opacity="1" fill="none"></path>
    <path d="M1326.36 913.88L1323.58 918.09" stroke="#000000" stroke-width="4" stroke-linecap="round"
      stroke-linejoin="round" opacity="1" fill="none"></path>
    <path d="M1331.61 918.39L1328.68 922.82" stroke="#000000" stroke-width="4" stroke-linecap="round"
      stroke-linejoin="round" opacity="1" fill="none"></path>
    <path d="M1170.18 927.4L1167.4 931.6" stroke="#000000" stroke-width="4" stroke-linecap="round"
      stroke-linejoin="round" opacity="1" fill="none"></path>
    <path d="M1176.18 931.15L1173.18 935.73" stroke="#000000" stroke-width="4" stroke-linecap="round"
      stroke-linejoin="round" opacity="1" fill="none"></path>
    <path d="M1327.48 938.06C1311.79 962.84 1302.33 986.94 1321.63 1005.94" stroke="#000000" stroke-width="4"
      stroke-linecap="round" stroke-linejoin="round" opacity="1" fill="none"></path>
    <path
      d="M1259.3 976.35C1255.78 963.74 1248.42 954.58 1239.26 945.72 1230.25 941.96 1219.28 940.16 1209.67 947.14 1209.67 947.14 1205.47 938.28 1202.61 934.08"
      stroke="#000000" stroke-width="4" stroke-linecap="round" stroke-linejoin="round" opacity="1" fill="none"></path>
    <path d="M1392.36 950.82C1392.36 950.82 1394.61 957.88 1398.06 959.53 1398.06 959.53 1395.59 963.06 1395.21 969.82"
      stroke="#000000" stroke-width="4" stroke-linecap="round" stroke-linejoin="round" opacity="1" fill="none"></path>
    <path
      d="M1283.41 934.6C1283.11 934.6 1282.73 934.6 1282.43 934.53 1279.13 934.3 1276.87 932.5 1275.97 929.42 1274.62 924.54 1277.1 916.73 1284.68 911.18 1288.06 909.23 1291.89 908.17 1295.8 908.17 1297.37 908.17 1298.88 908.32 1300.45 908.7 1309.99 910.8 1315.62 929.95 1315.69 930.1 1315.54 930.1 1306.16 925.74 1298.8 924.84 1298.42 924.77 1298.05 924.99 1297.9 925.29 1296.62 927.32 1291.29 934.6 1283.41 934.6Z"
      fill="#8f6e21" opacity="1" stroke-width="4" stroke="#000000"></path>
    <path d="M1281.3 927.32L1281.23 933.03" stroke="#000000" stroke-width="4" stroke-linecap="round"
      stroke-linejoin="round" opacity="1" fill="none"></path>
    <path d="M1288.14 926.65V932.35" stroke="#000000" stroke-width="4" stroke-linecap="round" stroke-linejoin="round"
      opacity="1" fill="none"></path>
    <path d="M1209.67 908.85L1206.97 911.78" stroke="#000000" stroke-width="4" stroke-linecap="round"
      stroke-linejoin="round" opacity="1" fill="none"></path>
    <path d="M1215 912.75L1211.78 916.21" stroke="#000000" stroke-width="4" stroke-linecap="round"
      stroke-linejoin="round" opacity="1" fill="none"></path>
    <path
      d="M1414.13 966.07C1410.38 965.09 1404.07 962.61 1404.07 957.81 1404.07 954.73 1408.05 950.45 1411.28 949.17 1411.35 949.32 1411.43 949.47 1411.43 949.62 1411.5 949.85 1411.58 950 1411.65 950.22 1413.16 955.33 1413.98 960.66 1414.13 966.07Z"
      fill="#8f6e21" opacity="1" stroke-width="4" stroke="#000000"></path>
    <path d="M1172.88 989.94C1173.63 991.44 1177.69 1000.46 1187.82 1007.59" stroke="#000000" stroke-width="4"
      stroke-linecap="round" stroke-linejoin="round" opacity="1" fill="none"></path>
    <path d="M1246.54 940.24L1239.18 945.79" stroke="#000000" stroke-width="4" stroke-linecap="round"
      stroke-linejoin="round" opacity="1" fill="none"></path>
  </g>
  <g>
    <path
      d="M1273.52 545.68C1219.79 545.68 1174.31 585.53 1167.32 638.94L1148.23 785.61H1325.57L1346.02 628.3C1351.23 588.24 1322.96 551.52 1282.91 546.31 1279.78 545.89 1276.65 545.68 1273.52 545.68Z"
      stroke="#000000" stroke-width="4" stroke-linecap="round" stroke-linejoin="round" opacity="1" fill="none"></path>
    <path d="M1212.49 564.77L1183.7 785.61" stroke="#000000" stroke-width="4" stroke-linecap="round"
      stroke-linejoin="round" opacity="1" fill="none"></path>
    <path d="M1285.72 546.93L1254.64 785.61" stroke="#000000" stroke-width="4" stroke-linecap="round"
      stroke-linejoin="round" opacity="1" fill="none"></path>
    <path d="M1250.05 548.5L1219.17 785.61" stroke="#000000" stroke-width="4" stroke-linecap="round"
      stroke-linejoin="round" opacity="1" fill="none"></path>
    <path d="M1319.21 561.75L1290.11 785.61" stroke="#000000" stroke-width="4" stroke-linecap="round"
      stroke-linejoin="round" opacity="1" fill="none"></path>
    <path d="M1117.56 804.28L1075.84 1004.57" stroke="#000000" stroke-width="4" stroke-linecap="round"
      stroke-linejoin="round" opacity="1" fill="none"></path>
    <path d="M1326.62 804.28L1350.61 1004.57" stroke="#000000" stroke-width="4" stroke-linecap="round"
      stroke-linejoin="round" opacity="1" fill="none"></path>
    <path d="M1338.09 913.19L1095.03 913.19" stroke="#000000" stroke-width="4" stroke-linecap="round"
      stroke-linejoin="round" opacity="1" fill="none"></path>
    <path d="M1212.91 805.22V1004.57" stroke="#000000" stroke-width="4" stroke-linecap="round" stroke-linejoin="round"
      opacity="1" fill="none"></path>
    <path
      d="M1332.25 770.8H1104C1093.26 770.8 1084.6 779.46 1084.6 790.2 1084.6 800.95 1093.26 809.6 1104 809.6L1332.25 809.6C1342.99 809.6 1351.65 800.95 1351.65 790.2 1351.65 779.46 1342.89 770.8 1332.25 770.8Z"
      fill="#00bfff" opacity="1" stroke-width="4" stroke="#000000"></path>
    <path
      d="M1090.23 776.43C1086.69 779.98 1084.6 784.77 1084.6 790.2 1084.6 800.94 1093.26 809.6 1104 809.6L1332.25 809.6C1342.99 809.6 1351.65 800.94 1351.65 790.2 1319.31 806.06 1208.22 799.38 1160.86 793.02 1104 785.4 1090.23 776.43 1090.23 776.43Z"
      fill="#00bfff00" opacity="0" stroke-width="4" stroke="#ffffff00"></path>
  </g>
  <g>
    <path d="M448.3 798.21L493.97 1006.94" stroke="#000000" stroke-width="4" stroke-linecap="round"
      stroke-linejoin="round" opacity="1" fill="none"></path>
    <path d="M359.43 798.21L313.76 1006.94" stroke="#000000" stroke-width="4" stroke-linecap="round"
      stroke-linejoin="round" opacity="1" fill="none"></path>
    <path d="M342.11 878.45H465.62" stroke="#000000" stroke-width="4" stroke-linecap="round" stroke-linejoin="round"
      opacity="1" fill="none"></path>
    <path
      d="M336.55 771.52H471.26C479.79 771.52 486.67 778.4 486.67 786.94 486.67 795.48 479.79 802.36 471.26 802.36H336.55C328.01 802.36 321.13 795.48 321.13 786.94 321.05 778.4 328.01 771.52 336.55 771.52Z"
      fill="#00bfff" opacity="1" stroke-width="4" stroke="#000000"></path>
    <path
      d="M485.02 780.14C485.02 780.14 467.86 793.16 377.75 794.65 335.89 795.39 321.55 790.75 321.55 790.75 323.21 797.47 329.26 802.44 336.47 802.44H471.17C479.71 802.44 486.59 795.56 486.59 787.02 486.59 784.45 486.1 782.13 485.02 780.14Z"
      fill="#00bfff00" opacity="0" stroke-width="4" stroke="#ffffff00"></path>
  </g>
  <g>
    <path
      d="M446.16 452.15L445.04 431.71C445.04 431.61 445.14 431.61 445.14 431.61 458.32 434.06 471.19 430.59 477.02 421.7 485.91 408.62 478.14 390.02 478.24 373.67 477.73 362.02 477.12 346.08 471.09 336.99 448 302.15 373.71 303.17 373 357.32 372.49 380.82 380.46 448.88 380.66 453.17 380.66 453.27 380.66 453.27 380.56 453.27L367.38 454.09C367.28 454.09 367.28 454.19 367.28 454.19L379.03 525.61C379.03 525.61 379.03 525.72 379.13 525.72L443.3 541.76C443.4 541.76 443.4 541.76 443.4 541.66L465.47 454.19C465.47 454.09 465.47 454.09 465.37 454.09 459.24 453.17 447.39 452.35 446.16 452.15 446.16 452.25 446.16 452.25 446.16 452.15Z"
      fill="#faa378" opacity="1" stroke-width="4" stroke="#000000"></path>
    <path
      d="M333.97 465.53H334.07V465.43C342.96 458.58 357.47 454.19 367.28 454.09 367.28 454.09 367.28 454.09 367.38 454.09L434.2 529.29C434.2 529.39 434.31 529.29 434.41 529.29L465.57 454.09C465.57 454.09 465.68 454.09 465.68 453.99 506.34 453.27 580.32 521.53 584.92 525.41H585.02C624.87 515.4 679.03 502.01 681.48 501.09 681.79 500.99 697.01 525.31 697.01 525.31 699.87 529.7 701 534.91 700.28 540.02L697.32 565.46 697.01 565.98C693.64 567.61 615.68 605.83 568.67 596.63 533.22 589.68 494.8 559.13 492.24 557.09 492.14 557.09 492.14 557.09 492.04 557.19L483.25 609.4C483.25 609.4 483.25 609.4 483.25 609.5L500.32 646.49C500.32 646.6 500.32 646.6 500.21 646.6 497.97 646.6 464.96 662.64 434.1 662.54 412.24 662.54 395.58 664.27 375.96 664.27 355.02 664.27 338.56 646.39 336.83 646.39 336.72 646.39 336.72 646.29 336.72 646.29L343.67 632.6C321.19 639.75 293.5 645.27 276.85 637.4 210.02 605.83 303.21 486.17 333.97 465.53ZM336.52 570.57C341.22 570.37 345.61 570.27 349.6 570.06 348.88 565.16 348.17 560.15 347.45 555.04L336.32 570.37C336.42 570.47 336.42 570.57 336.52 570.57Z"
      fill="#ffffff" opacity="1" stroke-width="4" stroke="#000000"></path>
    <path
      d="M444.93 936.28L442.07 930.76C442.07 930.76 442.07 930.76 442.07 930.66 443.5 918.8 445.24 906.85 447.39 895.81L452.5 880.69 452.6 880.59 553.86 882.12C553.96 882.12 553.96 882.22 553.96 882.22L551.61 895.71C548.95 904.5 547.11 912.37 546.4 918.5L519.63 971.22C519.63 971.22 519.53 971.32 519.53 971.22L444.93 936.28Z"
      fill="#faa378" opacity="1" stroke-width="4" stroke="#000000"></path>
    <path
      d="M629.27 868.22L679.44 858.62C679.54 858.62 679.54 858.62 679.54 858.72 679.85 860.25 683.93 880.08 685.06 882.33 684.96 883.55 679.54 940.06 679.34 942.51 679.34 942.61 679.34 942.61 679.23 942.61H605.97L596.47 938.32C596.47 938.32 596.47 938.32 596.37 938.22 592.18 926.67 588.39 914.82 585.33 903.58L629.27 868.22Z"
      fill="#faa378" opacity="1" stroke-width="4" stroke="#000000"></path>
    <path
      d="M759.34 941.28L688.02 976.74H687.92C682.71 973.37 677.19 970.81 671.77 968.67 671.67 968.67 671.67 968.57 671.77 968.46L704.78 943.84 750.66 929.23H750.76C754.03 932.29 756.69 935.97 759.34 941.08 759.44 941.28 759.44 941.28 759.34 941.28Z"
      fill="#000000" opacity="1" stroke-width="4" stroke="#000000"></path>
    <path
      d="M673.72 931.37C673.82 931.37 673.92 931.27 673.82 931.17L661.66 913.69C656.04 905.72 659 894.59 667.79 890.19L684.85 881.92C684.96 881.92 684.96 881.92 684.96 882.02 700.18 921.87 730.22 912.06 750.56 929.12 750.66 929.12 750.66 929.23 750.56 929.33 746.98 931.17 673.51 967.75 671.67 968.67 671.67 968.67 671.67 968.67 671.57 968.67 665.75 966.52 660.02 965.09 654.4 964.17L653.99 965.3 609.65 969.18H609.55L608.12 967.85C603.93 958.04 599.63 947.93 595.96 938.01 595.96 938.01 595.96 937.91 596.06 937.91 635.3 920.23 670.24 930.35 673.72 931.37Z"
      fill="#ffc947" opacity="1" stroke-width="4" stroke="#000000"></path>
    <path
      d="M439.31 963.35C439.93 952.22 440.74 941.08 442.07 930.25 442.07 930.15 442.17 930.15 442.17 930.15 483.66 931.99 509.51 955.59 512.17 958.04 512.27 958.14 512.37 958.04 512.37 957.94L508.59 934.64C507.16 926.16 513.7 918.5 522.28 918.5H546.3C546.4 918.5 546.4 918.6 546.4 918.6 541.09 958.96 567.65 967.44 580.94 986.96 582.16 988.9 583.18 990.94 584 993.09 584 993.19 584 993.19 583.9 993.19L539.96 997.99 490.81 993.19C490.81 993.19 490.81 993.19 490.71 993.19 487.13 988.9 483.56 985.32 479.88 982.16L479.16 982.56 441.36 968.16C441.36 968.16 441.36 968.16 441.26 968.05L439.31 963.35Z"
      fill="#ffc947" opacity="1" stroke-width="4" stroke="#000000"></path>
    <path
      d="M439.31 963.46C439.31 963.35 439.42 963.35 439.42 963.35 445.96 964.38 453.01 966.22 460.26 969.49 466.7 972.45 473.34 976.54 479.78 982.05V982.16L476.61 1007.29C476.61 1007.39 476.61 1007.39 476.51 1007.39H438.7C438.6 1007.39 438.6 1007.39 438.6 1007.29 438.29 992.68 438.5 977.76 439.31 963.46Z"
      fill="#000000" opacity="1" stroke-width="4" stroke="#000000"></path>
    <path d="M551.61 953.65L535.98 960.29" stroke="#000000" stroke-width="4" stroke-linecap="round"
      stroke-linejoin="round" opacity="1" fill="none"></path>
    <path d="M561.11 965.5L548.24 975.21" stroke="#000000" stroke-width="4" stroke-linecap="round"
      stroke-linejoin="round" opacity="1" fill="none"></path>
    <path d="M705.39 908.69L694.97 921.97" stroke="#000000" stroke-width="4" stroke-linecap="round"
      stroke-linejoin="round" opacity="1" fill="none"></path>
    <path d="M718.78 915.84L711.83 930.76" stroke="#000000" stroke-width="4" stroke-linecap="round"
      stroke-linejoin="round" opacity="1" fill="none"></path>
    <path
      d="M586.15 1007.29H501.03 500.93C497.76 1002.18 494.39 997.58 490.91 993.5 490.81 993.4 490.91 993.29 491.02 993.29H584C584 993.29 584.1 993.29 584.1 993.4 585.43 997.38 586.25 1001.88 586.25 1007.29 586.25 1007.29 586.25 1007.29 586.15 1007.29Z"
      fill="#000000" opacity="1" stroke-width="4" stroke="#000000"></path>
    <path
      d="M660.64 990.64L627.43 1007.19H627.33C620.48 994.32 613.94 981.03 608.42 967.85V967.75C613.53 965.81 622.83 963.76 631.11 962.95 638.87 962.23 645.31 962.54 654.51 964.07 654.51 964.07 654.51 964.07 654.61 964.07L660.64 990.64Z"
      fill="#000000" opacity="1" stroke-width="4" stroke="#000000"></path>
    <path
      d="M500.32 646.7C502.36 646.7 594.53 654.67 629.68 690.53 663.4 722.11 666.97 803.03 679.44 858.52V858.62C678.11 859.23 656.65 868.94 634.68 879.57 611.28 890.91 587.07 902.66 585.33 903.58 568.98 841.96 567.45 811.21 567.55 771.46 567.55 771.36 567.55 771.36 567.45 771.36L453.52 771.77C399.46 771.87 359.1 722 370.44 669.18L375.25 646.7C394.87 646.7 419.08 646.7 440.95 646.7 471.71 646.7 498.99 646.6 500.32 646.7Z"
      fill="#ff5a5f" opacity="1" stroke-width="4" stroke="#000000"></path>
    <path
      d="M591.15 724.66C618.95 751.64 611.9 805.49 578.99 877.22 578.99 877.32 578.79 877.32 578.79 877.22 575.52 862.91 573.17 850.45 571.54 839 585.53 798.95 598.72 754.91 591.15 724.66Z"
      fill="#ff5a5f00" opacity="0" stroke-width="4" stroke="#ffffff00"></path>
    <path
      d="M323.34 688.18C327.53 669.99 332.84 655.49 336.83 646.7 336.83 646.7 336.83 646.6 336.93 646.6 336.93 646.7 336.93 646.7 337.03 646.7 340.4 646.7 395.68 646.7 441.05 646.7 483.56 654.57 553.86 672.04 581.65 705.14 586.25 710.66 589.42 717.2 591.26 724.66 598.82 754.91 585.64 799.05 571.64 838.9 564.28 859.85 556.72 879.67 551.81 895.71L551.71 895.81H447.69C447.59 895.81 447.59 895.71 447.59 895.71 456.58 848.91 471.6 807.73 489.48 772.28 489.48 772.18 489.48 772.18 489.38 772.18H404.57C338.97 772.07 313.63 731.2 323.34 688.18Z"
      fill="#ff5a5f" opacity="1" stroke-width="4" stroke="#000000"></path>
    <path
      d="M506.45 740.19L489.38 771.97C489.38 771.97 489.38 772.07 489.28 772.07 486.73 772.07 393.95 772.07 421.53 772.07 458.32 772.07 492.96 736.21 506.45 740.09 506.45 740.09 506.55 740.19 506.45 740.19Z"
      fill="#ff5a5f00" opacity="0" stroke-width="4" stroke="#ffffff00"></path>
    <path d="M527.7 670.61C549.87 679.5 569.7 690.84 581.65 705.14 605.15 733.04 588.91 789.14 571.43 838.8"
      stroke="#000000" stroke-width="4" stroke-linecap="round" stroke-linejoin="round" opacity="1" fill="none"></path>
    <path d="M550.89 895.81H447.39" stroke="#000000" stroke-width="4" stroke-linecap="round" stroke-linejoin="round"
      opacity="1" fill="none"></path>
    <path d="M679.44 858.62L585.33 903.58" stroke="#000000" stroke-width="4" stroke-linecap="round"
      stroke-linejoin="round" opacity="1" fill="none"></path>
    <path
      d="M343.78 632.8C352.46 630.04 360.43 627.08 366.66 624.52 366.66 624.52 366.77 624.52 366.77 624.42V624.32C366.77 624.32 366.87 624.42 366.87 624.32 374.94 621.15 380.05 618.8 380.46 618.6 380.46 618.6 380.46 618.6 380.56 618.6 385.26 619.52 389.96 620.03 394.66 620.13L405.7 646.39C405.7 646.49 405.7 646.49 405.59 646.49H337.03C336.93 646.49 336.93 646.39 336.93 646.39 337.44 645.37 340.4 639.55 343.78 632.8Z"
      fill="#ffffff00" opacity="0" stroke-width="4" stroke="#ffffff00"></path>
    <path
      d="M427.46 425.17C434.92 429.16 444.12 431.4 445.04 431.61 445.04 431.61 445.14 431.61 445.14 431.71L445.96 446.22C445.96 446.32 445.85 446.32 445.75 446.32L427.36 425.27C427.26 425.17 427.36 425.07 427.46 425.17Z"
      fill="#faa37800" opacity="0" stroke-width="4" stroke="#ffffff00"></path>
    <path
      d="M496.13 535.12L539.55 586.72C539.65 586.82 539.55 586.92 539.45 586.92 514.01 575.07 492.14 557.39 492.14 557.39L495.92 535.22C496.02 535.01 496.13 535.01 496.13 535.12Z"
      fill="#ffffff00" opacity="0" stroke-width="4" stroke="#ffffff00"></path>
    <path d="M434.31 529.6L434.31 590.7" stroke="#000000" stroke-width="4" stroke-linecap="round"
      stroke-linejoin="round" opacity="1" fill="none"></path>
    <path d="M483.56 608.69H381.89" stroke="#000000" stroke-width="4" stroke-linecap="round" stroke-linejoin="round"
      opacity="1" fill="none"></path>
    <path d="M496.02 535.12L492.04 557.39" stroke="#000000" stroke-width="4" stroke-linecap="round"
      stroke-linejoin="round" opacity="1" fill="none"></path>
    <path d="M347.56 555.14L357.88 540.84" stroke="#000000" stroke-width="4" stroke-linecap="round"
      stroke-linejoin="round" opacity="1" fill="none"></path>
    <path d="M361.76 569.65C361.76 569.65 353.38 569.86 336.42 570.37" stroke="#000000" stroke-width="4"
      stroke-linecap="round" stroke-linejoin="round" opacity="1" fill="none"></path>
    <path d="M427.46 425.17C431.55 427.62 440.54 431.2 445.04 431.91" stroke="#000000" stroke-width="4"
      stroke-linecap="round" stroke-linejoin="round" opacity="1" fill="none"></path>
    <path d="M414.48 398.81L405.19 392.27" stroke="#000000" stroke-width="4" stroke-linecap="round"
      stroke-linejoin="round" opacity="1" fill="none"></path>
    <path d="M450.15 397.48C451.78 401.06 455.97 403.2 459.85 402.49" stroke="#000000" stroke-width="4"
      stroke-linecap="round" stroke-linejoin="round" opacity="1" fill="none"></path>
    <path d="M460.87 390.43C464.14 389 463.22 386.55 462 383.17" stroke="#000000" stroke-width="4"
      stroke-linecap="round" stroke-linejoin="round" opacity="1" fill="none"></path>
    <path d="M447.28 374.8C445.04 371.83 440.44 375.2 442.69 378.27 445.04 381.23 449.53 377.86 447.28 374.8Z"
      fill="#000000" opacity="1" stroke-width="4" stroke="#000000"></path>
    <path d="M469.46 373.06C465.68 373.16 465.68 378.68 469.46 378.78 473.24 378.68 473.24 373.16 469.46 373.06Z"
      fill="#000000" opacity="1" stroke-width="4" stroke="#000000"></path>
    <path
      d="M315.37 469.62C315.27 469.62 315.27 469.62 315.27 469.52 315.16 414.03 361.25 406.78 367.38 373.67 373.61 339.95 377.49 333.31 385.87 325.14 394.46 316.76 405.9 313.08 418.26 312.67 465.17 311.55 482.13 333.31 480.59 364.17 480.59 364.27 480.59 364.27 480.49 364.27 478.04 364.27 426.64 365.4 424.5 365.4 424.5 365.4 424.4 365.4 424.4 365.5L420.61 381.13C420.61 381.23 420.51 381.23 420.51 381.23 418.67 380.21 396.09 368.05 389.14 381.74 379.03 401.67 409.99 416.79 411.52 417.51 411.52 417.51 411.62 417.61 411.52 417.61L405.39 469.82C405.39 469.93 405.39 469.93 405.29 469.93L315.37 469.62Z"
      fill="#000000" opacity="1" stroke-width="4" stroke="#000000"></path>
    <path
      d="M366.66 569.65C366.66 569.55 366.66 569.55 366.66 569.65 361.55 569.76 356.04 569.96 349.7 570.16 348.99 565.26 348.27 560.25 347.56 555.14L357.88 540.94C358.8 539.61 360.84 539.82 361.55 541.35L373.31 569.45C371.16 569.45 368.91 569.45 366.66 569.65 366.66 569.55 366.77 569.55 366.66 569.65Z"
      fill="#ffffff00" opacity="0" stroke-width="4" stroke="#ffffff00"></path>
    <path
      d="M380.46 618.7C380.05 618.9 374.84 621.25 366.87 624.42H366.77V569.65C366.77 569.65 366.77 569.55 366.87 569.55 369.01 569.45 371.26 569.45 373.41 569.45 381.89 569.35 390.27 569.65 398.75 570.47 414.79 571.29 472.73 586.82 475.28 597.96 475.38 603.58 451.06 598.67 447.79 598.06 447.69 598.06 447.59 598.16 447.69 598.26 449.94 600.41 466.19 615.74 467.72 621.05 469.56 627.08 462.2 630.25 461.49 630.55 461.49 630.55 461.49 630.55 461.38 630.66 459.14 640.46 448.51 635.25 447.49 634.74H447.39C440.74 648.43 407.13 621.05 406 620.03 406 620.03 406 620.03 405.9 620.03 402.12 620.44 398.34 620.54 394.56 620.44 389.86 620.13 385.16 619.62 380.46 618.7Z"
      fill="#faa378" opacity="1" stroke-width="4" stroke="#000000"></path>
    <path d="M447.59 634.44L422.05 614.1" stroke="#000000" stroke-width="4" stroke-linecap="round"
      stroke-linejoin="round" opacity="1" fill="none"></path>
    <path d="M461.79 630.35L435.33 603.88" stroke="#000000" stroke-width="4" stroke-linecap="round"
      stroke-linejoin="round" opacity="1" fill="none"></path>
    <path d="M451.37 601.74L444.83 595.2" stroke="#000000" stroke-width="4" stroke-linecap="round"
      stroke-linejoin="round" opacity="1" fill="none"></path>
    <path
      d="M681.17 501.09C683.52 500.38 734.82 483.72 747.69 483.72 761.28 483.72 745.45 500.17 743.71 501.91 743.61 502.01 743.71 502.11 743.81 502.11 750.76 502.83 757.81 503.95 764.55 505.69 767.72 506.51 770.89 508.35 772.52 511.31 774.98 515.8 772.63 521.22 768.95 524.18L768.85 524.29C768.85 524.29 768.85 524.39 768.95 524.39 770.48 525.31 771.81 526.43 772.93 527.86 774.47 529.8 775.18 532.36 774.87 534.91 774.77 536.14 774.36 537.47 773.75 538.59 773.34 539.41 772.12 540.63 772.32 541.66 772.73 544.11 773.85 546.15 773.34 548.81 772.93 551.36 771.5 553.71 769.46 555.25 768.85 555.66 767.93 556.17 767.82 556.98 767.72 557.8 768.64 558.72 768.85 559.44 769.66 562.3 768.33 565.16 766.29 567.3 760.98 572.82 752.5 575.07 745.04 575.58 741.05 575.89 737.78 575.38 736.45 573.84 734.1 571.29 732.26 568.84 733.8 565.67 733.8 565.57 733.8 565.46 733.7 565.57 719.8 568.84 702.33 571.6 696.5 566.38 696.5 566.38 696.5 566.38 696.5 566.28L681.17 501.4C681.07 501.09 681.07 501.09 681.17 501.09Z"
      fill="#faa378" opacity="1" stroke-width="4" stroke="#000000"></path>
    <path
      d="M741.26 512.94C741.26 512.94 727.05 516.11 731.96 526.64 728.38 527.66 724.4 528.68 723.89 534.5 723.38 540.02 726.34 544.62 731.45 544.82 731.65 544.82 731.65 545.03 731.55 545.13 729.61 546.05 725.32 548.71 727.36 554.53 730.02 561.99 739.01 561.58 739.01 561.58 738.8 561.58 729.71 568.43 737.37 574.46"
      stroke="#000000" stroke-width="4" stroke-linecap="round" stroke-linejoin="round" opacity="1" fill="none"></path>
    <path d="M767.82 556.78C758.12 559.44 748 560.97 738.09 561.38" stroke="#000000" stroke-width="4"
      stroke-linecap="round" stroke-linejoin="round" opacity="1" fill="none"></path>
    <path d="M772.32 540.84C758.63 544.11 743.91 545.44 729.81 544.62" stroke="#000000" stroke-width="4"
      stroke-linecap="round" stroke-linejoin="round" opacity="1" fill="none"></path>
    <path d="M770.48 524.9C757.61 527.66 744.42 528.37 731.35 526.84" stroke="#000000" stroke-width="4"
      stroke-linecap="round" stroke-linejoin="round" opacity="1" fill="none"></path>
    <path d="M367.58 623.91C367.58 623.91 340.91 635.46 323.54 638.22" stroke="#000000" stroke-width="4"
      stroke-linecap="round" stroke-linejoin="round" opacity="1" fill="none"></path>
  </g>
  <g>
    <path d="M274.32 1007.38H201.91L193.68 929.17H282.54L274.32 1007.38Z" fill="#ff5a5f" opacity="1" stroke-width="4"
      stroke="#000000"></path>
    <path d="M274.32 1007.38H246L266.78 929.17H282.54L274.32 1007.38Z" fill="#ff5a5f00" opacity="0" stroke-width="4"
      stroke="#ffffff00"></path>
    <path d="M291.38 915.23H184.85V946.5H291.38V915.23Z" fill="#ff5a5f" opacity="1" stroke-width="4" stroke="#000000">
    </path>
    <path
      d="M297.85 892.59C314.16 887.4 324.3 873.44 320.47 861.4 316.64 849.37 300.32 843.82 284 849.01 267.67 854.2 257.55 868.16 261.37 880.19 265.2 892.23 281.53 897.77 297.85 892.59Z"
      fill="#ffc947" opacity="1" stroke-width="4" stroke="#000000"></path>
    <path
      d="M194.74 891.86C214.31 886.74 226.64 869.05 222.27 852.34 217.9 835.64 198.48 826.25 178.91 831.38 159.34 836.5 147.01 854.19 151.39 870.9 155.76 887.6 175.17 896.99 194.74 891.86Z"
      fill="#ffc947" opacity="1" stroke-width="4" stroke="#000000"></path>
    <path
      d="M280.99 807.09C287.58 785.15 278.4 763 260.49 757.61 242.58 752.23 222.72 765.65 216.12 787.6 209.53 809.53 218.7 831.69 236.61 837.08 254.52 842.46 274.39 829.04 280.99 807.09Z"
      fill="#ffc947" opacity="1" stroke-width="4" stroke="#000000"></path>
    <path d="M259.85 758.12C236.21 828.88 237.68 915.23 237.68 915.23" stroke="#000000" stroke-width="4"
      stroke-linecap="round" stroke-linejoin="round" opacity="1" fill="none"></path>
    <path d="M320.13 861.72C259.25 869.94 238.72 892.98 238.72 892.98" stroke="#000000" stroke-width="4"
      stroke-linecap="round" stroke-linejoin="round" opacity="1" fill="none"></path>
    <path d="M280.73 946.5H195.5" stroke="#000000" stroke-width="4" stroke-linecap="round" stroke-linejoin="round"
      opacity="1" fill="none"></path>
    <path d="M151.42 871.24C198.36 840.41 238.72 857.13 238.72 857.13" stroke="#000000" stroke-width="4"
      stroke-linecap="round" stroke-linejoin="round" opacity="1" fill="none"></path>
  </g>
  <g>
    <path
      d="M756.21 621.4L723.01 515.88 722.84 515.27C722.84 515.09 722.93 515 723.1 515H877.07C877.25 515 877.34 515.18 877.34 515.27L877.16 515.96 844.05 621.4H756.21Z"
      fill="#fe1017" opacity="1" stroke-width="4" stroke="#000000"></path>
    <path
      d="M759.79 621.4L722.93 515.88 722.75 515.27C722.75 515.09 722.84 515 723.01 515H876.99C877.16 515 877.25 515.18 877.25 515.27L877.07 515.88 843.87 621.4H759.79Z"
      fill="#ff5a5f00" opacity="0" stroke-width="4" stroke="#ffffff00"></path>
    <path
      d="M800.57 574.26C816.5 574.26 829.41 534.7 829.41 485.9 829.41 437.1 816.5 397.54 800.57 397.54 784.64 397.54 771.72 437.1 771.72 485.9 771.72 534.7 784.64 574.26 800.57 574.26Z"
      fill="#ffc947" opacity="1" stroke-width="4" stroke="#000000"></path>
    <path
      d="M789.06 496.97C785.75 496.97 783.57 496.01 782.7 494.35 781.83 492.44 782.79 489.82 785.49 486.86 788.19 483.9 792.38 481.02 797.08 478.75 802.4 476.23 807.8 474.83 811.98 474.83 815.29 474.83 817.47 475.79 818.34 477.45 819.21 479.36 818.26 481.98 815.55 484.94 812.85 487.9 808.67 490.78 803.96 493.05 798.65 495.48 793.25 496.97 789.06 496.97Z"
      fill="#ffffff" opacity="1" stroke-width="4" stroke="#000000"></path>
    <path
      d="M791.85 465.94C789.33 465.94 787.58 465.25 786.97 463.94 785.58 460.98 790.46 455.58 797.95 452 801.96 450.09 806.06 449.04 809.19 449.04 811.72 449.04 813.46 449.74 814.07 451.04 814.77 452.53 813.99 454.53 811.89 456.8 809.8 459.06 806.67 461.24 803.09 462.98 799.17 464.81 795.08 465.94 791.85 465.94Z"
      fill="#ffffff" opacity="1" stroke-width="4" stroke="#000000"></path>
    <path
      d="M791.85 522.85C789.33 522.85 787.58 522.15 786.97 520.84 785.58 517.88 790.46 512.48 797.95 508.9 801.96 506.99 806.06 505.94 809.19 505.94 811.72 505.94 813.46 506.64 814.07 507.95 814.77 509.43 813.99 511.43 811.89 513.7 809.8 515.96 806.67 518.14 803.09 519.88 799.17 521.71 795.08 522.85 791.85 522.85Z"
      fill="#ffffff" opacity="1" stroke-width="4" stroke="#000000"></path>
    <path
      d="M800.57 574.26C784.62 574.26 771.72 534.61 771.72 485.9 771.72 478.84 771.98 472.04 772.51 465.51 772.51 465.33 772.77 465.25 772.94 465.33 782.7 475.36 787.84 481.63 794.29 490.43 794.38 490.52 794.47 490.61 794.64 490.52 811.89 481.37 824.53 459.06 827.06 453.75 827.14 453.48 827.49 453.57 827.49 453.83 828.8 464.29 829.58 475.18 829.58 485.99 829.41 534.61 816.51 574.26 800.57 574.26Z"
      fill="#ffc94700" opacity="0" stroke-width="4" stroke="#ffffff00"></path>
    <path
      d="M803.01 598.05C801.7 598.05 800.39 597.79 799.26 597.35 784.45 591.51 786.97 549.86 804.92 504.55 821.22 463.33 845.18 432.31 860.52 432.31 861.83 432.31 863.13 432.57 864.27 433.01 871.41 435.88 874.81 447.04 873.68 464.64 872.63 482.15 867.23 503.94 858.51 525.81 842.39 566.94 818.43 598.05 803.01 598.05Z"
      fill="#ffc947" opacity="1" stroke-width="4" stroke="#000000"></path>
    <path
      d="M829.06 523.2C819.56 523.2 812.42 520.41 812.16 516.57 811.98 514.48 813.9 512.39 817.56 510.65 821.13 508.9 826.1 507.77 831.33 507.42 832.46 507.34 833.51 507.34 834.64 507.34 844.14 507.34 851.28 510.12 851.54 513.96 851.72 516.05 849.8 518.14 846.14 519.88 842.57 521.63 837.6 522.76 832.37 523.11 831.33 523.2 830.19 523.2 829.06 523.2Z"
      fill="#ffffff" opacity="1" stroke-width="4" stroke="#000000"></path>
    <path
      d="M841.78 493.74C834.55 493.74 829.15 491.65 828.97 488.69 828.71 485.38 835.25 482.15 843.53 481.63 844.4 481.54 845.27 481.54 846.14 481.54 853.37 481.54 858.78 483.63 858.95 486.6 859.21 489.91 852.68 493.13 844.4 493.66 843.53 493.74 842.65 493.74 841.78 493.74Z"
      fill="#ffffff" opacity="1" stroke-width="4" stroke="#000000"></path>
    <path
      d="M821.04 546.81C813.81 546.81 808.41 544.72 808.23 541.76 807.97 538.44 814.51 535.22 822.79 534.7 823.66 534.61 824.53 534.61 825.4 534.61 832.63 534.61 838.04 536.7 838.21 539.66 838.47 542.98 831.94 546.2 823.66 546.72 822.79 546.81 821.92 546.81 821.04 546.81Z"
      fill="#ffffff" opacity="1" stroke-width="4" stroke="#000000"></path>
    <path d="M799.78 519.1C801.35 514.39 803.09 509.51 805.01 504.63 811.98 486.95 820.26 471.35 828.71 459.15"
      stroke="#000000" stroke-width="4" stroke-linecap="round" stroke-linejoin="round" opacity="1" fill="none"></path>
    <path
      d="M797.87 619.22C782.44 619.22 760.13 586.81 746.02 543.76 730.85 497.49 730.77 455.75 745.84 450.78 746.8 450.43 747.85 450.26 748.98 450.26 764.4 450.26 786.71 482.68 800.83 525.72 815.99 571.99 816.08 613.73 800.91 618.7 800.04 619.05 799 619.22 797.87 619.22Z"
      fill="#ffc947" opacity="1" stroke-width="4" stroke="#000000"></path>
    <path
      d="M762.4 549.51C761.01 549.51 759.96 549.16 759.18 548.38 757.69 546.9 757.87 544.02 759.52 540.36 761.18 536.7 764.23 532.69 768.06 529.12 773.81 523.63 780.35 520.06 784.53 520.06 785.93 520.06 786.97 520.41 787.76 521.19 790.72 524.33 786.8 532.95 778.87 540.45 773.12 546.03 766.67 549.51 762.4 549.51Z"
      fill="#ffffff" opacity="1" stroke-width="4" stroke="#000000"></path>
    <path
      d="M756.21 518.93C755.17 518.93 754.3 518.66 753.77 518.05 752.64 516.92 752.73 514.74 754.03 511.95 755.34 509.17 757.61 506.12 760.48 503.33 764.84 499.14 769.81 496.44 773.03 496.44 774.08 496.44 774.95 496.7 775.47 497.31 777.74 499.75 774.77 506.29 768.76 512.04 764.4 516.22 759.52 518.93 756.21 518.93Z"
      fill="#ffffff" opacity="1" stroke-width="4" stroke="#000000"></path>
    <path d="M772.07 467.25C782.44 480.85 792.99 501.58 800.91 525.72 803.7 534.09 805.97 542.54 807.89 551.17"
      stroke="#000000" stroke-width="4" stroke-linecap="round" stroke-linejoin="round" opacity="1" fill="none"></path>
    <path
      d="M748.98 628.98L722.93 516.05C722.84 515.79 723.19 515.61 723.36 515.79 727.72 520.58 754.3 547.86 800.04 547.86 845.7 547.86 872.28 520.58 876.73 515.7 876.9 515.53 877.16 515.7 877.16 515.96 877.16 515.96 851.98 625.93 851.19 629.07 850.32 629.07 750.03 628.98 748.98 628.98Z"
      fill="#ff5a5f" opacity="1" stroke-width="4" stroke="#000000"></path>
    <path
      d="M816.25 629.07L836.38 541.67C859.73 533.39 873.59 519.19 876.73 515.79 876.9 515.61 877.25 515.79 877.16 516.05 877.16 516.05 851.63 627.85 851.19 629.16 850.24 629.07 816.86 629.07 816.25 629.07Z"
      fill="#ff5a5f00" opacity="0" stroke-width="4" stroke="#ffffff00"></path>
    <path d="M737.22 575.57H862.61" stroke="#000000" stroke-width="4" stroke-linecap="round" stroke-linejoin="round"
      opacity="1" fill="none"></path>
    <path d="M743.14 598.48H857.29" stroke="#000000" stroke-width="4" stroke-linecap="round" stroke-linejoin="round"
      opacity="1" fill="none"></path>
  </g>
  <g>
    <path
      d="M645.77 541.31L634.25 496.68H590.39L578.91 541.31C574.3 559.28 584.62 576.82 600.97 582.5 605.39 584.08 608.36 588.27 608.32 592.98V613.14C608.32 616.23 606.39 619.01 603.49 620.1 596.91 622.55 589.75 626.1 589.75 628.58H634.9C634.9 626.07 627.74 622.55 621.16 620.1 618.26 619.04 616.32 616.23 616.32 613.14V592.98C616.29 588.27 619.26 584.08 623.71 582.5 640.06 576.82 650.38 559.28 645.77 541.31Z"
      fill="#ffc947" opacity="1" stroke-width="4" stroke="#000000"></path>
    <path d="M612.35 577.76C594.1 577.76 580.72 560.5 585.26 542.83H639.45C643.99 560.5 630.64 577.76 612.35 577.76Z"
      fill="#00bfff" opacity="1" stroke-width="4" stroke="#000000"></path>
    <path d="M639.19 542.86C639.45 542.83 631.87 553.86 612.32 553.86 592.78 553.86 585.23 542.83 585.8 542.84H638.86Z"
      fill="#3bccfd" opacity="1" stroke-width="4" stroke="#000000"></path>
    <path
      d="M630.71 549.76C630.77 560.79 625.51 570.95 617.1 577.37 632.87 574.69 643.57 558.96 639.45 542.86 639.12 543.25 636.45 546.8 630.71 549.76Z"
      fill="#00bfff00" opacity="0" stroke-width="4" stroke="#ffffff00"></path>
    <path d="M634.25 496.68C634.25 496.68 628.13 507.64 612.32 507.64 596.52 507.64 590.39 496.68 590.39 496.68H634.25Z"
      fill="#ffc94700" opacity="0" stroke-width="4" stroke="#ffffff00"></path>
    <path
      d="M608.32 592.98V613.14C608.32 614.43 608.01 615.65 607.4 616.71 612.98 618.81 617.48 623.13 619.8 628.58H634.9C634.9 626.07 627.77 622.55 621.19 620.1 618.29 619.04 616.35 616.23 616.35 613.14V592.98C616.32 588.88 618.49 585.21 622 583.27 619.29 584.21 616.13 584.85 612.35 584.85 608.61 584.85 605.42 584.24 602.71 583.3 606.16 585.24 608.32 588.92 608.32 592.98Z"
      fill="#ffc94700" opacity="0" stroke-width="4" stroke="#ffffff00"></path>
    <path d="M634.25 497.32C634.25 497.32 628.13 508.29 612.32 508.29 596.52 508.29 590.39 497.32 590.39 497.32"
      stroke="#000000" stroke-width="4" stroke-linecap="round" stroke-linejoin="round" opacity="1" fill="none"></path>
  </g>
  <g>
    <path
      d="M1147.52 651.58H452.39C446.03 651.58 440.79 646.43 440.79 639.98 440.79 633.62 445.93 628.38 452.39 628.38H1147.52C1153.88 628.38 1159.12 633.52 1159.12 639.98 1159.12 646.34 1153.97 651.58 1147.52 651.58Z"
      fill="#00bfff" opacity="1" stroke-width="4" stroke="#000000"></path>
  </g>
  <g>
    <path
      d="M905.78 525.6C906.52 521.26 911.18 518.83 912.23 518.09V517.99C910.97 506.56 929.16 504.34 947.35 504.02 953.48 504.02 958.88 504.24 965.01 504.87 965.12 504.87 965.12 504.77 965.12 504.66 958.35 497.26 956.45 492.28 958.14 489.43 961.52 484.67 976.65 491.23 994.31 500.64 1013.56 510.9 1035.77 524.33 1047.3 530.68 1047.51 530.78 1071.52 545.06 1073.11 545.91H1073.21C1074.16 544.53 1076.7 538.4 1083.05 527.4 1083.05 527.4 1095.21 528.99 1099.76 529.51 1100.92 529.62 1102.09 530.15 1102.93 530.89 1107.8 534.8 1122.18 547.07 1123.77 547.81 1123.77 547.81 1123.77 547.81 1123.77 547.92 1123.77 550.25 1124.19 608.1 1124.19 610 1124.19 610 1124.19 610 1124.19 610.11 1123.45 610.74 1110.34 623.01 1087.07 623.01 1039.79 623.01 988.49 574.15 986.38 572.24 984.37 571.82 948.09 564.74 934.34 559.98 924.29 556.49 924.08 550.88 924.19 549.5 924.19 549.5 924.19 549.4 924.08 549.4 914.77 548.02 907.58 542.52 910.01 535.33V535.23C906.52 531.95 905.04 528.77 905.78 525.6Z"
      fill="#9b6846" opacity="1" stroke-width="4" stroke="#000000"></path>
    <path
      d="M983.84 540.83C981.09 529.62 982.36 521.05 982.46 520.31 982.46 520.31 982.46 520.31 982.46 520.21 981.83 519.78 966.49 505.82 965.44 504.87L965.33 504.77C959.62 504.24 958.45 504.13 952.74 504.02 952.64 504.02 952.64 504.13 952.64 504.13 960.57 531.63 967.02 556.17 993.99 557.97 994.1 557.97 994.1 557.86 994.1 557.75 991.77 555.32 987.22 551.09 983.84 540.83Z"
      fill="#9b684600" opacity="0" stroke-width="4" stroke="#ffffff00"></path>
    <path d="M912.23 518.09C912.23 518.09 930.21 515.34 956.66 518.51" stroke="#000000" stroke-width="4"
      stroke-linecap="round" stroke-linejoin="round" opacity="1" fill="none"></path>
    <path d="M910.12 535.12C937.51 533.22 960.25 536.07 960.25 536.07" stroke="#000000" stroke-width="4"
      stroke-linecap="round" stroke-linejoin="round" opacity="1" fill="none"></path>
    <path d="M924.29 549.19L968.4 552.68" stroke="#000000" stroke-width="4" stroke-linecap="round"
      stroke-linejoin="round" opacity="1" fill="none"></path>
    <path
      d="M1173.69 452.83L1176.02 416.24 1150.32 421.63C1145.56 423.75 1141.54 428.61 1139.32 434.75 1136.14 443.21 1137.1 452.94 1141.75 462.14L1141.86 462.25 1173.69 452.83Z"
      fill="#cecece" opacity="1" stroke-width="4" stroke="#000000"></path>
    <path
      d="M1033.34 915.57L1033.55 914.83C1034.61 908.48 1035.67 901.71 1036.62 894.73V894.41C1036.83 892.72 1037.04 891.13 1037.36 889.44 1039.16 876.11 1040.64 862.26 1041.69 848.19V847.98H941V848.19C940.47 856.76 939.84 865.64 939.1 874.32 938.46 881.3 937.62 888.28 936.67 894.73 935.71 901.5 934.23 908.16 932.44 914.72L938.04 922.55 1033.34 915.57Z"
      fill="#9b6846" opacity="1" stroke-width="4" stroke="#000000"></path>
    <path
      d="M1017.47 988.23C1020.75 976.8 1023.82 964.11 1026.78 950.89 1029.21 939.57 1031.54 927.31 1033.66 914.93V914.72H932.44C931.48 917.79 930.74 920.64 929.79 923.07 927.99 927.94 925.67 932.59 922.81 936.82 915.94 946.66 906.31 953.43 896.9 960.09 888.54 966.12 879.76 972.15 873.1 980.19 871.3 982.41 869.72 984.63 868.66 987.38 868.66 987.49 868.66 987.49 868.76 987.49L1017.47 988.23Z"
      fill="#ffffff" opacity="1" stroke-width="4" stroke="#000000"></path>
    <path
      d="M1017.47 988.02C1020.75 976.59 1023.71 964.11 1026.78 950.89 1029.21 939.57 1031.54 927.31 1033.66 914.93 1034.71 908.58 1035.77 901.82 1036.72 894.84L1036.83 894.41C1037.04 892.83 1037.25 891.13 1037.46 889.55 1039.26 876.22 1040.74 862.36 1041.8 848.3V848.09L984.69 849.36 975.59 850.1C981.94 871.88 985.85 885.32 989.44 910.28 996.43 949.31 950.95 955.55 935.61 988.02 932.33 995.1 932.12 1008.11 932.12 1008.11H1017.47V988.02Z"
      fill="#ffffff00" opacity="0" stroke-width="4" stroke="#ffffff00"></path>
    <path
      d="M1013.24 917.36L1112.24 921.49 1116.89 914.93C1117.63 907.84 1120.81 869.56 1120.17 848.09V847.87H1009.43V848.09C1011.02 865.11 1012.08 880.34 1012.71 894.62 1013.03 902.13 1013.35 911.33 1013.24 917.36Z"
      fill="#9b6846" opacity="1" stroke-width="4" stroke="#000000"></path>
    <path
      d="M959.41 988.02H1106.11L1106.21 987.91C1108.64 975.85 1111.18 962.63 1112.88 950.26 1114.67 938.2 1115.73 926.67 1117 914.93V914.72H1013.03V915.99C1012.93 919.06 1012.82 920.75 1012.71 923.29 1012.4 927.73 1012.08 931.54 1011.55 935.03 1009.65 948.46 998.01 955.76 985.64 963.48 977.81 968.45 969.67 973.53 964.06 980.4 962.26 982.62 960.57 985.16 959.51 987.8L959.41 988.02Z"
      fill="#ffffff" opacity="1" stroke-width="4" stroke="#000000"></path>
    <path
      d="M959.83 987.7C960.89 985.16 962.47 982.52 964.27 980.3 978.44 962.84 1008.69 957.13 1011.87 934.82 1012.4 931.11 1012.82 927.2 1013.03 923.07 1013.24 920.43 1013.24 917.58 1013.35 914.72 1013.45 908.37 1013.35 901.71 1013.14 894.62 1012.5 880.03 1011.23 864.27 1009.86 848.09"
      stroke="#000000" stroke-width="4" stroke-linecap="round" stroke-linejoin="round" opacity="1" fill="none"></path>
    <path
      d="M996.53 874.53C1009.54 874.53 1021.17 866.81 1026.25 855.07 1026.57 854.22 1027.73 854.22 1028.16 855.07 1031.86 863.42 1039.05 870.09 1047.83 872.84 1051.11 873.89 1054.49 874.42 1057.88 874.42 1070.89 874.42 1082.52 866.7 1087.6 854.96 1087.91 854.11 1089.08 854.11 1089.5 854.96 1094.58 866.49 1106.21 874 1118.8 874.32 1119.33 874.32 1119.75 873.89 1119.86 873.36 1119.96 871.57 1120.28 867.65 1120.28 864.27 1120.38 861.41 1120.38 852.63 1120.49 847.66 1120.49 843.01 1120.49 838.25 1120.49 833.91 1120.49 833.81 1120.49 833.7 1120.49 833.6 1120.07 802.61 1117.85 778.81 1117.11 773.1 1117 772.46 1117.42 772.04 1118.06 772.04H1227.1C1259.15 772.04 1285.59 744.75 1286.65 712.7 1286.76 708.9 1286.76 705.09 1286.44 700.86 1284.64 666.91 1272.37 631.9 1271.63 629.89 1271.63 629.78 1271.63 629.78 1271.63 629.68L1261.9 560.29C1261.8 559.66 1262.32 559.13 1262.96 559.13L1310.77 558.81 1315.63 557.86C1312.99 539.46 1309.6 520.63 1302.62 503.28 1298.71 493.66 1293.42 484.78 1286.12 477.27 1277.55 468.49 1268.04 460.66 1257.14 455.05 1248.68 450.72 1239.69 447.65 1230.28 445.85 1229.75 445.75 1229.43 445.22 1229.43 444.69 1229.64 443.53 1229.85 441.52 1230.28 439.51V439.3L1171.15 436.12C1170.62 436.12 1165.44 439.4 1165.34 439.93L1164.6 447.12C1164.6 447.55 1164.17 447.97 1163.75 448.07 1161 448.5 1152.75 450.08 1142.91 455.16 1124.93 464.57 1110.87 479.91 1094.47 508.26 1090.45 515.13 1086.43 521.58 1083.15 527.4L1083.37 527.61 1122.92 566.53C1123.13 566.74 1123.98 567.8 1123.98 568.12L1123.66 627.03C1123.66 627.46 1123.35 627.88 1122.92 627.98 1111.82 630.84 1015.78 656.96 977.18 695.36 948.41 724.13 944.81 780.18 941.74 834.44 941.53 838.99 941.21 843.43 941 847.87 940.37 858.03 939.31 872.94 939.21 874.21 939.21 874.32 939.21 874.32 939.31 874.32 940.79 874.53 960.15 877.49 965.12 855.17 965.44 854.33 966.6 854.33 967.02 855.17 970.72 863.53 977.92 870.19 986.69 872.94 989.34 874.21 992.83 874.74 996.53 874.53Z"
      fill="#ff5a5f" opacity="1" stroke-width="4" stroke="#000000"></path>
    <path
      d="M1120.28 833.38C1103.67 796.37 1087.39 787.59 1087.28 772.04 1087.28 771.93 1087.28 771.93 1087.39 771.93H1116.89C1117 771.93 1117 771.93 1117 772.04 1117.32 774.79 1120.07 799.96 1120.49 833.38 1120.49 833.49 1120.28 833.49 1120.28 833.38Z"
      fill="#ff5a5f00" opacity="0" stroke-width="4" stroke="#ffffff00"></path>
    <path
      d="M1271.1 639.62H1271.31L1274.7 638.77C1278.61 651.57 1284.96 676.74 1286.44 701.28 1286.55 702.66 1286.65 703.82 1286.65 705.19 1277.98 703.93 1259.57 701.28 1251.85 701.28 1243.29 701.28 1234.08 702.34 1225.31 703.18 1216.84 704.03 1207.85 704.98 1199.6 704.98 1183.63 704.98 1163.86 701.92 1152.33 677.91 1149.47 671.88 1141.43 651.99 1184.69 624.71 1205.84 611.27 1216.84 592.34 1221.92 567.17 1224.46 554.48 1229.11 547.81 1236.62 546.33 1236.73 546.33 1236.73 546.33 1236.73 546.44L1242.97 586.73 1271.1 639.62Z"
      fill="#ff5a5f00" opacity="0" stroke-width="4" stroke="#ffffff00"></path>
    <path
      d="M1010.92 1008.01C1010.92 1007.69 1013.67 1001.03 1017.47 987.8L1017.58 987.7 868.66 987.38 868.45 987.7C866.23 992.25 864.22 1001.13 864.96 1007.9 864.96 1008.01 864.96 1008.01 865.06 1008.01H1010.92Z"
      fill="#1a1a1a" opacity="1" stroke-width="4" stroke="#000000"></path>
    <path
      d="M1106.21 987.91C1106.21 987.8 1106.21 987.8 1106.11 987.8L959.62 987.49 959.51 987.59C956.97 993.94 956.02 1001.03 956.76 1007.79V1008.01H1101.66C1101.66 1008.01 1101.77 1008.01 1101.77 1007.9 1102.09 1006.63 1105.79 989.5 1106.21 987.91Z"
      fill="#1a1a1a" opacity="1" stroke-width="4" stroke="#000000"></path>
    <path
      d="M1229.85 440.04V439.82C1230.07 438.13 1230.38 436.65 1230.59 435.7 1233.56 420.89 1237.36 400.06 1239.37 388.95L1240.43 383.45C1243.18 368.96 1248.15 341.88 1232.6 327.92 1222.66 319.04 1208.17 313.86 1193.05 313.86 1185.11 313.86 1178.35 316.29 1171.26 319.04 1158.88 323.9 1151.9 330.78 1146.4 342.1 1143.55 347.91 1141.22 355.42 1138.58 363.14L1137.84 365.15C1137.84 365.15 1137.84 365.26 1137.73 365.26 1136.99 365.36 1128.63 366.42 1128 369.81 1127.05 373.3 1132.02 379.96 1132.44 380.59V380.7C1126.2 400.37 1126.31 410.95 1132.97 420.36 1136.99 425.97 1145.45 429.46 1155.39 429.46 1159.52 429.46 1163.64 429.04 1166.5 427.87 1166.6 427.87 1166.6 427.87 1166.6 427.98L1165.23 439.82C1165.23 439.93 1165.23 439.93 1165.34 439.93L1229.85 440.04Z"
      fill="#9b6846" opacity="1" stroke-width="4" stroke="#000000"></path>
    <path
      d="M1183.32 419.83C1176.76 423.54 1167.77 427.13 1166.92 427.56 1166.82 427.56 1166.82 427.66 1166.82 427.66L1165.23 439.93 1165.02 442.47C1165.02 442.68 1165.23 442.57 1165.23 442.47 1167.56 439.82 1180.04 424.81 1183.63 420.05 1183.63 419.94 1183.42 419.83 1183.32 419.83Z"
      fill="#9b684600" opacity="0" stroke-width="4" stroke="#ffffff00"></path>
    <path d="M1148.94 389.9C1147.14 393.5 1141.96 393.92 1139.21 393.07" stroke="#000000" stroke-width="4"
      stroke-linecap="round" stroke-linejoin="round" opacity="1" fill="none"></path>
    <path
      d="M1150.11 371.71C1151.8 371.71 1153.28 370.33 1153.28 368.54 1153.28 366.74 1151.9 365.36 1150.11 365.36 1148.41 365.36 1146.93 366.74 1146.93 368.54 1146.93 370.33 1148.41 371.71 1150.11 371.71Z"
      fill="#010005" opacity="1" stroke-width="4" stroke="#000000"></path>
    <path d="M1183.32 419.83C1183.32 419.83 1171.26 425.76 1166.82 427.56" stroke="#000000" stroke-width="4"
      stroke-linecap="round" stroke-linejoin="round" opacity="1" fill="none"></path>
    <path
      d="M1146.51 342.1V341.99C1152.01 329.51 1159.94 321.47 1170.62 317.24 1187.23 310.47 1209.44 311 1224.67 319.67 1224.78 319.78 1224.88 319.57 1224.78 319.57 1211.03 302.75 1222.56 275.78 1244.77 274.72 1260.95 273.77 1274.28 286.46 1274.28 302.33 1274.7 321.89 1253.23 335.75 1235.57 327.82 1235.46 327.82 1235.35 327.92 1235.46 327.92 1244.98 338.39 1244.98 353.84 1244.98 370.23 1245.19 381.55 1262.64 375.83 1267.08 388.1 1271.63 399.1 1266.03 404.82 1269.2 415.6 1270.68 420.47 1275.55 422.9 1280.62 425.44 1296.49 431.89 1299.13 443.74 1297.65 458.44 1297.12 462.88 1296.91 466.58 1298.81 470.5 1306.43 482.98 1319.65 484.03 1317.85 505.51 1317.85 505.51 1317.85 505.61 1317.75 505.61 1314.04 505.93 1185.64 505.51 1182.05 505.72 1182.05 505.72 1181.94 505.72 1181.94 505.61 1174.75 480.76 1187.44 474.09 1193.58 455.79 1197.7 439.51 1186.38 427.24 1197.91 410.21 1198.44 409.79 1221.08 396.14 1222.87 382.39 1223.4 378.27 1222.13 374.67 1219.07 371.39 1208.81 359.65 1187.34 376.79 1185.43 378.8L1185.33 378.9 1185.22 378.8C1185.22 378.8 1181.94 375.83 1179.61 370.02 1177.39 364.83 1175.38 356.16 1178.66 344.32 1178.66 344.21 1178.66 344.21 1178.56 344.21 1167.03 347.7 1151.8 348.02 1146.51 342.1Z"
      fill="#cecece" opacity="1" stroke-width="4" stroke="#000000"></path>
    <path
      d="M1141.54 749.83C1145.45 749.83 1148.62 745.81 1149.26 744.96H1149.36C1161.63 746.34 1166.29 726.98 1167.77 718.1 1167.77 717.99 1167.98 717.99 1167.98 718.1 1168.4 723.6 1169.14 732.8 1175.07 733.33 1183.95 733.22 1185.64 699.38 1186.28 696.1 1186.28 696.1 1186.28 695.99 1186.38 695.99 1188.5 695.46 1205.84 689.96 1215.79 679.07 1215.79 679.07 1215.79 679.07 1215.89 679.07 1219.17 678.65 1293.53 666.27 1311.19 627.14 1323.99 603.13 1316.16 560.08 1315.74 557.97 1315.74 557.97 1315.74 557.86 1315.63 557.86L1238.74 558.39C1238.63 558.39 1238.63 558.49 1238.63 558.49L1243.07 586.63V586.73C1240.11 588.43 1200.45 610.43 1186.17 619.42 1185.85 619.63 1154.86 640.89 1147.04 647.97 1129.37 664.47 1098.39 697.16 1120.07 697.9 1122.5 697.9 1124.93 697.47 1125.88 697.16 1125.99 697.16 1125.99 697.16 1125.99 697.26 1123.45 707.42 1122.82 723.17 1123.13 728.78 1123.87 740.31 1127.58 742.74 1130.54 742.74 1131.7 742.74 1132.65 742.32 1133.08 742.11H1133.18C1135.72 747.29 1138.58 749.83 1141.54 749.83Z"
      fill="#9b6846" opacity="1" stroke-width="4" stroke="#000000"></path>
    <path d="M1117 772.04H1087.28" stroke="#000000" stroke-width="4" stroke-linecap="round" stroke-linejoin="round"
      opacity="1" fill="none"></path>
    <path d="M921.65 939.57L936.88 946.98" stroke="#000000" stroke-width="4" stroke-linecap="round"
      stroke-linejoin="round" opacity="1" fill="none"></path>
    <path d="M913.4 947.51L923.97 961.26" stroke="#000000" stroke-width="4" stroke-linecap="round"
      stroke-linejoin="round" opacity="1" fill="none"></path>
    <path d="M1011.02 939.79L1025.72 946.98" stroke="#000000" stroke-width="4" stroke-linecap="round"
      stroke-linejoin="round" opacity="1" fill="none"></path>
    <path d="M1005.42 948.67L1015.89 962.31" stroke="#000000" stroke-width="4" stroke-linecap="round"
      stroke-linejoin="round" opacity="1" fill="none"></path>
    <path d="M1242.97 586.73H1258.2" stroke="#000000" stroke-width="4" stroke-linecap="round" stroke-linejoin="round"
      opacity="1" fill="none"></path>
    <path d="M1123.77 627.03L1123.87 547.92" stroke="#000000" stroke-width="4" stroke-linecap="round"
      stroke-linejoin="round" opacity="1" fill="none"></path>
    <path d="M1073.21 546.01L1084.21 552.47" stroke="#000000" stroke-width="4" stroke-linecap="round"
      stroke-linejoin="round" opacity="1" fill="none"></path>
    <path d="M1133.29 742.42C1133.29 723.28 1139.63 687.43 1139.63 687.43" stroke="#000000" stroke-width="4"
      stroke-linecap="round" stroke-linejoin="round" opacity="1" fill="none"></path>
    <path d="M1149.26 744.75C1150.32 725.5 1154.55 691.66 1154.55 691.66" stroke="#000000" stroke-width="4"
      stroke-linecap="round" stroke-linejoin="round" opacity="1" fill="none"></path>
    <path d="M1167.98 718.1L1170.41 694.72" stroke="#000000" stroke-width="4" stroke-linecap="round"
      stroke-linejoin="round" opacity="1" fill="none"></path>
    <path
      d="M1123.77 610.43C1123.77 604.72 1123.87 550.88 1123.87 547.81 1123.87 547.71 1123.77 547.71 1123.77 547.71 1112.03 550.35 1116.79 577.53 1110.65 599.22 1108.54 606.72 1096.8 615.19 1095.85 622.17 1095.85 622.27 1095.85 622.27 1095.95 622.27 1097.75 622.17 1112.77 619.95 1123.77 610.43Z"
      fill="#9b684600" opacity="0" stroke-width="4" stroke="#ffffff00"></path>
    <path
      d="M994.31 500.64C978.44 492.39 968.4 488.37 962.79 488.37 954.12 489.22 959.2 498 967.97 507.09 973.9 513.65 981.09 518.73 982.68 520.63 982.68 520.63 982.68 520.63 982.68 520.74 982.04 527.72 982.57 534.38 984.05 540.83 984.05 540.94 983.94 540.94 983.94 540.94H932.54L932.44 540.83C932.12 537.87 922.81 469.86 921.75 461.93 921.65 461.51 921.97 461.19 922.39 461.19 930.43 461.19 998.33 461.19 998.96 461.19 999.07 461.19 999.39 461.19 999.28 461.51 999.39 462.04 994.31 500.64 994.31 500.64Z"
      fill="#ffc947" opacity="1" stroke-width="4" stroke="#000000"></path>
    <path
      d="M961.1 481.81C983.94 481.81 996.53 464.89 998.75 461.72 998.86 461.51 998.75 461.19 998.43 461.19L922.49 461.19C922.28 461.19 922.07 461.51 922.28 461.72 924.61 464.89 938.36 481.81 961.1 481.81Z"
      fill="#000000" opacity="1" stroke-width="4" stroke="#000000"></path>
    <path d="M1242.97 586.73L1236.73 546.33" stroke="#000000" stroke-width="4" stroke-linecap="round"
      stroke-linejoin="round" opacity="1" fill="none"></path>
    <path d="M982.46 520.31C980.45 541.57 990.08 553.84 993.99 558.07" stroke="#000000" stroke-width="4"
      stroke-linecap="round" stroke-linejoin="round" opacity="1" fill="none"></path>
  </g>
</svg>