<svg width="1004" height="769" viewBox="0 0 1004 769" fill="none" xmlns="http://www.w3.org/2000/svg">
  <path
    d="M636.581 706.017V425.488C636.581 408.009 650.768 393.743 668.326 393.743H879.566C897.045 393.743 911.31 407.93 911.31 425.488V706.017C911.31 723.496 897.123 737.762 879.566 737.762H668.326C650.768 737.684 636.581 723.496 636.581 706.017Z"
    fill="#FFC947" stroke="#191919" stroke-width="4" />
  <path d="M832.146 268.175V392.175" stroke="#191919" stroke-width="4" stroke-linecap="round" stroke-linejoin="round" />
  <path
    d="M832.538 378.458C837.773 378.458 842.022 374.21 842.022 368.974C842.022 363.738 837.773 359.49 832.538 359.49C827.302 359.49 823.053 363.738 823.053 368.974C823.053 374.21 827.302 378.458 832.538 378.458Z"
    fill="#FFC947" stroke="#191919" stroke-width="4" />
  <path d="M427.379 597.536H657.117" stroke="#191919" stroke-width="4" stroke-linecap="round" stroke-linejoin="round" />
  <path
    d="M637.757 626.459C653.951 626.459 667.072 613.33 667.072 597.144C667.072 580.958 653.951 567.829 637.757 567.829C621.571 567.829 608.442 580.958 608.442 597.144C608.442 613.33 621.571 626.459 637.757 626.459Z"
    fill="#333333" stroke="#191919" stroke-width="4" />
  <path d="M492.594 597.536V658.831C492.594 671.137 502.549 681.092 514.855 681.092H635.955" stroke="#191919"
    stroke-width="4" stroke-linecap="round" stroke-linejoin="round" />
  <path
    d="M492.986 606.629C498.222 606.629 502.47 602.38 502.47 597.144C502.47 591.908 498.222 587.66 492.986 587.66C487.75 587.66 483.502 591.908 483.502 597.144C483.502 602.38 487.75 606.629 492.986 606.629Z"
    fill="#FFC947" stroke="#191919" stroke-width="4" />
  <path d="M800.557 253.674V331.664C800.557 343.97 790.603 353.925 778.297 353.925H657.118" stroke="#191919"
    stroke-width="4" stroke-linecap="round" stroke-linejoin="round" />
  <path d="M356.992 601.377V679.367C356.992 691.673 347.038 701.628 334.732 701.628H213.553" stroke="#191919"
    stroke-width="4" stroke-linecap="round" stroke-linejoin="round" />
  <path d="M150.377 408.871V486.861C150.377 499.167 160.332 509.121 172.638 509.121H293.738" stroke="#191919"
    stroke-width="4" stroke-linecap="round" stroke-linejoin="round" />
  <path
    d="M226.329 408.871H393.832C411.311 408.871 425.577 423.058 425.577 440.615V608.118C425.577 625.597 411.389 639.863 393.832 639.863H226.329C208.85 639.863 194.584 625.675 194.584 608.118V440.537C194.584 423.058 208.772 408.871 226.329 408.871Z"
    fill="#FFC947" stroke="#191919" stroke-width="4" />
  <path
    d="M804.304 495.922H801.192L776.651 515.306L748.026 495.922H720.553C710.065 495.922 701.529 504.458 701.529 514.945V621.811C701.529 632.299 710.065 640.835 720.553 640.835H734.693L776.745 614.255L814.439 640.835H827.419C837.906 640.835 846.442 632.299 846.442 621.811V538.06C846.442 534.062 844.843 530.237 841.998 527.392L814.972 500.366C812.126 497.521 808.301 495.922 804.304 495.922Z"
    fill="#FAFAFA" stroke="#191919" stroke-width="4" />
  <path
    d="M740.023 577H809.195C812.127 577 814.439 579.407 814.439 582.252V640.835H734.693V582.338C734.779 579.407 737.091 577 740.023 577Z"
    fill="#CFCFCF" stroke="#191919" stroke-width="4" />
  <path
    d="M748.025 495.922H801.192V532.463C801.192 535.042 799.146 537.088 796.567 537.088H752.65C750.071 537.088 748.025 535.042 748.025 532.463V495.922Z"
    fill="#CFCFCF" stroke="#191919" stroke-width="4" />
  <path
    d="M357.62 513.981C356.209 513.981 354.798 514.059 353.465 514.295C347.508 490.31 323.288 475.73 299.303 481.688C283.235 485.685 270.694 498.226 266.696 514.295C251.49 512.021 237.225 522.446 234.952 537.652C232.679 552.859 243.103 567.124 258.31 569.397C259.72 569.632 261.053 569.711 262.464 569.711H357.62C373.061 569.711 385.524 557.17 385.524 541.807C385.445 526.522 372.983 514.059 357.62 513.981Z"
    fill="#FAFAFA" stroke="#191919" stroke-width="4" />
  <path
    d="M885.759 450.413H970.255C987.735 450.413 987.186 464.835 987.186 482.393L1002 548.704V566.654C1002 584.133 987.813 598.399 970.255 598.399H885.759C868.28 598.399 854.015 584.211 854.015 566.654V548.704L862.166 480.12C862.245 462.641 868.28 450.413 885.759 450.413Z"
    fill="#333333" stroke="#191919" stroke-width="4" />
  <path
    d="M885.759 432.464H970.255C987.735 432.464 1002 446.651 1002 464.208V548.704C1002 566.184 987.813 580.449 970.255 580.449H885.759C868.28 580.449 854.015 566.262 854.015 548.704V464.13C854.093 446.651 868.28 432.464 885.759 432.464Z"
    fill="#6EC4E8" stroke="#191919" stroke-width="4" />
  <path d="M327.678 303.839H417.504" stroke="#191919" stroke-width="4" stroke-linecap="round" stroke-linejoin="round" />
  <path
    d="M970.71 494.385C970.71 496.651 968.899 498.461 966.642 498.461C965.584 498.461 964.525 498.007 963.773 497.254C944.17 477.643 912.346 477.643 892.743 497.254C891.23 498.759 888.667 498.759 887.006 497.254C885.352 495.741 885.501 493.178 887.006 491.517C909.783 468.747 946.733 468.747 969.503 491.517C970.263 492.426 970.71 493.327 970.71 494.385Z"
    fill="#FAFAFA" stroke="#191919" stroke-width="4" />
  <path
    d="M958.498 508.408C958.498 510.673 956.687 512.484 954.422 512.484C953.372 512.484 952.314 512.029 951.561 511.277C938.738 498.461 917.778 498.461 904.955 511.277C903.45 512.782 900.887 512.782 899.225 511.277C897.72 509.772 897.72 507.209 899.225 505.547C915.215 489.557 941.152 489.557 957.142 505.547C958.043 506.299 958.498 507.358 958.498 508.408Z"
    fill="#FAFAFA" stroke="#191919" stroke-width="4" />
  <path
    d="M946.278 521.38C946.278 523.645 944.467 525.456 942.21 525.456C941.152 525.456 940.094 525.001 939.341 524.249C933.314 518.214 923.359 518.214 917.324 524.249C915.819 525.754 913.248 525.754 911.594 524.249C910.081 522.736 910.081 520.173 911.594 518.519C920.788 509.317 935.72 509.317 945.071 518.519C945.831 519.272 946.278 520.33 946.278 521.38Z"
    fill="#FAFAFA" stroke="#191919" stroke-width="4" />
  <path
    d="M933.008 533.294C933.008 530.716 930.915 528.623 928.336 528.623C925.757 528.623 923.657 530.716 923.657 533.294C923.657 535.873 925.757 537.974 928.336 537.974C930.915 537.974 933.008 535.873 933.008 533.294Z"
    fill="#FAFAFA" stroke="#191919" stroke-width="4" />
  <path
    d="M425.64 90.8588H471.336C476.118 90.8588 479.966 94.7073 479.966 99.4886V234.964C479.966 239.746 476.118 243.594 471.336 243.594H399.421"
    stroke="#191919" stroke-width="4" stroke-linecap="round" stroke-linejoin="round" />
  <path
    d="M419.251 90.6863C419.251 97.7877 425.005 103.541 432.098 103.541C439.2 103.541 444.953 97.7877 444.953 90.6863C444.953 83.5927 439.2 77.8395 432.098 77.8395C425.005 77.8395 419.251 83.5927 419.251 90.6863Z"
    fill="#333333" stroke="#191919" stroke-width="4" />
  <path
    d="M475.632 205.759C475.632 208.056 477.497 209.921 479.794 209.921C482.091 209.921 483.948 208.056 483.948 205.759C483.948 203.462 482.091 201.605 479.794 201.605C477.497 201.605 475.632 203.462 475.632 205.759Z"
    fill="#333333" stroke="#191919" stroke-width="4" />
  <path
    d="M100.448 640.647H63.4517C54.2026 640.647 46.6779 633.122 46.6779 623.873V562.186L59.5326 554.191L33.8232 538.201L59.5326 522.211L33.8232 506.221L46.6779 498.226V439.283"
    stroke="#191919" stroke-width="4" stroke-linecap="round" stroke-linejoin="round" />
  <path
    d="M84.0663 650.052C89.3022 650.052 93.5505 645.804 93.5505 640.568C93.5505 635.332 89.3022 631.084 84.0663 631.084C78.8303 631.084 74.582 635.332 74.582 640.568C74.582 645.804 78.8303 650.052 84.0663 650.052Z"
    fill="#333333" stroke="#191919" stroke-width="4" />
  <path
    d="M425.891 245.993H659.94C677.419 245.993 668.17 261.12 668.17 278.678L691.685 492.739V511.786C691.685 529.266 677.498 543.531 659.94 543.531H425.891C408.412 543.531 394.146 529.344 394.146 511.786V495.796L407.707 278.129C407.707 260.572 408.334 245.993 425.891 245.993Z"
    fill="#333333" stroke="#191919" stroke-width="4" />
  <path
    d="M425.891 226.946H659.94C677.419 226.946 691.685 241.133 691.685 258.69V492.739C691.685 510.219 677.498 524.484 659.94 524.484H425.891C408.412 524.484 394.146 510.297 394.146 492.739V258.612C394.146 241.133 408.334 226.946 425.891 226.946Z"
    fill="#FAFAFA" stroke="#191919" stroke-width="4" />
  <path
    d="M234.592 330.52C213.335 330.52 196.099 313.284 196.099 292.019C196.099 270.761 213.335 253.525 234.592 253.525C255.857 253.525 273.093 270.761 273.093 292.019C273.093 313.284 255.857 330.52 234.592 330.52Z"
    fill="#FF5A5F" stroke="#191919" stroke-width="4" />
  <path
    d="M144.617 409.325C128.854 409.325 116.086 396.549 116.086 380.794C116.086 365.032 128.854 352.255 144.617 352.255C160.372 352.255 173.148 365.032 173.148 380.794C173.148 396.549 160.372 409.325 144.617 409.325Z"
    fill="#FAFAFA" stroke="#191919" stroke-width="4" />
  <path
    d="M743.887 143.782H647.948L636.974 126.225L615.184 161.418L593.315 126.225L571.447 161.418L560.473 143.782H479.818"
    stroke="#191919" stroke-width="4" stroke-linecap="round" stroke-linejoin="round" />
  <path
    d="M804.563 289.126C821.596 289.126 835.414 275.308 835.414 258.283C835.414 241.251 821.596 227.432 804.563 227.432C787.538 227.432 773.72 241.251 773.72 258.283C773.72 275.308 787.538 289.126 804.563 289.126Z"
    fill="#FF5A5F" stroke="#191919" stroke-width="4" />
  <path
    d="M33.7448 193.555H314.274C331.754 193.555 294.679 210.172 294.679 227.729L346.019 417.493V436.539C346.019 454.019 331.832 468.284 314.274 468.284H33.7448C16.2655 468.284 2 454.097 2 436.539V420.941L28.258 227.729C28.258 210.25 16.2655 193.555 33.7448 193.555Z"
    fill="#333333" stroke="#191919" stroke-width="4" />
  <path
    d="M33.7448 174.508H314.274C331.754 174.508 346.019 188.695 346.019 206.253V417.493C346.019 434.972 331.832 449.237 314.274 449.237H33.7448C16.2655 449.237 2 435.05 2 417.493V206.253C2 188.695 16.2655 174.508 33.7448 174.508Z"
    fill="#FF5A5F" stroke="#191919" stroke-width="4" />
  <path
    d="M764.972 84.7606H946.584C964.063 84.7606 955.049 98.1639 955.049 115.722L978.328 279.07V298.117C978.328 315.596 964.141 329.861 946.584 329.861H764.972C747.493 329.861 733.228 315.674 733.228 298.117V279.07L767.245 126.303C767.245 108.746 747.415 84.7606 764.972 84.7606Z"
    fill="#333333" stroke="#191919" stroke-width="4" />
  <path
    d="M764.581 65.7137H946.192C963.671 65.7137 977.937 79.9008 977.937 97.4584V279.07C977.937 296.549 963.75 310.815 946.192 310.815H764.581C747.101 310.815 732.836 296.627 732.836 279.07V97.3801C732.914 79.9009 747.101 65.7137 764.581 65.7137Z"
    fill="#FF5A5F" stroke="#191919" stroke-width="4" />
  <path
    d="M258.961 245.914C206.57 245.914 223.83 309.404 173.281 309.404C146.78 309.404 156.641 355.634 133.831 355.634C107.33 355.634 118.421 288.444 87.6016 288.444"
    stroke="#191919" stroke-width="4" />
  <path d="M258.96 250.225V409.874" stroke="#191919" stroke-width="4" />
  <path d="M173.163 311.865V409.874" stroke="#191919" stroke-width="4" />
  <path d="M87.2954 294.605V409.874" stroke="#191919" stroke-width="4" />
  <path d="M80.8213 409.263H265.129" stroke="#191919" stroke-width="4" stroke-linecap="round" stroke-linejoin="round" />
  <path
    d="M87.2956 298.924C93.088 298.924 97.7753 294.229 97.7753 288.444C97.7753 282.66 93.088 277.965 87.2956 277.965C81.511 277.965 76.8159 282.66 76.8159 288.444C76.8159 294.229 81.511 298.924 87.2956 298.924Z"
    fill="#FAFAFA" stroke="#191919" stroke-width="4" />
  <path
    d="M173.281 319.883C179.073 319.883 183.761 315.188 183.761 309.404C183.761 303.611 179.073 298.924 173.281 298.924C167.496 298.924 162.809 303.611 162.809 309.404C162.809 315.188 167.496 319.883 173.281 319.883Z"
    fill="#FAFAFA" stroke="#191919" stroke-width="4" />
  <path
    d="M258.96 256.394C264.753 256.394 269.44 251.699 269.44 245.914C269.44 240.122 264.753 235.435 258.96 235.435C253.176 235.435 248.488 240.122 248.488 245.914C248.488 251.699 253.176 256.394 258.96 256.394Z"
    fill="#FAFAFA" stroke="#191919" stroke-width="4" />
  <path
    d="M924.448 235.176H786.339C776.839 235.176 769.079 227.479 769.079 217.916V163.143C769.079 153.643 776.776 145.875 786.339 145.875H924.448C933.948 145.875 941.716 153.58 941.716 163.143V217.916C941.716 227.416 934.011 235.176 924.448 235.176Z"
    fill="#FAFAFA" stroke="#191919" stroke-width="4" />
  <path
    d="M890.728 216.921C905.307 216.921 917.119 205.101 917.119 190.529C917.119 175.95 905.307 164.138 890.728 164.138C876.149 164.138 864.337 175.95 864.337 190.529C864.337 205.101 876.149 216.921 890.728 216.921Z"
    fill="#00BFFF" stroke="#191919" stroke-width="4" />
  <path d="M889.489 187.919H878.681" stroke="#191919" stroke-width="4" stroke-linecap="round" stroke-linejoin="round" />
  <path d="M889.489 193.14H878.681" stroke="#191919" stroke-width="4" stroke-linecap="round" stroke-linejoin="round" />
  <path
    d="M898.433 197.67C894.396 201.581 888.001 201.581 884.081 197.607C880.17 193.633 880.17 187.175 884.144 183.263C888.063 179.352 894.577 179.352 898.496 183.263"
    stroke="#191919" stroke-width="4" stroke-linecap="round" stroke-linejoin="round" />
  <path
    d="M820.122 216.921C834.701 216.921 846.513 205.101 846.513 190.529C846.513 175.95 834.701 164.138 820.122 164.138C805.55 164.138 793.73 175.95 793.73 190.529C793.73 205.101 805.55 216.921 820.122 216.921Z"
    fill="#00BFFF" stroke="#191919" stroke-width="4" />
  <path
    d="M820.122 190.529C817.331 190.529 815.035 188.296 815.035 185.435C815.035 182.644 817.269 180.34 820.122 180.34C822.92 180.34 825.216 182.581 825.216 185.435"
    stroke="#191919" stroke-width="4" stroke-linecap="round" stroke-linejoin="round" />
  <path
    d="M820.122 190.529C822.92 190.529 825.216 192.763 825.216 195.616C825.216 198.415 822.983 200.711 820.122 200.711C817.331 200.711 815.035 198.477 815.035 195.616"
    stroke="#191919" stroke-width="4" stroke-linecap="round" stroke-linejoin="round" />
  <path d="M820.122 180.465V177.863" stroke="#191919" stroke-width="4" stroke-linecap="round" stroke-linejoin="round" />
  <path d="M819.941 203.196V200.648" stroke="#191919" stroke-width="4" stroke-linecap="round" stroke-linejoin="round" />
  <path
    d="M118.829 144.817V65.4629C118.829 57.17 125.515 50.4919 133.807 50.4919H369.064C377.356 50.4919 384.034 57.17 384.034 65.4629V190.341"
    stroke="#191919" stroke-width="4" stroke-linecap="round" stroke-linejoin="round" />
  <path
    d="M118.531 155.916C130.86 155.916 140.846 145.93 140.846 133.6C140.846 121.279 130.86 111.285 118.531 111.285C106.209 111.285 96.2153 121.279 96.2153 133.6C96.2153 145.93 106.209 155.916 118.531 155.916Z"
    fill="#333333" stroke="#191919" stroke-width="4" />
  <path
    d="M318.35 58.0087C322.332 58.0087 325.569 54.7715 325.569 50.7897C325.569 46.8001 322.332 43.5707 318.35 43.5707C314.361 43.5707 311.131 46.8001 311.131 50.7897C311.131 54.7715 314.361 58.0087 318.35 58.0087Z"
    fill="#333333" stroke="#191919" stroke-width="4" />
  <path
    d="M538.878 378.043V477.361C538.878 477.471 538.878 477.471 538.769 477.471C483.854 477.361 439.451 432.965 439.451 378.043C439.451 323.121 483.956 278.615 538.878 278.615V378.043Z"
    fill="#00BFFF" stroke="#191919" stroke-width="4" />
  <path
    d="M538.98 378.043L633.36 347.427C633.462 347.427 633.462 347.427 633.462 347.529C650.298 399.716 621.783 455.688 569.706 472.736C559.814 475.997 549.507 477.682 539.09 477.573C538.98 477.573 538.98 477.573 538.98 477.471V378.043C538.878 378.043 538.878 378.043 538.98 378.043Z"
    fill="#FFC947" />
  <path
    d="M538.98 378.043L633.36 347.427C633.462 347.427 633.462 347.427 633.462 347.529C650.298 399.716 621.783 455.688 569.706 472.736C559.814 475.997 549.507 477.682 539.09 477.573C538.98 477.573 538.98 477.573 538.98 477.471V378.043ZM538.98 378.043C538.878 378.043 538.878 378.043 538.98 378.043Z"
    stroke="#191919" stroke-width="4" />
  <path
    d="M539.404 377.62L619.259 319.648H619.369C625.577 328.067 630.202 337.324 633.36 347.106C633.36 347.215 633.36 347.215 633.258 347.215L539.404 377.62C539.404 377.831 539.302 377.729 539.404 377.62Z"
    fill="#CFCFCF" />
  <path
    d="M539.404 377.62L619.259 319.648H619.369C625.577 328.067 630.202 337.324 633.36 347.106C633.36 347.215 633.36 347.215 633.258 347.215L539.404 377.62ZM539.404 377.62C539.302 377.729 539.404 377.831 539.404 377.62Z"
    stroke="#191919" stroke-width="4" />
  <path
    d="M538.878 377.831V278.717C538.878 278.615 538.878 278.615 538.98 278.615C571.807 278.615 599.899 292.92 619.259 319.546V319.648L538.878 377.831C538.98 377.933 538.878 377.933 538.878 377.831Z"
    fill="#6EC4E8" />
  <path
    d="M538.878 377.831V278.717C538.878 278.615 538.878 278.615 538.98 278.615C571.807 278.615 599.899 292.92 619.259 319.546V319.648L538.878 377.831ZM538.878 377.831C538.878 377.933 538.98 377.933 538.878 377.831Z"
    stroke="#191919" stroke-width="4" />
  <path
    d="M538.98 433.804C569.777 433.804 594.749 408.839 594.749 378.043C594.749 347.247 569.777 322.282 538.98 322.282C508.184 322.282 483.219 347.247 483.219 378.043C483.219 408.839 508.184 433.804 538.98 433.804Z"
    fill="#FAFAFA" stroke="#191919" stroke-width="4" />
  <path
    d="M538.879 378.043C532.569 378.043 527.513 372.885 527.513 366.576C527.513 360.258 532.671 355.21 538.98 355.21C545.298 355.21 550.346 360.368 550.346 366.576"
    stroke="#191919" stroke-width="4" stroke-linecap="round" stroke-linejoin="round" />
  <path
    d="M538.879 378.043C545.188 378.043 550.346 383.091 550.346 389.408C550.346 395.718 545.298 400.876 538.98 400.876C532.671 400.876 527.513 395.82 527.513 389.51"
    stroke="#191919" stroke-width="4" stroke-linecap="round" stroke-linejoin="round" />
  <path d="M538.878 355.21V349.316" stroke="#191919" stroke-width="4" stroke-linecap="round" stroke-linejoin="round" />
  <path d="M538.769 406.762V400.876" stroke="#191919" stroke-width="4" stroke-linecap="round" stroke-linejoin="round" />
  <path
    d="M227.036 21.4278H362.245C379.724 21.4278 359.266 41.0233 359.266 58.5809L393.755 168.394C393.755 185.873 387.092 220.048 369.534 220.048H213.789C196.31 220.048 195.291 190.106 195.291 172.549L215.592 56.8565C215.592 39.5341 209.478 21.4278 227.036 21.4278Z"
    fill="#333333" stroke="#191919" stroke-width="4" />
  <path
    d="M227.036 2.38092H362.245C379.724 2.38092 393.99 16.5681 393.99 34.1257V169.335C393.99 186.814 379.803 201.08 362.245 201.08H227.036C209.557 201.08 195.291 186.892 195.291 169.335V34.1257C195.291 16.5681 209.478 2.38092 227.036 2.38092Z"
    fill="#6EC4E8" stroke="#191919" stroke-width="4" />
  <path
    d="M256.711 83.1693C263.076 83.1693 268.241 78.004 268.241 71.6393C268.241 65.2747 263.076 60.1093 256.711 60.1093C250.347 60.1093 245.181 65.2747 245.181 71.6393C245.181 78.004 250.347 83.1693 256.711 83.1693Z"
    stroke="#191919" stroke-width="4" stroke-linecap="round" stroke-linejoin="round" />
  <path
    d="M326.503 152.961C332.867 152.961 338.033 147.795 338.033 141.431C338.033 135.066 332.867 129.893 326.503 129.893C320.138 129.893 314.965 135.066 314.965 141.431C314.965 147.795 320.138 152.961 326.503 152.961Z"
    stroke="#191919" stroke-width="4" stroke-linecap="round" stroke-linejoin="round" />
  <path d="M338.033 60.1093L245.181 152.961" stroke="#191919" stroke-width="4" stroke-linecap="round"
    stroke-linejoin="round" />
  <path
    d="M134.153 568.143H269.362C286.841 568.143 289.663 578.568 289.663 596.125L301.107 716.128V735.097C301.107 752.576 286.92 766.842 269.362 766.842H134.153C116.674 766.842 102.408 752.655 102.408 735.097V716.128L121.847 600.436C121.847 582.879 116.595 568.143 134.153 568.143Z"
    fill="#333333" stroke="#191919" stroke-width="4" />
  <path
    d="M134.153 549.175H269.362C286.841 549.175 301.107 563.362 301.107 580.919V716.128C301.107 733.608 286.92 747.873 269.362 747.873H134.153C116.674 747.873 102.408 733.686 102.408 716.128V580.841C102.408 563.362 116.595 549.175 134.153 549.175Z"
    fill="#6EC4E8" stroke="#191919" stroke-width="4" />
  <path
    d="M181.456 685.293C185.438 687.574 188.048 691.642 188.612 696.204C188.942 699.535 191.544 702.223 194.797 702.709L195.048 702.796C198.3 703.203 201.475 701.33 202.611 698.155C203.348 696.361 204.32 694.652 205.708 693.186C209.368 689.361 214.823 687.817 219.95 689.283C221.823 689.855 223.61 690.748 225.162 691.971C227.843 694.087 231.425 694.087 234.113 691.971L234.278 691.885C236.959 689.769 237.86 686.186 236.473 683.098C233.298 675.856 236.551 667.226 243.801 664.051C245.102 663.479 246.482 663.072 247.948 662.915C251.287 662.586 253.975 659.983 254.461 656.723L254.54 656.48C254.947 653.227 253.074 650.052 249.899 648.908C248.112 648.179 246.404 647.199 244.938 645.82C241.113 642.159 239.569 636.704 241.027 631.578C241.599 629.704 242.492 627.909 243.715 626.365C245.753 623.677 245.753 620.103 243.715 617.414C243.715 617.414 243.637 617.336 243.637 617.249C241.52 614.561 237.938 613.667 234.842 615.055C227.6 618.229 218.97 615.055 215.803 607.726C215.145 606.425 214.823 604.959 214.58 603.58C214.251 600.24 211.649 597.552 208.396 597.066L208.145 596.988C204.892 596.58 201.718 598.446 200.581 601.62C199.845 603.415 198.873 605.124 197.485 606.589C193.825 610.415 188.369 611.959 183.243 610.493C181.37 609.929 179.583 609.027 178.031 607.812C175.35 605.696 171.768 605.696 169.08 607.812L168.915 607.891C166.234 610.007 165.419 613.589 166.799 616.599C169.973 623.841 166.799 632.471 159.478 635.646C158.177 636.296 156.711 636.625 155.324 636.868C151.992 637.19 149.304 639.792 148.818 643.053L148.732 643.296C148.324 646.549 150.197 649.723 153.372 650.868C155.167 651.596 156.876 652.576 158.333 653.956C162.245 657.624 163.789 663.072 162.323 668.284C161.759 670.157 160.857 671.944 159.642 673.489C157.526 676.177 157.526 679.759 159.642 682.448L159.721 682.604C161.837 685.293 165.341 686.108 168.429 684.807C172.583 682.769 177.38 683.012 181.456 685.293ZM186.496 647.042C189.185 634.258 204.485 630.112 213.358 639.635C216.532 643.131 217.833 647.936 216.94 652.576C214.251 665.353 198.873 669.507 190.078 659.983C186.825 656.48 185.438 651.683 186.496 647.042Z"
    fill="#FAFAFA" stroke="#191919" stroke-width="4" />
</svg>