<svg width="200" height="200" viewBox="0 0 200 200" fill="none" xmlns="http://www.w3.org/2000/svg">
  <rect x="2" y="2" width="196" height="196" rx="6" fill="#333333" stroke="#191919" stroke-width="4" />
  <rect x="20" y="17" width="160" height="32" rx="8" fill="#1E1E1E" />
  <rect x="20" y="62" width="160" height="32" rx="8" fill="#1E1E1E" />
  <rect x="20" y="152" width="160" height="32" rx="4" fill="#FFC947" />
  <rect x="51" y="107" width="129" height="32" rx="8" fill="#1E1E1E" />
  <path
    d="M31.728 38.144C30.536 38.144 29.604 37.812 28.932 37.148C28.26 36.484 27.924 35.536 27.924 34.304V29.6H29.868V34.232C29.868 35.032 30.032 35.608 30.36 35.96C30.688 36.312 31.148 36.488 31.74 36.488C32.332 36.488 32.792 36.312 33.12 35.96C33.448 35.608 33.612 35.032 33.612 34.232V29.6H35.532V34.304C35.532 35.536 35.196 36.484 34.524 37.148C33.852 37.812 32.92 38.144 31.728 38.144ZM45.589 31.448C46.101 31.448 46.553 31.552 46.945 31.76C47.345 31.96 47.657 32.272 47.881 32.696C48.113 33.112 48.229 33.648 48.229 34.304V38H46.357V34.592C46.357 34.072 46.249 33.688 46.033 33.44C45.817 33.192 45.513 33.068 45.121 33.068C44.849 33.068 44.605 33.132 44.389 33.26C44.173 33.38 44.005 33.564 43.885 33.812C43.765 34.06 43.705 34.376 43.705 34.76V38H41.833V34.592C41.833 34.072 41.725 33.688 41.509 33.44C41.301 33.192 41.001 33.068 40.609 33.068C40.337 33.068 40.093 33.132 39.877 33.26C39.661 33.38 39.493 33.564 39.373 33.812C39.253 34.06 39.193 34.376 39.193 34.76V38H37.321V31.544H39.109V33.308L38.773 32.792C38.997 32.352 39.313 32.02 39.721 31.796C40.137 31.564 40.609 31.448 41.137 31.448C41.729 31.448 42.245 31.6 42.685 31.904C43.133 32.2 43.429 32.656 43.573 33.272L42.913 33.092C43.129 32.588 43.473 32.188 43.945 31.892C44.425 31.596 44.973 31.448 45.589 31.448ZM57.2294 31.448C57.7414 31.448 58.1974 31.552 58.5974 31.76C59.0054 31.96 59.3254 32.272 59.5574 32.696C59.7894 33.112 59.9054 33.648 59.9054 34.304V38H58.0334V34.592C58.0334 34.072 57.9174 33.688 57.6854 33.44C57.4614 33.192 57.1414 33.068 56.7254 33.068C56.4294 33.068 56.1614 33.132 55.9214 33.26C55.6894 33.38 55.5054 33.568 55.3694 33.824C55.2414 34.08 55.1774 34.408 55.1774 34.808V38H53.3054V31.544H55.0934V33.332L54.7574 32.792C54.9894 32.36 55.3214 32.028 55.7534 31.796C56.1854 31.564 56.6774 31.448 57.2294 31.448ZM64.7212 38.096C64.0332 38.096 63.4212 37.952 62.8852 37.664C62.3572 37.376 61.9372 36.984 61.6252 36.488C61.3212 35.984 61.1692 35.412 61.1692 34.772C61.1692 34.124 61.3212 33.552 61.6252 33.056C61.9372 32.552 62.3572 32.16 62.8852 31.88C63.4212 31.592 64.0332 31.448 64.7212 31.448C65.4012 31.448 66.0092 31.592 66.5452 31.88C67.0812 32.16 67.5012 32.548 67.8052 33.044C68.1092 33.54 68.2612 34.116 68.2612 34.772C68.2612 35.412 68.1092 35.984 67.8052 36.488C67.5012 36.984 67.0812 37.376 66.5452 37.664C66.0092 37.952 65.4012 38.096 64.7212 38.096ZM64.7212 36.56C65.0332 36.56 65.3132 36.488 65.5612 36.344C65.8092 36.2 66.0052 35.996 66.1492 35.732C66.2932 35.46 66.3652 35.14 66.3652 34.772C66.3652 34.396 66.2932 34.076 66.1492 33.812C66.0052 33.548 65.8092 33.344 65.5612 33.2C65.3132 33.056 65.0332 32.984 64.7212 32.984C64.4092 32.984 64.1292 33.056 63.8812 33.2C63.6332 33.344 63.4332 33.548 63.2812 33.812C63.1372 34.076 63.0652 34.396 63.0652 34.772C63.0652 35.14 63.1372 35.46 63.2812 35.732C63.4332 35.996 63.6332 36.2 63.8812 36.344C64.1292 36.488 64.4092 36.56 64.7212 36.56ZM77.7804 31.448C78.2924 31.448 78.7444 31.552 79.1364 31.76C79.5364 31.96 79.8484 32.272 80.0724 32.696C80.3044 33.112 80.4204 33.648 80.4204 34.304V38H78.5484V34.592C78.5484 34.072 78.4404 33.688 78.2244 33.44C78.0084 33.192 77.7044 33.068 77.3124 33.068C77.0404 33.068 76.7964 33.132 76.5804 33.26C76.3644 33.38 76.1964 33.564 76.0764 33.812C75.9564 34.06 75.8964 34.376 75.8964 34.76V38H74.0244V34.592C74.0244 34.072 73.9164 33.688 73.7004 33.44C73.4924 33.192 73.1924 33.068 72.8004 33.068C72.5284 33.068 72.2844 33.132 72.0684 33.26C71.8524 33.38 71.6844 33.564 71.5644 33.812C71.4444 34.06 71.3844 34.376 71.3844 34.76V38H69.5124V31.544H71.3004V33.308L70.9644 32.792C71.1884 32.352 71.5044 32.02 71.9124 31.796C72.3284 31.564 72.8004 31.448 73.3284 31.448C73.9204 31.448 74.4364 31.6 74.8764 31.904C75.3244 32.2 75.6204 32.656 75.7644 33.272L75.1044 33.092C75.3204 32.588 75.6644 32.188 76.1364 31.892C76.6164 31.596 77.1644 31.448 77.7804 31.448ZM85.3493 38.096C84.6133 38.096 83.9653 37.952 83.4053 37.664C82.8533 37.376 82.4253 36.984 82.1213 36.488C81.8173 35.984 81.6653 35.412 81.6653 34.772C81.6653 34.124 81.8133 33.552 82.1093 33.056C82.4133 32.552 82.8253 32.16 83.3453 31.88C83.8653 31.592 84.4533 31.448 85.1093 31.448C85.7413 31.448 86.3093 31.584 86.8133 31.856C87.3253 32.12 87.7293 32.504 88.0253 33.008C88.3213 33.504 88.4693 34.1 88.4693 34.796C88.4693 34.868 88.4653 34.952 88.4573 35.048C88.4493 35.136 88.4413 35.22 88.4333 35.3H83.1893V34.208H87.4492L86.7293 34.532C86.7293 34.196 86.6613 33.904 86.5253 33.656C86.3893 33.408 86.2013 33.216 85.9613 33.08C85.7213 32.936 85.4413 32.864 85.1213 32.864C84.8013 32.864 84.5173 32.936 84.2693 33.08C84.0293 33.216 83.8413 33.412 83.7053 33.668C83.5693 33.916 83.5013 34.212 83.5013 34.556V34.844C83.5013 35.196 83.5773 35.508 83.7293 35.78C83.8893 36.044 84.1093 36.248 84.3893 36.392C84.6773 36.528 85.0133 36.596 85.3973 36.596C85.7413 36.596 86.0413 36.544 86.2973 36.44C86.5613 36.336 86.8013 36.18 87.0173 35.972L88.0133 37.052C87.7173 37.388 87.3453 37.648 86.8973 37.832C86.4493 38.008 85.9333 38.096 85.3493 38.096ZM89.3916 39.848L90.1836 36.968L90.4476 38.048C90.1036 38.048 89.8196 37.948 89.5956 37.748C89.3796 37.548 89.2716 37.272 89.2716 36.92C89.2716 36.568 89.3836 36.288 89.6076 36.08C89.8316 35.872 90.1076 35.768 90.4356 35.768C90.7716 35.768 91.0476 35.876 91.2636 36.092C91.4796 36.3 91.5876 36.576 91.5876 36.92C91.5876 37.024 91.5796 37.128 91.5636 37.232C91.5476 37.328 91.5156 37.448 91.4676 37.592C91.4276 37.728 91.3596 37.904 91.2636 38.12L90.5796 39.848H89.3916Z"
    fill="white" />
  <path
    d="M31.728 83.144C30.536 83.144 29.604 82.812 28.932 82.148C28.26 81.484 27.924 80.536 27.924 79.304V74.6H29.868V79.232C29.868 80.032 30.032 80.608 30.36 80.96C30.688 81.312 31.148 81.488 31.74 81.488C32.332 81.488 32.792 81.312 33.12 80.96C33.448 80.608 33.612 80.032 33.612 79.232V74.6H35.532V79.304C35.532 80.536 35.196 81.484 34.524 82.148C33.852 82.812 32.92 83.144 31.728 83.144ZM45.589 76.448C46.101 76.448 46.553 76.552 46.945 76.76C47.345 76.96 47.657 77.272 47.881 77.696C48.113 78.112 48.229 78.648 48.229 79.304V83H46.357V79.592C46.357 79.072 46.249 78.688 46.033 78.44C45.817 78.192 45.513 78.068 45.121 78.068C44.849 78.068 44.605 78.132 44.389 78.26C44.173 78.38 44.005 78.564 43.885 78.812C43.765 79.06 43.705 79.376 43.705 79.76V83H41.833V79.592C41.833 79.072 41.725 78.688 41.509 78.44C41.301 78.192 41.001 78.068 40.609 78.068C40.337 78.068 40.093 78.132 39.877 78.26C39.661 78.38 39.493 78.564 39.373 78.812C39.253 79.06 39.193 79.376 39.193 79.76V83H37.321V76.544H39.109V78.308L38.773 77.792C38.997 77.352 39.313 77.02 39.721 76.796C40.137 76.564 40.609 76.448 41.137 76.448C41.729 76.448 42.245 76.6 42.685 76.904C43.133 77.2 43.429 77.656 43.573 78.272L42.913 78.092C43.129 77.588 43.473 77.188 43.945 76.892C44.425 76.596 44.973 76.448 45.589 76.448ZM53.867 83V81.74L53.747 81.464V79.208C53.747 78.808 53.623 78.496 53.375 78.272C53.135 78.048 52.763 77.936 52.259 77.936C51.915 77.936 51.575 77.992 51.239 78.104C50.911 78.208 50.631 78.352 50.399 78.536L49.727 77.228C50.079 76.98 50.503 76.788 50.999 76.652C51.495 76.516 51.999 76.448 52.511 76.448C53.495 76.448 54.259 76.68 54.803 77.144C55.347 77.608 55.619 78.332 55.619 79.316V83H53.867ZM51.899 83.096C51.395 83.096 50.963 83.012 50.603 82.844C50.243 82.668 49.967 82.432 49.775 82.136C49.583 81.84 49.487 81.508 49.487 81.14C49.487 80.756 49.579 80.42 49.763 80.132C49.955 79.844 50.255 79.62 50.663 79.46C51.071 79.292 51.603 79.208 52.259 79.208H53.975V80.3H52.463C52.023 80.3 51.719 80.372 51.551 80.516C51.391 80.66 51.311 80.84 51.311 81.056C51.311 81.296 51.403 81.488 51.587 81.632C51.779 81.768 52.039 81.836 52.367 81.836C52.679 81.836 52.959 81.764 53.207 81.62C53.455 81.468 53.635 81.248 53.747 80.96L54.035 81.824C53.899 82.24 53.651 82.556 53.291 82.772C52.931 82.988 52.467 83.096 51.899 83.096ZM63.8317 83.096C63.1357 83.096 62.5157 82.956 61.9717 82.676C61.4277 82.388 60.9997 81.992 60.6877 81.488C60.3837 80.984 60.2317 80.412 60.2317 79.772C60.2317 79.124 60.3837 78.552 60.6877 78.056C60.9997 77.552 61.4277 77.16 61.9717 76.88C62.5157 76.592 63.1357 76.448 63.8317 76.448C64.5117 76.448 65.1037 76.592 65.6077 76.88C66.1117 77.16 66.4837 77.564 66.7237 78.092L65.2717 78.872C65.1037 78.568 64.8917 78.344 64.6357 78.2C64.3877 78.056 64.1157 77.984 63.8197 77.984C63.4997 77.984 63.2117 78.056 62.9557 78.2C62.6997 78.344 62.4957 78.548 62.3437 78.812C62.1997 79.076 62.1277 79.396 62.1277 79.772C62.1277 80.148 62.1997 80.468 62.3437 80.732C62.4957 80.996 62.6997 81.2 62.9557 81.344C63.2117 81.488 63.4997 81.56 63.8197 81.56C64.1157 81.56 64.3877 81.492 64.6357 81.356C64.8917 81.212 65.1037 80.984 65.2717 80.672L66.7237 81.464C66.4837 81.984 66.1117 82.388 65.6077 82.676C65.1037 82.956 64.5117 83.096 63.8317 83.096ZM71.7615 83V81.74L71.6415 81.464V79.208C71.6415 78.808 71.5175 78.496 71.2695 78.272C71.0295 78.048 70.6575 77.936 70.1535 77.936C69.8095 77.936 69.4695 77.992 69.1335 78.104C68.8055 78.208 68.5255 78.352 68.2935 78.536L67.6215 77.228C67.9735 76.98 68.3975 76.788 68.8935 76.652C69.3895 76.516 69.8935 76.448 70.4055 76.448C71.3895 76.448 72.1535 76.68 72.6975 77.144C73.2415 77.608 73.5135 78.332 73.5135 79.316V83H71.7615ZM69.7935 83.096C69.2895 83.096 68.8575 83.012 68.4975 82.844C68.1375 82.668 67.8615 82.432 67.6695 82.136C67.4775 81.84 67.3815 81.508 67.3815 81.14C67.3815 80.756 67.4735 80.42 67.6575 80.132C67.8495 79.844 68.1495 79.62 68.5575 79.46C68.9655 79.292 69.4975 79.208 70.1535 79.208H71.8695V80.3H70.3575C69.9175 80.3 69.6135 80.372 69.4455 80.516C69.2855 80.66 69.2055 80.84 69.2055 81.056C69.2055 81.296 69.2975 81.488 69.4815 81.632C69.6735 81.768 69.9335 81.836 70.2615 81.836C70.5735 81.836 70.8535 81.764 71.1015 81.62C71.3495 81.468 71.5295 81.248 71.6415 80.96L71.9295 81.824C71.7935 82.24 71.5455 82.556 71.1855 82.772C70.8255 82.988 70.3615 83.096 69.7935 83.096ZM77.8478 83.096C77.0878 83.096 76.4958 82.904 76.0718 82.52C75.6478 82.128 75.4358 81.548 75.4358 80.78V75.116H77.3078V80.756C77.3078 81.028 77.3798 81.24 77.5238 81.392C77.6678 81.536 77.8638 81.608 78.1118 81.608C78.4078 81.608 78.6598 81.528 78.8678 81.368L79.3718 82.688C79.1798 82.824 78.9478 82.928 78.6758 83C78.4118 83.064 78.1358 83.096 77.8478 83.096ZM74.4398 78.128V76.688H78.9158V78.128H74.4398ZM83.4274 83.096C82.6914 83.096 82.0434 82.952 81.4834 82.664C80.9314 82.376 80.5034 81.984 80.1994 81.488C79.8954 80.984 79.7434 80.412 79.7434 79.772C79.7434 79.124 79.8914 78.552 80.1874 78.056C80.4914 77.552 80.9034 77.16 81.4234 76.88C81.9434 76.592 82.5314 76.448 83.1874 76.448C83.8194 76.448 84.3874 76.584 84.8914 76.856C85.4034 77.12 85.8074 77.504 86.1034 78.008C86.3994 78.504 86.5474 79.1 86.5474 79.796C86.5474 79.868 86.5434 79.952 86.5354 80.048C86.5274 80.136 86.5194 80.22 86.5114 80.3H81.2674V79.208H85.5274L84.8074 79.532C84.8074 79.196 84.7394 78.904 84.6034 78.656C84.4674 78.408 84.2794 78.216 84.0394 78.08C83.7994 77.936 83.5194 77.864 83.1994 77.864C82.8794 77.864 82.5954 77.936 82.3474 78.08C82.1074 78.216 81.9194 78.412 81.7834 78.668C81.6474 78.916 81.5794 79.212 81.5794 79.556V79.844C81.5794 80.196 81.6554 80.508 81.8074 80.78C81.9674 81.044 82.1874 81.248 82.4674 81.392C82.7554 81.528 83.0914 81.596 83.4754 81.596C83.8194 81.596 84.1194 81.544 84.3754 81.44C84.6394 81.336 84.8794 81.18 85.0954 80.972L86.0914 82.052C85.7954 82.388 85.4234 82.648 84.9754 82.832C84.5274 83.008 84.0114 83.096 83.4274 83.096ZM90.8297 85.424C90.2217 85.424 89.6337 85.348 89.0657 85.196C88.5057 85.052 88.0377 84.832 87.6617 84.536L88.4057 83.192C88.6777 83.416 89.0217 83.592 89.4377 83.72C89.8617 83.856 90.2777 83.924 90.6857 83.924C91.3497 83.924 91.8297 83.776 92.1257 83.48C92.4297 83.184 92.5817 82.744 92.5817 82.16V81.188L92.7017 79.568L92.6777 77.936V76.544H94.4537V81.92C94.4537 83.12 94.1417 84.004 93.5177 84.572C92.8937 85.14 91.9977 85.424 90.8297 85.424ZM90.5417 82.688C89.9417 82.688 89.3977 82.56 88.9097 82.304C88.4297 82.04 88.0417 81.676 87.7457 81.212C87.4577 80.74 87.3137 80.192 87.3137 79.568C87.3137 78.936 87.4577 78.388 87.7457 77.924C88.0417 77.452 88.4297 77.088 88.9097 76.832C89.3977 76.576 89.9417 76.448 90.5417 76.448C91.0857 76.448 91.5657 76.56 91.9817 76.784C92.3977 77 92.7217 77.34 92.9537 77.804C93.1857 78.26 93.3017 78.848 93.3017 79.568C93.3017 80.28 93.1857 80.868 92.9537 81.332C92.7217 81.788 92.3977 82.128 91.9817 82.352C91.5657 82.576 91.0857 82.688 90.5417 82.688ZM90.9137 81.152C91.2417 81.152 91.5337 81.088 91.7897 80.96C92.0457 80.824 92.2457 80.636 92.3897 80.396C92.5337 80.156 92.6057 79.88 92.6057 79.568C92.6057 79.248 92.5337 78.972 92.3897 78.74C92.2457 78.5 92.0457 78.316 91.7897 78.188C91.5337 78.052 91.2417 77.984 90.9137 77.984C90.5857 77.984 90.2937 78.052 90.0377 78.188C89.7817 78.316 89.5777 78.5 89.4257 78.74C89.2817 78.972 89.2097 79.248 89.2097 79.568C89.2097 79.88 89.2817 80.156 89.4257 80.396C89.5777 80.636 89.7817 80.824 90.0377 80.96C90.2937 81.088 90.5857 81.152 90.9137 81.152ZM99.268 83.096C98.58 83.096 97.968 82.952 97.432 82.664C96.904 82.376 96.484 81.984 96.172 81.488C95.868 80.984 95.716 80.412 95.716 79.772C95.716 79.124 95.868 78.552 96.172 78.056C96.484 77.552 96.904 77.16 97.432 76.88C97.968 76.592 98.58 76.448 99.268 76.448C99.948 76.448 100.556 76.592 101.092 76.88C101.628 77.16 102.048 77.548 102.352 78.044C102.656 78.54 102.808 79.116 102.808 79.772C102.808 80.412 102.656 80.984 102.352 81.488C102.048 81.984 101.628 82.376 101.092 82.664C100.556 82.952 99.948 83.096 99.268 83.096ZM99.268 81.56C99.58 81.56 99.86 81.488 100.108 81.344C100.356 81.2 100.552 80.996 100.696 80.732C100.84 80.46 100.912 80.14 100.912 79.772C100.912 79.396 100.84 79.076 100.696 78.812C100.552 78.548 100.356 78.344 100.108 78.2C99.86 78.056 99.58 77.984 99.268 77.984C98.956 77.984 98.676 78.056 98.428 78.2C98.18 78.344 97.98 78.548 97.828 78.812C97.684 79.076 97.612 79.396 97.612 79.772C97.612 80.14 97.684 80.46 97.828 80.732C97.98 80.996 98.18 81.2 98.428 81.344C98.676 81.488 98.956 81.56 99.268 81.56ZM104.059 83V76.544H105.847V78.368L105.595 77.84C105.787 77.384 106.095 77.04 106.519 76.808C106.943 76.568 107.459 76.448 108.067 76.448V78.176C107.987 78.168 107.915 78.164 107.851 78.164C107.787 78.156 107.719 78.152 107.647 78.152C107.135 78.152 106.719 78.3 106.399 78.596C106.087 78.884 105.931 79.336 105.931 79.952V83H104.059ZM109.192 83V76.544H111.064V83H109.192ZM110.128 75.644C109.784 75.644 109.504 75.544 109.288 75.344C109.072 75.144 108.964 74.896 108.964 74.6C108.964 74.304 109.072 74.056 109.288 73.856C109.504 73.656 109.784 73.556 110.128 73.556C110.472 73.556 110.752 73.652 110.968 73.844C111.184 74.028 111.292 74.268 111.292 74.564C111.292 74.876 111.184 75.136 110.968 75.344C110.76 75.544 110.48 75.644 110.128 75.644ZM116.762 83V81.74L116.642 81.464V79.208C116.642 78.808 116.518 78.496 116.27 78.272C116.03 78.048 115.658 77.936 115.154 77.936C114.81 77.936 114.47 77.992 114.134 78.104C113.806 78.208 113.526 78.352 113.294 78.536L112.622 77.228C112.974 76.98 113.398 76.788 113.894 76.652C114.39 76.516 114.894 76.448 115.406 76.448C116.39 76.448 117.154 76.68 117.698 77.144C118.242 77.608 118.514 78.332 118.514 79.316V83H116.762ZM114.794 83.096C114.29 83.096 113.858 83.012 113.498 82.844C113.138 82.668 112.862 82.432 112.67 82.136C112.478 81.84 112.382 81.508 112.382 81.14C112.382 80.756 112.474 80.42 112.658 80.132C112.85 79.844 113.15 79.62 113.558 79.46C113.966 79.292 114.498 79.208 115.154 79.208H116.87V80.3H115.358C114.918 80.3 114.614 80.372 114.446 80.516C114.286 80.66 114.206 80.84 114.206 81.056C114.206 81.296 114.298 81.488 114.482 81.632C114.674 81.768 114.934 81.836 115.262 81.836C115.574 81.836 115.854 81.764 116.102 81.62C116.35 81.468 116.53 81.248 116.642 80.96L116.93 81.824C116.794 82.24 116.546 82.556 116.186 82.772C115.826 82.988 115.362 83.096 114.794 83.096ZM119.884 84.848L120.676 81.968L120.94 83.048C120.596 83.048 120.312 82.948 120.088 82.748C119.872 82.548 119.764 82.272 119.764 81.92C119.764 81.568 119.876 81.288 120.1 81.08C120.324 80.872 120.6 80.768 120.928 80.768C121.264 80.768 121.54 80.876 121.756 81.092C121.972 81.3 122.08 81.576 122.08 81.92C122.08 82.024 122.072 82.128 122.056 82.232C122.04 82.328 122.008 82.448 121.96 82.592C121.92 82.728 121.852 82.904 121.756 83.12L121.072 84.848H119.884Z"
    fill="white" />
  <path
    d="M64.728 128.144C63.536 128.144 62.604 127.812 61.932 127.148C61.26 126.484 60.924 125.536 60.924 124.304V119.6H62.868V124.232C62.868 125.032 63.032 125.608 63.36 125.96C63.688 126.312 64.148 126.488 64.74 126.488C65.332 126.488 65.792 126.312 66.12 125.96C66.448 125.608 66.612 125.032 66.612 124.232V119.6H68.532V124.304C68.532 125.536 68.196 126.484 67.524 127.148C66.852 127.812 65.92 128.144 64.728 128.144ZM78.589 121.448C79.101 121.448 79.553 121.552 79.945 121.76C80.345 121.96 80.657 122.272 80.881 122.696C81.113 123.112 81.229 123.648 81.229 124.304V128H79.357V124.592C79.357 124.072 79.249 123.688 79.033 123.44C78.817 123.192 78.513 123.068 78.121 123.068C77.849 123.068 77.605 123.132 77.389 123.26C77.173 123.38 77.005 123.564 76.885 123.812C76.765 124.06 76.705 124.376 76.705 124.76V128H74.833V124.592C74.833 124.072 74.725 123.688 74.509 123.44C74.301 123.192 74.001 123.068 73.609 123.068C73.337 123.068 73.093 123.132 72.877 123.26C72.661 123.38 72.493 123.564 72.373 123.812C72.253 124.06 72.193 124.376 72.193 124.76V128H70.321V121.544H72.109V123.308L71.773 122.792C71.997 122.352 72.313 122.02 72.721 121.796C73.137 121.564 73.609 121.448 74.137 121.448C74.729 121.448 75.245 121.6 75.685 121.904C76.133 122.2 76.429 122.656 76.573 123.272L75.913 123.092C76.129 122.588 76.473 122.188 76.945 121.892C77.425 121.596 77.973 121.448 78.589 121.448ZM90.1214 128.096C89.5774 128.096 89.1014 127.976 88.6934 127.736C88.2854 127.496 87.9654 127.132 87.7334 126.644C87.5094 126.148 87.3974 125.524 87.3974 124.772C87.3974 124.012 87.5054 123.388 87.7214 122.9C87.9374 122.412 88.2494 122.048 88.6574 121.808C89.0654 121.568 89.5534 121.448 90.1214 121.448C90.7294 121.448 91.2734 121.588 91.7534 121.868C92.2414 122.14 92.6254 122.524 92.9054 123.02C93.1934 123.516 93.3374 124.1 93.3374 124.772C93.3374 125.452 93.1934 126.04 92.9054 126.536C92.6254 127.032 92.2414 127.416 91.7534 127.688C91.2734 127.96 90.7294 128.096 90.1214 128.096ZM86.3054 130.328V121.544H88.0934V122.864L88.0574 124.784L88.1774 126.692V130.328H86.3054ZM89.7974 126.56C90.1094 126.56 90.3854 126.488 90.6254 126.344C90.8734 126.2 91.0694 125.996 91.2134 125.732C91.3654 125.46 91.4414 125.14 91.4414 124.772C91.4414 124.396 91.3654 124.076 91.2134 123.812C91.0694 123.548 90.8734 123.344 90.6254 123.2C90.3854 123.056 90.1094 122.984 89.7974 122.984C89.4854 122.984 89.2054 123.056 88.9574 123.2C88.7094 123.344 88.5134 123.548 88.3694 123.812C88.2254 124.076 88.1534 124.396 88.1534 124.772C88.1534 125.14 88.2254 125.46 88.3694 125.732C88.5134 125.996 88.7094 126.2 88.9574 126.344C89.2054 126.488 89.4854 126.56 89.7974 126.56ZM94.5906 128V121.544H96.3786V123.368L96.1266 122.84C96.3186 122.384 96.6266 122.04 97.0506 121.808C97.4746 121.568 97.9906 121.448 98.5986 121.448V123.176C98.5186 123.168 98.4466 123.164 98.3826 123.164C98.3186 123.156 98.2506 123.152 98.1786 123.152C97.6666 123.152 97.2506 123.3 96.9306 123.596C96.6186 123.884 96.4626 124.336 96.4626 124.952V128H94.5906ZM102.869 128.096C102.133 128.096 101.485 127.952 100.925 127.664C100.373 127.376 99.9448 126.984 99.6408 126.488C99.3368 125.984 99.1848 125.412 99.1848 124.772C99.1848 124.124 99.3328 123.552 99.6288 123.056C99.9328 122.552 100.345 122.16 100.865 121.88C101.385 121.592 101.973 121.448 102.629 121.448C103.261 121.448 103.829 121.584 104.333 121.856C104.845 122.12 105.249 122.504 105.545 123.008C105.841 123.504 105.989 124.1 105.989 124.796C105.989 124.868 105.985 124.952 105.977 125.048C105.969 125.136 105.961 125.22 105.953 125.3H100.709V124.208H104.969L104.249 124.532C104.249 124.196 104.181 123.904 104.045 123.656C103.909 123.408 103.721 123.216 103.481 123.08C103.241 122.936 102.961 122.864 102.641 122.864C102.321 122.864 102.037 122.936 101.789 123.08C101.549 123.216 101.361 123.412 101.225 123.668C101.089 123.916 101.021 124.212 101.021 124.556V124.844C101.021 125.196 101.097 125.508 101.249 125.78C101.409 126.044 101.629 126.248 101.909 126.392C102.197 126.528 102.533 126.596 102.917 126.596C103.261 126.596 103.561 126.544 103.817 126.44C104.081 126.336 104.321 126.18 104.537 125.972L105.533 127.052C105.237 127.388 104.865 127.648 104.417 127.832C103.969 128.008 103.453 128.096 102.869 128.096ZM110.355 128.096C109.659 128.096 109.039 127.956 108.495 127.676C107.951 127.388 107.523 126.992 107.211 126.488C106.907 125.984 106.755 125.412 106.755 124.772C106.755 124.124 106.907 123.552 107.211 123.056C107.523 122.552 107.951 122.16 108.495 121.88C109.039 121.592 109.659 121.448 110.355 121.448C111.035 121.448 111.627 121.592 112.131 121.88C112.635 122.16 113.007 122.564 113.247 123.092L111.795 123.872C111.627 123.568 111.415 123.344 111.159 123.2C110.911 123.056 110.639 122.984 110.343 122.984C110.023 122.984 109.735 123.056 109.479 123.2C109.223 123.344 109.019 123.548 108.867 123.812C108.723 124.076 108.651 124.396 108.651 124.772C108.651 125.148 108.723 125.468 108.867 125.732C109.019 125.996 109.223 126.2 109.479 126.344C109.735 126.488 110.023 126.56 110.343 126.56C110.639 126.56 110.911 126.492 111.159 126.356C111.415 126.212 111.627 125.984 111.795 125.672L113.247 126.464C113.007 126.984 112.635 127.388 112.131 127.676C111.627 127.956 111.035 128.096 110.355 128.096ZM109.671 130.784C109.463 130.784 109.259 130.76 109.059 130.712C108.867 130.664 108.699 130.604 108.555 130.532L108.843 129.728C108.963 129.784 109.087 129.828 109.215 129.86C109.343 129.892 109.479 129.908 109.623 129.908C109.847 129.908 110.007 129.872 110.103 129.8C110.199 129.728 110.247 129.636 110.247 129.524C110.247 129.42 110.199 129.336 110.103 129.272C110.015 129.208 109.867 129.176 109.659 129.176H109.251L109.563 127.904H110.559L110.391 128.6C110.751 128.64 111.015 128.752 111.183 128.936C111.351 129.128 111.435 129.348 111.435 129.596C111.435 129.956 111.275 130.244 110.955 130.46C110.635 130.676 110.207 130.784 109.671 130.784ZM117.315 128.096C116.627 128.096 116.015 127.952 115.479 127.664C114.951 127.376 114.531 126.984 114.219 126.488C113.915 125.984 113.763 125.412 113.763 124.772C113.763 124.124 113.915 123.552 114.219 123.056C114.531 122.552 114.951 122.16 115.479 121.88C116.015 121.592 116.627 121.448 117.315 121.448C117.995 121.448 118.603 121.592 119.139 121.88C119.675 122.16 120.095 122.548 120.399 123.044C120.703 123.54 120.855 124.116 120.855 124.772C120.855 125.412 120.703 125.984 120.399 126.488C120.095 126.984 119.675 127.376 119.139 127.664C118.603 127.952 117.995 128.096 117.315 128.096ZM117.315 126.56C117.627 126.56 117.907 126.488 118.155 126.344C118.403 126.2 118.599 125.996 118.743 125.732C118.887 125.46 118.959 125.14 118.959 124.772C118.959 124.396 118.887 124.076 118.743 123.812C118.599 123.548 118.403 123.344 118.155 123.2C117.907 123.056 117.627 122.984 117.315 122.984C117.003 122.984 116.723 123.056 116.475 123.2C116.227 123.344 116.027 123.548 115.875 123.812C115.731 124.076 115.659 124.396 115.659 124.772C115.659 125.14 115.731 125.46 115.875 125.732C116.027 125.996 116.227 126.2 116.475 126.344C116.723 126.488 117.003 126.56 117.315 126.56ZM121.712 129.848L122.504 126.968L122.768 128.048C122.424 128.048 122.14 127.948 121.916 127.748C121.7 127.548 121.592 127.272 121.592 126.92C121.592 126.568 121.704 126.288 121.928 126.08C122.152 125.872 122.428 125.768 122.756 125.768C123.092 125.768 123.368 125.876 123.584 126.092C123.8 126.3 123.908 126.576 123.908 126.92C123.908 127.024 123.9 127.128 123.884 127.232C123.868 127.328 123.836 127.448 123.788 127.592C123.748 127.728 123.68 127.904 123.584 128.12L122.9 129.848H121.712Z"
    fill="white" />
  <path
    d="M31.025 132V129.85C30.1416 129.65 29.379 129.267 28.737 128.7C28.095 128.133 27.6243 127.333 27.325 126.3L29.175 125.55C29.425 126.35 29.796 126.958 30.288 127.375C30.78 127.792 31.4256 128 32.225 128C32.9083 128 33.4876 127.846 33.963 127.537C34.4383 127.228 34.6756 126.749 34.675 126.1C34.675 125.517 34.4916 125.054 34.125 124.713C33.7583 124.372 32.9083 123.984 31.575 123.55C30.1416 123.1 29.1583 122.562 28.625 121.937C28.0916 121.312 27.825 120.549 27.825 119.65C27.825 118.567 28.175 117.725 28.875 117.125C29.575 116.525 30.2916 116.183 31.025 116.1V114H33.025V116.1C33.8583 116.233 34.546 116.538 35.088 117.013C35.63 117.488 36.0256 118.067 36.275 118.75L34.425 119.55C34.225 119.017 33.9416 118.617 33.575 118.35C33.2083 118.083 32.7083 117.95 32.075 117.95C31.3416 117.95 30.7833 118.113 30.4 118.438C30.0166 118.763 29.825 119.167 29.825 119.65C29.825 120.2 30.075 120.633 30.575 120.95C31.075 121.267 31.9416 121.6 33.175 121.95C34.325 122.283 35.196 122.813 35.788 123.538C36.38 124.263 36.6756 125.101 36.675 126.05C36.675 127.233 36.325 128.133 35.625 128.75C34.925 129.367 34.0583 129.75 33.025 129.9V132H31.025Z"
    fill="#FAFAFA" />
  <path
    d="M58.424 174.128C57.4427 174.128 56.5787 173.936 55.832 173.552C55.096 173.168 54.5253 172.645 54.12 171.984C53.7147 171.312 53.512 170.549 53.512 169.696C53.512 168.832 53.7093 168.069 54.104 167.408C54.5093 166.736 55.0587 166.213 55.752 165.84C56.4453 165.456 57.2293 165.264 58.104 165.264C58.9467 165.264 59.704 165.445 60.376 165.808C61.0587 166.16 61.5973 166.672 61.992 167.344C62.3867 168.005 62.584 168.8 62.584 169.728C62.584 169.824 62.5787 169.936 62.568 170.064C62.5573 170.181 62.5467 170.293 62.536 170.4H55.544V168.944H61.224L60.264 169.376C60.264 168.928 60.1733 168.539 59.992 168.208C59.8107 167.877 59.56 167.621 59.24 167.44C58.92 167.248 58.5467 167.152 58.12 167.152C57.6933 167.152 57.3147 167.248 56.984 167.44C56.664 167.621 56.4133 167.883 56.232 168.224C56.0507 168.555 55.96 168.949 55.96 169.408V169.792C55.96 170.261 56.0613 170.677 56.264 171.04C56.4773 171.392 56.7707 171.664 57.144 171.856C57.528 172.037 57.976 172.128 58.488 172.128C58.9467 172.128 59.3467 172.059 59.688 171.92C60.04 171.781 60.36 171.573 60.648 171.296L61.976 172.736C61.5813 173.184 61.0853 173.531 60.488 173.776C59.8907 174.011 59.2027 174.128 58.424 174.128ZM72.297 174.128C71.2837 174.128 70.4943 173.872 69.929 173.36C69.3637 172.837 69.081 172.064 69.081 171.04V163.488H71.577V171.008C71.577 171.371 71.673 171.653 71.865 171.856C72.057 172.048 72.3183 172.144 72.649 172.144C73.0437 172.144 73.3797 172.037 73.657 171.824L74.329 173.584C74.073 173.765 73.7637 173.904 73.401 174C73.049 174.085 72.681 174.128 72.297 174.128ZM67.753 167.504V165.584H73.721V167.504H67.753ZM81.0101 174V172.32L80.8501 171.952V168.944C80.8501 168.411 80.6848 167.995 80.3541 167.696C80.0341 167.397 79.5381 167.248 78.8661 167.248C78.4075 167.248 77.9541 167.323 77.5061 167.472C77.0688 167.611 76.6955 167.803 76.3861 168.048L75.4901 166.304C75.9595 165.973 76.5248 165.717 77.1861 165.536C77.8475 165.355 78.5195 165.264 79.2021 165.264C80.5141 165.264 81.5328 165.573 82.2581 166.192C82.9835 166.811 83.3461 167.776 83.3461 169.088V174H81.0101ZM78.3861 174.128C77.7141 174.128 77.1381 174.016 76.6581 173.792C76.1781 173.557 75.8101 173.243 75.5541 172.848C75.2981 172.453 75.1701 172.011 75.1701 171.52C75.1701 171.008 75.2928 170.56 75.5381 170.176C75.7941 169.792 76.1941 169.493 76.7381 169.28C77.2821 169.056 77.9915 168.944 78.8661 168.944H81.1541V170.4H79.1381C78.5515 170.4 78.1461 170.496 77.9221 170.688C77.7088 170.88 77.6021 171.12 77.6021 171.408C77.6021 171.728 77.7248 171.984 77.9701 172.176C78.2261 172.357 78.5728 172.448 79.0101 172.448C79.4261 172.448 79.7995 172.352 80.1301 172.16C80.4608 171.957 80.7008 171.664 80.8501 171.28L81.2341 172.432C81.0528 172.987 80.7221 173.408 80.2421 173.696C79.7621 173.984 79.1435 174.128 78.3861 174.128ZM78.0021 164.288L80.1621 161.984H82.8501L79.9541 164.288H78.0021ZM93.0324 174.128C92.2964 174.128 91.587 174.043 90.9044 173.872C90.2324 173.691 89.699 173.467 89.3044 173.2L90.1364 171.408C90.531 171.653 90.995 171.856 91.5284 172.016C92.0724 172.165 92.6057 172.24 93.1284 172.24C93.7044 172.24 94.1097 172.171 94.3444 172.032C94.5897 171.893 94.7124 171.701 94.7124 171.456C94.7124 171.253 94.6164 171.104 94.4244 171.008C94.243 170.901 93.9977 170.821 93.6884 170.768C93.379 170.715 93.0377 170.661 92.6644 170.608C92.3017 170.555 91.9337 170.485 91.5604 170.4C91.187 170.304 90.8457 170.165 90.5364 169.984C90.227 169.803 89.9764 169.557 89.7844 169.248C89.603 168.939 89.5124 168.539 89.5124 168.048C89.5124 167.504 89.667 167.024 89.9764 166.608C90.2964 166.192 90.755 165.867 91.3524 165.632C91.9497 165.387 92.6644 165.264 93.4964 165.264C94.083 165.264 94.6804 165.328 95.2884 165.456C95.8964 165.584 96.403 165.771 96.8084 166.016L95.9764 167.792C95.5604 167.547 95.139 167.381 94.7124 167.296C94.2964 167.2 93.891 167.152 93.4964 167.152C92.9417 167.152 92.5364 167.227 92.2804 167.376C92.0244 167.525 91.8964 167.717 91.8964 167.952C91.8964 168.165 91.987 168.325 92.1684 168.432C92.3604 168.539 92.611 168.624 92.9204 168.688C93.2297 168.752 93.5657 168.811 93.9284 168.864C94.3017 168.907 94.675 168.976 95.0484 169.072C95.4217 169.168 95.7577 169.307 96.0564 169.488C96.3657 169.659 96.6164 169.899 96.8084 170.208C97.0004 170.507 97.0964 170.901 97.0964 171.392C97.0964 171.925 96.9364 172.4 96.6164 172.816C96.2964 173.221 95.8324 173.541 95.2244 173.776C94.627 174.011 93.8964 174.128 93.0324 174.128ZM103.916 174V172.32L103.756 171.952V168.944C103.756 168.411 103.591 167.995 103.26 167.696C102.94 167.397 102.444 167.248 101.772 167.248C101.314 167.248 100.86 167.323 100.412 167.472C99.975 167.611 99.6017 167.803 99.2924 168.048L98.3964 166.304C98.8657 165.973 99.431 165.717 100.092 165.536C100.754 165.355 101.426 165.264 102.108 165.264C103.42 165.264 104.439 165.573 105.164 166.192C105.89 166.811 106.252 167.776 106.252 169.088V174H103.916ZM101.292 174.128C100.62 174.128 100.044 174.016 99.5644 173.792C99.0844 173.557 98.7164 173.243 98.4604 172.848C98.2044 172.453 98.0764 172.011 98.0764 171.52C98.0764 171.008 98.199 170.56 98.4444 170.176C98.7004 169.792 99.1004 169.493 99.6444 169.28C100.188 169.056 100.898 168.944 101.772 168.944H104.06V170.4H102.044C101.458 170.4 101.052 170.496 100.828 170.688C100.615 170.88 100.508 171.12 100.508 171.408C100.508 171.728 100.631 171.984 100.876 172.176C101.132 172.357 101.479 172.448 101.916 172.448C102.332 172.448 102.706 172.352 103.036 172.16C103.367 171.957 103.607 171.664 103.756 171.28L104.14 172.432C103.959 172.987 103.628 173.408 103.148 173.696C102.668 173.984 102.05 174.128 101.292 174.128ZM108.511 174V162.128H111.007V174H108.511ZM115.66 174L112.044 165.392H114.62L117.628 172.8H116.348L119.468 165.392H121.868L118.236 174H115.66ZM126.748 174.128C125.831 174.128 125.015 173.936 124.3 173.552C123.596 173.168 123.036 172.645 122.62 171.984C122.215 171.312 122.012 170.549 122.012 169.696C122.012 168.832 122.215 168.069 122.62 167.408C123.036 166.736 123.596 166.213 124.3 165.84C125.015 165.456 125.831 165.264 126.748 165.264C127.655 165.264 128.465 165.456 129.18 165.84C129.895 166.213 130.455 166.731 130.86 167.392C131.265 168.053 131.468 168.821 131.468 169.696C131.468 170.549 131.265 171.312 130.86 171.984C130.455 172.645 129.895 173.168 129.18 173.552C128.465 173.936 127.655 174.128 126.748 174.128ZM126.748 172.08C127.164 172.08 127.537 171.984 127.868 171.792C128.199 171.6 128.46 171.328 128.652 170.976C128.844 170.613 128.94 170.187 128.94 169.696C128.94 169.195 128.844 168.768 128.652 168.416C128.46 168.064 128.199 167.792 127.868 167.6C127.537 167.408 127.164 167.312 126.748 167.312C126.332 167.312 125.959 167.408 125.628 167.6C125.297 167.792 125.031 168.064 124.828 168.416C124.636 168.768 124.54 169.195 124.54 169.696C124.54 170.187 124.636 170.613 124.828 170.976C125.031 171.328 125.297 171.6 125.628 171.792C125.959 171.984 126.332 172.08 126.748 172.08ZM138.612 168.384C138.185 168.384 137.817 168.24 137.508 167.952C137.209 167.653 137.06 167.275 137.06 166.816C137.06 166.357 137.209 165.989 137.508 165.712C137.817 165.424 138.185 165.28 138.612 165.28C139.049 165.28 139.417 165.424 139.716 165.712C140.014 165.989 140.164 166.357 140.164 166.816C140.164 167.275 140.014 167.653 139.716 167.952C139.417 168.24 139.049 168.384 138.612 168.384ZM138.612 174.128C138.185 174.128 137.817 173.984 137.508 173.696C137.209 173.397 137.06 173.019 137.06 172.56C137.06 172.101 137.209 171.733 137.508 171.456C137.817 171.168 138.185 171.024 138.612 171.024C139.049 171.024 139.417 171.168 139.716 171.456C140.014 171.733 140.164 172.101 140.164 172.56C140.164 173.019 140.014 173.397 139.716 173.696C139.417 173.984 139.049 174.128 138.612 174.128ZM143.247 177.104H140.863C141.556 175.899 142.052 174.688 142.351 173.472C142.66 172.245 142.815 170.96 142.815 169.616C142.815 168.272 142.66 166.992 142.351 165.776C142.052 164.549 141.556 163.333 140.863 162.128H143.247C143.908 163.077 144.41 164.197 144.751 165.488C145.092 166.768 145.263 168.144 145.263 169.616C145.263 171.088 145.092 172.464 144.751 173.744C144.41 175.013 143.908 176.133 143.247 177.104Z"
    fill="#333333" />
</svg>