<svg width="280" height="64" viewBox="0 0 280 64" fill="none" xmlns="http://www.w3.org/2000/svg">
  <rect x="2" y="2" width="276" height="60" rx="6" fill="#333333" stroke="#191919" stroke-width="4" />
  <path
    d="M30.2765 43H31.9484C32.7945 43 33.4894 42.35 33.5902 41.53L35.252 25.05H30.2161V21H28.2319V25.05H23.2261L23.5283 27.39C25.2506 27.86 26.8621 28.71 27.829 29.65C29.2794 31.07 30.2765 32.54 30.2765 34.94V43ZM13.0938 42V41H28.2319V42C28.2319 42.54 27.7786 43 27.1945 43H14.1009C13.547 43 13.0938 42.54 13.0938 42ZM28.2319 35C28.2319 27 13.0938 27 13.0938 35H28.2319ZM13.0938 37H28.2017V39H13.0938V37Z"
    fill="#FAFAFA" />
  <path
    d="M56.0947 25.144C54.9027 25.144 53.9707 24.812 53.2987 24.148C52.6267 23.484 52.2907 22.536 52.2907 21.304V16.6H54.2347V21.232C54.2347 22.032 54.3987 22.608 54.7267 22.96C55.0547 23.312 55.5147 23.488 56.1067 23.488C56.6987 23.488 57.1587 23.312 57.4867 22.96C57.8147 22.608 57.9787 22.032 57.9787 21.232V16.6H59.8987V21.304C59.8987 22.536 59.5627 23.484 58.8907 24.148C58.2187 24.812 57.2867 25.144 56.0947 25.144ZM69.9557 18.448C70.4677 18.448 70.9197 18.552 71.3117 18.76C71.7117 18.96 72.0237 19.272 72.2477 19.696C72.4797 20.112 72.5957 20.648 72.5957 21.304V25H70.7237V21.592C70.7237 21.072 70.6157 20.688 70.3997 20.44C70.1837 20.192 69.8797 20.068 69.4877 20.068C69.2157 20.068 68.9717 20.132 68.7557 20.26C68.5397 20.38 68.3717 20.564 68.2517 20.812C68.1317 21.06 68.0717 21.376 68.0717 21.76V25H66.1997V21.592C66.1997 21.072 66.0917 20.688 65.8757 20.44C65.6677 20.192 65.3677 20.068 64.9757 20.068C64.7037 20.068 64.4597 20.132 64.2437 20.26C64.0277 20.38 63.8597 20.564 63.7397 20.812C63.6197 21.06 63.5597 21.376 63.5597 21.76V25H61.6877V18.544H63.4757V20.308L63.1397 19.792C63.3637 19.352 63.6797 19.02 64.0877 18.796C64.5037 18.564 64.9757 18.448 65.5037 18.448C66.0957 18.448 66.6117 18.6 67.0517 18.904C67.4997 19.2 67.7957 19.656 67.9397 20.272L67.2797 20.092C67.4957 19.588 67.8397 19.188 68.3117 18.892C68.7917 18.596 69.3397 18.448 69.9557 18.448ZM77.6721 25V16.096H79.5441V25H77.6721ZM85.2415 25V23.74L85.1215 23.464V21.208C85.1215 20.808 84.9975 20.496 84.7495 20.272C84.5095 20.048 84.1375 19.936 83.6335 19.936C83.2895 19.936 82.9495 19.992 82.6135 20.104C82.2855 20.208 82.0055 20.352 81.7735 20.536L81.1015 19.228C81.4535 18.98 81.8775 18.788 82.3735 18.652C82.8695 18.516 83.3735 18.448 83.8855 18.448C84.8695 18.448 85.6335 18.68 86.1775 19.144C86.7215 19.608 86.9935 20.332 86.9935 21.316V25H85.2415ZM83.2735 25.096C82.7695 25.096 82.3375 25.012 81.9775 24.844C81.6175 24.668 81.3415 24.432 81.1495 24.136C80.9575 23.84 80.8615 23.508 80.8615 23.14C80.8615 22.756 80.9535 22.42 81.1375 22.132C81.3295 21.844 81.6295 21.62 82.0375 21.46C82.4455 21.292 82.9775 21.208 83.6335 21.208H85.3495V22.3H83.8375C83.3975 22.3 83.0935 22.372 82.9255 22.516C82.7655 22.66 82.6855 22.84 82.6855 23.056C82.6855 23.296 82.7775 23.488 82.9615 23.632C83.1535 23.768 83.4135 23.836 83.7415 23.836C84.0535 23.836 84.3335 23.764 84.5815 23.62C84.8295 23.468 85.0095 23.248 85.1215 22.96L85.4095 23.824C85.2735 24.24 85.0255 24.556 84.6655 24.772C84.3055 24.988 83.8415 25.096 83.2735 25.096ZM92.6117 18.448C93.1237 18.448 93.5797 18.552 93.9797 18.76C94.3877 18.96 94.7077 19.272 94.9397 19.696C95.1717 20.112 95.2877 20.648 95.2877 21.304V25H93.4157V21.592C93.4157 21.072 93.2997 20.688 93.0677 20.44C92.8437 20.192 92.5237 20.068 92.1077 20.068C91.8117 20.068 91.5437 20.132 91.3037 20.26C91.0717 20.38 90.8877 20.568 90.7517 20.824C90.6237 21.08 90.5597 21.408 90.5597 21.808V25H88.6877V18.544H90.4757V20.332L90.1397 19.792C90.3717 19.36 90.7037 19.028 91.1357 18.796C91.5677 18.564 92.0597 18.448 92.6117 18.448ZM100.151 25.096C99.4555 25.096 98.8355 24.956 98.2915 24.676C97.7475 24.388 97.3195 23.992 97.0075 23.488C96.7035 22.984 96.5515 22.412 96.5515 21.772C96.5515 21.124 96.7035 20.552 97.0075 20.056C97.3195 19.552 97.7475 19.16 98.2915 18.88C98.8355 18.592 99.4555 18.448 100.151 18.448C100.831 18.448 101.423 18.592 101.927 18.88C102.431 19.16 102.803 19.564 103.043 20.092L101.591 20.872C101.423 20.568 101.211 20.344 100.955 20.2C100.707 20.056 100.435 19.984 100.139 19.984C99.8195 19.984 99.5315 20.056 99.2755 20.2C99.0195 20.344 98.8155 20.548 98.6635 20.812C98.5195 21.076 98.4475 21.396 98.4475 21.772C98.4475 22.148 98.5195 22.468 98.6635 22.732C98.8155 22.996 99.0195 23.2 99.2755 23.344C99.5315 23.488 99.8195 23.56 100.139 23.56C100.435 23.56 100.707 23.492 100.955 23.356C101.211 23.212 101.423 22.984 101.591 22.672L103.043 23.464C102.803 23.984 102.431 24.388 101.927 24.676C101.423 24.956 100.831 25.096 100.151 25.096ZM108.01 18.448C108.522 18.448 108.978 18.552 109.378 18.76C109.786 18.96 110.106 19.272 110.338 19.696C110.57 20.112 110.686 20.648 110.686 21.304V25H108.814V21.592C108.814 21.072 108.698 20.688 108.466 20.44C108.242 20.192 107.922 20.068 107.506 20.068C107.21 20.068 106.942 20.132 106.702 20.26C106.47 20.38 106.286 20.568 106.15 20.824C106.022 21.08 105.958 21.408 105.958 21.808V25H104.086V16.096H105.958V20.332L105.538 19.792C105.77 19.36 106.102 19.028 106.534 18.796C106.966 18.564 107.458 18.448 108.01 18.448ZM112.383 25V18.544H114.255V25H112.383ZM113.319 17.644C112.975 17.644 112.695 17.544 112.479 17.344C112.263 17.144 112.155 16.896 112.155 16.6C112.155 16.304 112.263 16.056 112.479 15.856C112.695 15.656 112.975 15.556 113.319 15.556C113.663 15.556 113.943 15.652 114.159 15.844C114.375 16.028 114.483 16.268 114.483 16.564C114.483 16.876 114.375 17.136 114.159 17.344C113.951 17.544 113.671 17.644 113.319 17.644ZM119.916 18.448C120.428 18.448 120.884 18.552 121.284 18.76C121.692 18.96 122.012 19.272 122.244 19.696C122.476 20.112 122.592 20.648 122.592 21.304V25H120.72V21.592C120.72 21.072 120.604 20.688 120.372 20.44C120.148 20.192 119.828 20.068 119.412 20.068C119.116 20.068 118.848 20.132 118.608 20.26C118.376 20.38 118.192 20.568 118.056 20.824C117.928 21.08 117.864 21.408 117.864 21.808V25H115.992V18.544H117.78V20.332L117.444 19.792C117.676 19.36 118.008 19.028 118.44 18.796C118.872 18.564 119.364 18.448 119.916 18.448ZM128.213 18.448C128.725 18.448 129.181 18.552 129.581 18.76C129.989 18.96 130.309 19.272 130.541 19.696C130.773 20.112 130.889 20.648 130.889 21.304V25H129.017V21.592C129.017 21.072 128.901 20.688 128.669 20.44C128.445 20.192 128.125 20.068 127.709 20.068C127.413 20.068 127.145 20.132 126.905 20.26C126.673 20.38 126.489 20.568 126.353 20.824C126.225 21.08 126.161 21.408 126.161 21.808V25H124.289V16.096H126.161V20.332L125.741 19.792C125.973 19.36 126.305 19.028 126.737 18.796C127.169 18.564 127.661 18.448 128.213 18.448ZM135.705 25.096C135.017 25.096 134.405 24.952 133.869 24.664C133.341 24.376 132.921 23.984 132.609 23.488C132.305 22.984 132.153 22.412 132.153 21.772C132.153 21.124 132.305 20.552 132.609 20.056C132.921 19.552 133.341 19.16 133.869 18.88C134.405 18.592 135.017 18.448 135.705 18.448C136.385 18.448 136.993 18.592 137.529 18.88C138.065 19.16 138.485 19.548 138.789 20.044C139.093 20.54 139.245 21.116 139.245 21.772C139.245 22.412 139.093 22.984 138.789 23.488C138.485 23.984 138.065 24.376 137.529 24.664C136.993 24.952 136.385 25.096 135.705 25.096ZM135.705 23.56C136.017 23.56 136.297 23.488 136.545 23.344C136.793 23.2 136.989 22.996 137.133 22.732C137.277 22.46 137.349 22.14 137.349 21.772C137.349 21.396 137.277 21.076 137.133 20.812C136.989 20.548 136.793 20.344 136.545 20.2C136.297 20.056 136.017 19.984 135.705 19.984C135.393 19.984 135.113 20.056 134.865 20.2C134.617 20.344 134.417 20.548 134.265 20.812C134.121 21.076 134.049 21.396 134.049 21.772C134.049 22.14 134.121 22.46 134.265 22.732C134.417 22.996 134.617 23.2 134.865 23.344C135.113 23.488 135.393 23.56 135.705 23.56Z"
    fill="#FAFAFA" />
  <path
    d="M236.44 25V17.32L237.28 18.16H234.76V16.6H238.384V25H236.44ZM242.795 16.456C243.571 16.456 244.239 16.616 244.799 16.936C245.359 17.256 245.791 17.724 246.095 18.34C246.399 18.948 246.551 19.708 246.551 20.62C246.551 21.588 246.367 22.408 245.999 23.08C245.639 23.752 245.139 24.264 244.499 24.616C243.859 24.968 243.115 25.144 242.267 25.144C241.827 25.144 241.403 25.096 240.995 25C240.587 24.904 240.235 24.76 239.939 24.568L240.659 23.14C240.891 23.3 241.139 23.412 241.403 23.476C241.667 23.532 241.943 23.56 242.231 23.56C242.951 23.56 243.523 23.34 243.947 22.9C244.379 22.46 244.595 21.808 244.595 20.944C244.595 20.8 244.591 20.64 244.583 20.464C244.575 20.288 244.555 20.112 244.523 19.936L245.051 20.44C244.915 20.752 244.723 21.016 244.475 21.232C244.227 21.44 243.939 21.6 243.611 21.712C243.283 21.816 242.915 21.868 242.507 21.868C241.971 21.868 241.483 21.76 241.043 21.544C240.611 21.328 240.263 21.024 239.999 20.632C239.743 20.24 239.615 19.78 239.615 19.252C239.615 18.676 239.755 18.18 240.035 17.764C240.323 17.348 240.707 17.028 241.187 16.804C241.675 16.572 242.211 16.456 242.795 16.456ZM242.915 17.908C242.635 17.908 242.391 17.96 242.183 18.064C241.975 18.16 241.811 18.304 241.691 18.496C241.571 18.68 241.511 18.9 241.511 19.156C241.511 19.54 241.639 19.848 241.895 20.08C242.159 20.304 242.507 20.416 242.939 20.416C243.219 20.416 243.467 20.364 243.683 20.26C243.907 20.148 244.079 19.996 244.199 19.804C244.319 19.612 244.379 19.396 244.379 19.156C244.379 18.916 244.319 18.704 244.199 18.52C244.087 18.328 243.923 18.18 243.707 18.076C243.491 17.964 243.227 17.908 242.915 17.908ZM247.404 26.848L248.196 23.968L248.46 25.048C248.116 25.048 247.832 24.948 247.608 24.748C247.392 24.548 247.284 24.272 247.284 23.92C247.284 23.568 247.396 23.288 247.62 23.08C247.844 22.872 248.12 22.768 248.448 22.768C248.784 22.768 249.06 22.876 249.276 23.092C249.492 23.3 249.6 23.576 249.6 23.92C249.6 24.024 249.592 24.128 249.576 24.232C249.56 24.328 249.528 24.448 249.48 24.592C249.44 24.728 249.372 24.904 249.276 25.12L248.592 26.848H247.404ZM253.424 16.456C254.2 16.456 254.868 16.616 255.428 16.936C255.988 17.256 256.42 17.724 256.724 18.34C257.028 18.948 257.18 19.708 257.18 20.62C257.18 21.588 256.996 22.408 256.628 23.08C256.268 23.752 255.768 24.264 255.128 24.616C254.488 24.968 253.744 25.144 252.896 25.144C252.456 25.144 252.032 25.096 251.624 25C251.216 24.904 250.864 24.76 250.568 24.568L251.288 23.14C251.52 23.3 251.768 23.412 252.032 23.476C252.296 23.532 252.572 23.56 252.86 23.56C253.58 23.56 254.152 23.34 254.576 22.9C255.008 22.46 255.224 21.808 255.224 20.944C255.224 20.8 255.22 20.64 255.212 20.464C255.204 20.288 255.184 20.112 255.152 19.936L255.68 20.44C255.544 20.752 255.352 21.016 255.104 21.232C254.856 21.44 254.568 21.6 254.24 21.712C253.912 21.816 253.544 21.868 253.136 21.868C252.6 21.868 252.112 21.76 251.672 21.544C251.24 21.328 250.892 21.024 250.628 20.632C250.372 20.24 250.244 19.78 250.244 19.252C250.244 18.676 250.384 18.18 250.664 17.764C250.952 17.348 251.336 17.028 251.816 16.804C252.304 16.572 252.84 16.456 253.424 16.456ZM253.544 17.908C253.264 17.908 253.02 17.96 252.812 18.064C252.604 18.16 252.44 18.304 252.32 18.496C252.2 18.68 252.14 18.9 252.14 19.156C252.14 19.54 252.268 19.848 252.524 20.08C252.788 20.304 253.136 20.416 253.568 20.416C253.848 20.416 254.096 20.364 254.312 20.26C254.536 20.148 254.708 19.996 254.828 19.804C254.948 19.612 255.008 19.396 255.008 19.156C255.008 18.916 254.948 18.704 254.828 18.52C254.716 18.328 254.552 18.18 254.336 18.076C254.12 17.964 253.856 17.908 253.544 17.908ZM261.065 16.456C261.841 16.456 262.509 16.616 263.069 16.936C263.629 17.256 264.061 17.724 264.365 18.34C264.669 18.948 264.821 19.708 264.821 20.62C264.821 21.588 264.637 22.408 264.269 23.08C263.909 23.752 263.409 24.264 262.769 24.616C262.129 24.968 261.385 25.144 260.537 25.144C260.097 25.144 259.673 25.096 259.265 25C258.857 24.904 258.505 24.76 258.209 24.568L258.929 23.14C259.161 23.3 259.409 23.412 259.673 23.476C259.937 23.532 260.213 23.56 260.501 23.56C261.221 23.56 261.793 23.34 262.217 22.9C262.649 22.46 262.865 21.808 262.865 20.944C262.865 20.8 262.861 20.64 262.853 20.464C262.845 20.288 262.825 20.112 262.793 19.936L263.321 20.44C263.185 20.752 262.993 21.016 262.745 21.232C262.497 21.44 262.209 21.6 261.881 21.712C261.553 21.816 261.185 21.868 260.777 21.868C260.241 21.868 259.753 21.76 259.313 21.544C258.881 21.328 258.533 21.024 258.269 20.632C258.013 20.24 257.885 19.78 257.885 19.252C257.885 18.676 258.025 18.18 258.305 17.764C258.593 17.348 258.977 17.028 259.457 16.804C259.945 16.572 260.481 16.456 261.065 16.456ZM261.185 17.908C260.905 17.908 260.661 17.96 260.453 18.064C260.245 18.16 260.081 18.304 259.961 18.496C259.841 18.68 259.781 18.9 259.781 19.156C259.781 19.54 259.909 19.848 260.165 20.08C260.429 20.304 260.777 20.416 261.209 20.416C261.489 20.416 261.737 20.364 261.953 20.26C262.177 20.148 262.349 19.996 262.469 19.804C262.589 19.612 262.649 19.396 262.649 19.156C262.649 18.916 262.589 18.704 262.469 18.52C262.357 18.328 262.193 18.18 261.977 18.076C261.761 17.964 261.497 17.908 261.185 17.908Z"
    fill="#FAFAFA" />
  <path
    d="M206.56 48L210.184 39.984L210.448 40.368H205.252L205.696 39.948V41.94H204.844V39.6H211.012V40.212L207.496 48H206.56ZM223.727 41.64C224.239 41.64 224.683 41.74 225.059 41.94C225.443 42.132 225.739 42.428 225.947 42.828C226.163 43.228 226.271 43.732 226.271 44.34V48H225.419V44.424C225.419 43.76 225.259 43.26 224.939 42.924C224.627 42.58 224.183 42.408 223.607 42.408C223.175 42.408 222.799 42.5 222.479 42.684C222.167 42.86 221.923 43.12 221.747 43.464C221.579 43.8 221.495 44.208 221.495 44.688V48H220.643V44.424C220.643 43.76 220.483 43.26 220.163 42.924C219.843 42.58 219.395 42.408 218.819 42.408C218.395 42.408 218.023 42.5 217.703 42.684C217.383 42.86 217.135 43.12 216.959 43.464C216.791 43.8 216.707 44.208 216.707 44.688V48H215.855V41.7H216.671V43.404L216.539 43.104C216.731 42.648 217.039 42.292 217.463 42.036C217.895 41.772 218.403 41.64 218.987 41.64C219.603 41.64 220.127 41.796 220.559 42.108C220.991 42.412 221.271 42.872 221.399 43.488L221.063 43.356C221.247 42.844 221.571 42.432 222.035 42.12C222.507 41.8 223.071 41.64 223.727 41.64ZM228.582 48V41.7H229.434V48H228.582ZM229.014 40.308C228.838 40.308 228.69 40.248 228.57 40.128C228.45 40.008 228.39 39.864 228.39 39.696C228.39 39.528 228.45 39.388 228.57 39.276C228.69 39.156 228.838 39.096 229.014 39.096C229.19 39.096 229.338 39.152 229.458 39.264C229.578 39.376 229.638 39.516 229.638 39.684C229.638 39.86 229.578 40.008 229.458 40.128C229.346 40.248 229.198 40.308 229.014 40.308ZM235.021 41.64C235.533 41.64 235.981 41.74 236.365 41.94C236.757 42.132 237.061 42.428 237.277 42.828C237.501 43.228 237.613 43.732 237.613 44.34V48H236.761V44.424C236.761 43.76 236.593 43.26 236.257 42.924C235.929 42.58 235.465 42.408 234.865 42.408C234.417 42.408 234.025 42.5 233.689 42.684C233.361 42.86 233.105 43.12 232.921 43.464C232.745 43.8 232.657 44.208 232.657 44.688V48H231.805V41.7H232.621V43.428L232.489 43.104C232.689 42.648 233.009 42.292 233.449 42.036C233.889 41.772 234.413 41.64 235.021 41.64ZM242.518 48.06C241.982 48.06 241.514 47.96 241.114 47.76C240.714 47.56 240.402 47.26 240.178 46.86C239.962 46.46 239.854 45.96 239.854 45.36V41.7H240.706V45.264C240.706 45.936 240.87 46.444 241.198 46.788C241.534 47.124 242.002 47.292 242.602 47.292C243.042 47.292 243.422 47.204 243.742 47.028C244.07 46.844 244.318 46.58 244.486 46.236C244.662 45.892 244.75 45.48 244.75 45V41.7H245.602V48H244.786V46.272L244.918 46.584C244.718 47.048 244.406 47.412 243.982 47.676C243.566 47.932 243.078 48.06 242.518 48.06ZM249.969 48.06C249.377 48.06 248.921 47.9 248.601 47.58C248.281 47.26 248.121 46.808 248.121 46.224V40.308H248.973V46.176C248.973 46.544 249.065 46.828 249.249 47.028C249.441 47.228 249.713 47.328 250.065 47.328C250.441 47.328 250.753 47.22 251.001 47.004L251.301 47.616C251.133 47.768 250.929 47.88 250.689 47.952C250.457 48.024 250.217 48.06 249.969 48.06ZM246.993 42.408V41.7H250.893V42.408H246.993ZM255.197 48.06C254.589 48.06 254.041 47.924 253.553 47.652C253.073 47.372 252.693 46.992 252.413 46.512C252.133 46.024 251.993 45.468 251.993 44.844C251.993 44.212 252.133 43.656 252.413 43.176C252.693 42.696 253.073 42.32 253.553 42.048C254.033 41.776 254.581 41.64 255.197 41.64C255.821 41.64 256.373 41.776 256.853 42.048C257.341 42.32 257.721 42.696 257.993 43.176C258.273 43.656 258.413 44.212 258.413 44.844C258.413 45.468 258.273 46.024 257.993 46.512C257.721 46.992 257.341 47.372 256.853 47.652C256.365 47.924 255.813 48.06 255.197 48.06ZM255.197 47.304C255.653 47.304 256.057 47.204 256.409 47.004C256.761 46.796 257.037 46.508 257.237 46.14C257.445 45.764 257.549 45.332 257.549 44.844C257.549 44.348 257.445 43.916 257.237 43.548C257.037 43.18 256.761 42.896 256.409 42.696C256.057 42.488 255.657 42.384 255.209 42.384C254.761 42.384 254.361 42.488 254.009 42.696C253.657 42.896 253.377 43.18 253.169 43.548C252.961 43.916 252.857 44.348 252.857 44.844C252.857 45.332 252.961 45.764 253.169 46.14C253.377 46.508 253.657 46.796 254.009 47.004C254.361 47.204 254.757 47.304 255.197 47.304ZM261.844 48.06C261.324 48.06 260.832 47.988 260.368 47.844C259.904 47.692 259.54 47.504 259.276 47.28L259.66 46.608C259.916 46.8 260.244 46.968 260.644 47.112C261.044 47.248 261.464 47.316 261.904 47.316C262.504 47.316 262.936 47.224 263.2 47.04C263.464 46.848 263.596 46.596 263.596 46.284C263.596 46.052 263.52 45.872 263.368 45.744C263.224 45.608 263.032 45.508 262.792 45.444C262.552 45.372 262.284 45.312 261.988 45.264C261.692 45.216 261.396 45.16 261.1 45.096C260.812 45.032 260.548 44.94 260.308 44.82C260.068 44.692 259.872 44.52 259.72 44.304C259.576 44.088 259.504 43.8 259.504 43.44C259.504 43.096 259.6 42.788 259.792 42.516C259.984 42.244 260.264 42.032 260.632 41.88C261.008 41.72 261.464 41.64 262 41.64C262.408 41.64 262.816 41.696 263.224 41.808C263.632 41.912 263.968 42.052 264.232 42.228L263.86 42.912C263.58 42.72 263.28 42.584 262.96 42.504C262.64 42.416 262.32 42.372 262 42.372C261.432 42.372 261.012 42.472 260.74 42.672C260.476 42.864 260.344 43.112 260.344 43.416C260.344 43.656 260.416 43.844 260.56 43.98C260.712 44.116 260.908 44.224 261.148 44.304C261.396 44.376 261.664 44.436 261.952 44.484C262.248 44.532 262.54 44.592 262.828 44.664C263.124 44.728 263.392 44.82 263.632 44.94C263.88 45.052 264.076 45.216 264.22 45.432C264.372 45.64 264.448 45.916 264.448 46.26C264.448 46.628 264.344 46.948 264.136 47.22C263.936 47.484 263.64 47.692 263.248 47.844C262.864 47.988 262.396 48.06 261.844 48.06Z"
    fill="#969696" />
  <path
    d="M55.8067 48.06C55.2627 48.06 54.7707 47.936 54.3307 47.688C53.8907 47.432 53.5387 47.068 53.2747 46.596C53.0187 46.116 52.8907 45.532 52.8907 44.844C52.8907 44.156 53.0187 43.576 53.2747 43.104C53.5307 42.624 53.8787 42.26 54.3187 42.012C54.7587 41.764 55.2547 41.64 55.8067 41.64C56.4067 41.64 56.9427 41.776 57.4147 42.048C57.8947 42.312 58.2707 42.688 58.5427 43.176C58.8147 43.656 58.9507 44.212 58.9507 44.844C58.9507 45.484 58.8147 46.044 58.5427 46.524C58.2707 47.004 57.8947 47.38 57.4147 47.652C56.9427 47.924 56.4067 48.06 55.8067 48.06ZM52.5547 50.328V41.7H53.3707V43.596L53.2867 44.856L53.4067 46.128V50.328H52.5547ZM55.7467 47.304C56.1947 47.304 56.5947 47.204 56.9467 47.004C57.2987 46.796 57.5787 46.508 57.7867 46.14C57.9947 45.764 58.0987 45.332 58.0987 44.844C58.0987 44.356 57.9947 43.928 57.7867 43.56C57.5787 43.192 57.2987 42.904 56.9467 42.696C56.5947 42.488 56.1947 42.384 55.7467 42.384C55.2987 42.384 54.8947 42.488 54.5347 42.696C54.1827 42.904 53.9027 43.192 53.6947 43.56C53.4947 43.928 53.3947 44.356 53.3947 44.844C53.3947 45.332 53.4947 45.764 53.6947 46.14C53.9027 46.508 54.1827 46.796 54.5347 47.004C54.8947 47.204 55.2987 47.304 55.7467 47.304ZM63.2555 48.06C62.6475 48.06 62.0995 47.924 61.6115 47.652C61.1315 47.372 60.7515 46.992 60.4715 46.512C60.1915 46.024 60.0515 45.468 60.0515 44.844C60.0515 44.212 60.1915 43.656 60.4715 43.176C60.7515 42.696 61.1315 42.32 61.6115 42.048C62.0915 41.776 62.6395 41.64 63.2555 41.64C63.8795 41.64 64.4315 41.776 64.9115 42.048C65.3995 42.32 65.7795 42.696 66.0515 43.176C66.3315 43.656 66.4715 44.212 66.4715 44.844C66.4715 45.468 66.3315 46.024 66.0515 46.512C65.7795 46.992 65.3995 47.372 64.9115 47.652C64.4235 47.924 63.8715 48.06 63.2555 48.06ZM63.2555 47.304C63.7115 47.304 64.1155 47.204 64.4675 47.004C64.8195 46.796 65.0955 46.508 65.2955 46.14C65.5035 45.764 65.6075 45.332 65.6075 44.844C65.6075 44.348 65.5035 43.916 65.2955 43.548C65.0955 43.18 64.8195 42.896 64.4675 42.696C64.1155 42.488 63.7155 42.384 63.2675 42.384C62.8195 42.384 62.4195 42.488 62.0675 42.696C61.7155 42.896 61.4355 43.18 61.2275 43.548C61.0195 43.916 60.9155 44.348 60.9155 44.844C60.9155 45.332 61.0195 45.764 61.2275 46.14C61.4355 46.508 61.7155 46.796 62.0675 47.004C62.4195 47.204 62.8155 47.304 63.2555 47.304ZM68.2109 48V41.7H69.0269V43.416L68.9429 43.116C69.1189 42.636 69.4149 42.272 69.8309 42.024C70.2469 41.768 70.7629 41.64 71.3789 41.64V42.468C71.3469 42.468 71.3149 42.468 71.2829 42.468C71.2509 42.46 71.2189 42.456 71.1869 42.456C70.5229 42.456 70.0029 42.66 69.6269 43.068C69.2509 43.468 69.0629 44.04 69.0629 44.784V48H68.2109ZM77.788 48L74.992 41.7H75.88L78.448 47.544H78.028L80.632 41.7H81.472L78.664 48H77.788ZM85.0641 48.06C84.4561 48.06 83.9081 47.924 83.4201 47.652C82.9401 47.372 82.5601 46.992 82.2801 46.512C82.0001 46.024 81.8601 45.468 81.8601 44.844C81.8601 44.212 82.0001 43.656 82.2801 43.176C82.5601 42.696 82.9401 42.32 83.4201 42.048C83.9001 41.776 84.4481 41.64 85.0641 41.64C85.6881 41.64 86.2401 41.776 86.7201 42.048C87.2081 42.32 87.5881 42.696 87.8601 43.176C88.1401 43.656 88.2801 44.212 88.2801 44.844C88.2801 45.468 88.1401 46.024 87.8601 46.512C87.5881 46.992 87.2081 47.372 86.7201 47.652C86.2321 47.924 85.6801 48.06 85.0641 48.06ZM85.0641 47.304C85.5201 47.304 85.9241 47.204 86.2761 47.004C86.6281 46.796 86.9041 46.508 87.1041 46.14C87.3121 45.764 87.4161 45.332 87.4161 44.844C87.4161 44.348 87.3121 43.916 87.1041 43.548C86.9041 43.18 86.6281 42.896 86.2761 42.696C85.9241 42.488 85.5241 42.384 85.0761 42.384C84.6281 42.384 84.2281 42.488 83.8761 42.696C83.5241 42.896 83.2441 43.18 83.0361 43.548C82.8281 43.916 82.7241 44.348 82.7241 44.844C82.7241 45.332 82.8281 45.764 83.0361 46.14C83.2441 46.508 83.5241 46.796 83.8761 47.004C84.2281 47.204 84.6241 47.304 85.0641 47.304ZM92.6355 48.06C92.0115 48.06 91.4515 47.924 90.9555 47.652C90.4675 47.372 90.0835 46.992 89.8035 46.512C89.5235 46.024 89.3835 45.468 89.3835 44.844C89.3835 44.212 89.5235 43.656 89.8035 43.176C90.0835 42.696 90.4675 42.32 90.9555 42.048C91.4515 41.776 92.0115 41.64 92.6355 41.64C93.1715 41.64 93.6555 41.744 94.0875 41.952C94.5195 42.16 94.8595 42.472 95.1075 42.888L94.4715 43.32C94.2555 43 93.9875 42.764 93.6675 42.612C93.3475 42.46 92.9995 42.384 92.6235 42.384C92.1755 42.384 91.7715 42.488 91.4115 42.696C91.0515 42.896 90.7675 43.18 90.5595 43.548C90.3515 43.916 90.2475 44.348 90.2475 44.844C90.2475 45.34 90.3515 45.772 90.5595 46.14C90.7675 46.508 91.0515 46.796 91.4115 47.004C91.7715 47.204 92.1755 47.304 92.6235 47.304C92.9995 47.304 93.3475 47.228 93.6675 47.076C93.9875 46.924 94.2555 46.692 94.4715 46.38L95.1075 46.812C94.8595 47.22 94.5195 47.532 94.0875 47.748C93.6555 47.956 93.1715 48.06 92.6355 48.06ZM99.3518 48.06C98.6958 48.06 98.1198 47.924 97.6238 47.652C97.1278 47.372 96.7398 46.992 96.4598 46.512C96.1798 46.024 96.0398 45.468 96.0398 44.844C96.0398 44.22 96.1718 43.668 96.4358 43.188C96.7078 42.708 97.0758 42.332 97.5398 42.06C98.0118 41.78 98.5398 41.64 99.1238 41.64C99.7158 41.64 100.24 41.776 100.696 42.048C101.16 42.312 101.524 42.688 101.788 43.176C102.052 43.656 102.184 44.212 102.184 44.844C102.184 44.884 102.18 44.928 102.172 44.976C102.172 45.016 102.172 45.06 102.172 45.108H96.6878V44.472H101.716L101.38 44.724C101.38 44.268 101.28 43.864 101.08 43.512C100.888 43.152 100.624 42.872 100.288 42.672C99.9518 42.472 99.5638 42.372 99.1238 42.372C98.6918 42.372 98.3038 42.472 97.9598 42.672C97.6158 42.872 97.3478 43.152 97.1558 43.512C96.9638 43.872 96.8678 44.284 96.8678 44.748V44.88C96.8678 45.36 96.9718 45.784 97.1798 46.152C97.3958 46.512 97.6918 46.796 98.0678 47.004C98.4518 47.204 98.8878 47.304 99.3758 47.304C99.7598 47.304 100.116 47.236 100.444 47.1C100.78 46.964 101.068 46.756 101.308 46.476L101.788 47.028C101.508 47.364 101.156 47.62 100.732 47.796C100.316 47.972 99.8558 48.06 99.3518 48.06ZM97.1318 40.716L98.6798 39.228H99.5438L101.092 40.716H100.3L98.7758 39.444H99.4478L97.9238 40.716H97.1318Z"
    fill="#969696" />
</svg>