<svg width="280" height="121" viewBox="0 0 280 121" fill="none" xmlns="http://www.w3.org/2000/svg">
  <rect x="2" y="2.5" width="276" height="116" rx="6" fill="#333333" />
  <path
    d="M23 38.5C22.45 38.5 21.979 38.304 21.587 37.912C21.195 37.52 20.9993 37.0493 21 36.5C21 35.95 21.196 35.479 21.588 35.087C21.98 34.695 22.4507 34.4993 23 34.5C23.55 34.5 24.021 34.696 24.413 35.088C24.805 35.48 25.0007 35.9507 25 36.5C25 37.05 24.804 37.521 24.412 37.913C24.02 38.305 23.5493 38.5007 23 38.5ZM33 38.5C32.45 38.5 31.979 38.304 31.587 37.912C31.195 37.52 30.9993 37.0493 31 36.5C31 35.95 31.196 35.479 31.588 35.087C31.98 34.695 32.4507 34.4993 33 34.5C33.55 34.5 34.021 34.696 34.413 35.088C34.805 35.48 35.0007 35.9507 35 36.5C35 37.05 34.804 37.521 34.412 37.913C34.02 38.305 33.5493 38.5007 33 38.5ZM22.15 22.5L24.55 27.5H31.55L34.3 22.5H22.15ZM21.2 20.5H35.95C36.3333 20.5 36.625 20.671 36.825 21.013C37.025 21.355 37.0333 21.7007 36.85 22.05L33.3 28.45C33.1167 28.7833 32.8707 29.0417 32.562 29.225C32.2533 29.4083 31.916 29.5 31.55 29.5H24.1L23 31.5H35V33.5H23C22.25 33.5 21.6833 33.1707 21.3 32.512C20.9167 31.8533 20.9 31.1993 21.25 30.55L22.6 28.1L19 20.5H17V18.5H20.25L21.2 20.5Z"
    fill="#FAFAFA" />
  <path d="M49.764 32.5V24.82L50.604 25.66H48.084V24.1H51.708V32.5H49.764Z" fill="#FAFAFA" />
  <path
    d="M27.0252 69.5V67.35C26.1419 67.15 25.3792 66.7667 24.7372 66.2C24.0952 65.6333 23.6245 64.8333 23.3252 63.8L25.1752 63.05C25.4252 63.85 25.7962 64.4583 26.2882 64.875C26.7802 65.2917 27.4259 65.5 28.2252 65.5C28.9085 65.5 29.4879 65.3457 29.9632 65.037C30.4385 64.7283 30.6759 64.2493 30.6752 63.6C30.6752 63.0167 30.4919 62.5543 30.1252 62.213C29.7585 61.8717 28.9085 61.484 27.5752 61.05C26.1419 60.6 25.1585 60.0623 24.6252 59.437C24.0919 58.8117 23.8252 58.0493 23.8252 57.15C23.8252 56.0667 24.1752 55.225 24.8752 54.625C25.5752 54.025 26.2919 53.6833 27.0252 53.6V51.5H29.0252V53.6C29.8585 53.7333 30.5462 54.0377 31.0882 54.513C31.6302 54.9883 32.0259 55.5673 32.2752 56.25L30.4252 57.05C30.2252 56.5167 29.9419 56.1167 29.5752 55.85C29.2085 55.5833 28.7085 55.45 28.0752 55.45C27.3419 55.45 26.7835 55.6127 26.4002 55.938C26.0169 56.2633 25.8252 56.6673 25.8252 57.15C25.8252 57.7 26.0752 58.1333 26.5752 58.45C27.0752 58.7667 27.9419 59.1 29.1752 59.45C30.3252 59.7833 31.1962 60.3127 31.7882 61.038C32.3802 61.7633 32.6759 62.6007 32.6752 63.55C32.6752 64.7333 32.3252 65.6333 31.6252 66.25C30.9252 66.8667 30.0585 67.25 29.0252 67.4V69.5H27.0252Z"
    fill="#FAFAFA" />
  <path
    d="M48.996 65.5V57.1H52.632C53.384 57.1 54.032 57.224 54.576 57.472C55.12 57.712 55.54 58.06 55.836 58.516C56.132 58.972 56.28 59.516 56.28 60.148C56.28 60.772 56.132 61.312 55.836 61.768C55.54 62.216 55.12 62.56 54.576 62.8C54.032 63.04 53.384 63.16 52.632 63.16H50.076L50.94 62.308V65.5H48.996ZM54.336 65.5L52.236 62.452H54.312L56.436 65.5H54.336ZM50.94 62.524L50.076 61.612H52.524C53.124 61.612 53.572 61.484 53.868 61.228C54.164 60.964 54.312 60.604 54.312 60.148C54.312 59.684 54.164 59.324 53.868 59.068C53.572 58.812 53.124 58.684 52.524 58.684H50.076L50.94 57.76V62.524ZM60.1482 66.94V55.66H61.3482V66.94H60.1482ZM60.5802 65.644C59.9082 65.644 59.2642 65.556 58.6482 65.38C58.0322 65.196 57.5362 64.96 57.1602 64.672L57.8202 63.208C58.1802 63.464 58.6042 63.676 59.0922 63.844C59.5882 64.004 60.0882 64.084 60.5922 64.084C60.9762 64.084 61.2842 64.048 61.5162 63.976C61.7562 63.896 61.9322 63.788 62.0442 63.652C62.1562 63.516 62.2122 63.36 62.2122 63.184C62.2122 62.96 62.1242 62.784 61.9482 62.656C61.7722 62.52 61.5402 62.412 61.2522 62.332C60.9642 62.244 60.6442 62.164 60.2922 62.092C59.9482 62.012 59.6002 61.916 59.2482 61.804C58.9042 61.692 58.5882 61.548 58.3002 61.372C58.0122 61.196 57.7762 60.964 57.5922 60.676C57.4162 60.388 57.3282 60.02 57.3282 59.572C57.3282 59.092 57.4562 58.656 57.7122 58.264C57.9762 57.864 58.3682 57.548 58.8882 57.316C59.4162 57.076 60.0762 56.956 60.8682 56.956C61.3962 56.956 61.9162 57.02 62.4282 57.148C62.9402 57.268 63.3922 57.452 63.7842 57.7L63.1842 59.176C62.7922 58.952 62.4002 58.788 62.0082 58.684C61.6162 58.572 61.2322 58.516 60.8562 58.516C60.4802 58.516 60.1722 58.56 59.9322 58.648C59.6922 58.736 59.5202 58.852 59.4162 58.996C59.3122 59.132 59.2602 59.292 59.2602 59.476C59.2602 59.692 59.3482 59.868 59.5242 60.004C59.7002 60.132 59.9322 60.236 60.2202 60.316C60.5082 60.396 60.8242 60.476 61.1682 60.556C61.5202 60.636 61.8682 60.728 62.2122 60.832C62.5642 60.936 62.8842 61.076 63.1722 61.252C63.4602 61.428 63.6922 61.66 63.8682 61.948C64.0522 62.236 64.1442 62.6 64.1442 63.04C64.1442 63.512 64.0122 63.944 63.7482 64.336C63.4842 64.728 63.0882 65.044 62.5602 65.284C62.0402 65.524 61.3802 65.644 60.5802 65.644ZM66.1234 65.5V57.82L66.9634 58.66H64.4434V57.1H68.0674V65.5H66.1234ZM73.1266 65.644C72.4386 65.644 71.8226 65.476 71.2786 65.14C70.7346 64.796 70.3066 64.3 69.9946 63.652C69.6826 63.004 69.5266 62.22 69.5266 61.3C69.5266 60.38 69.6826 59.596 69.9946 58.948C70.3066 58.3 70.7346 57.808 71.2786 57.472C71.8226 57.128 72.4386 56.956 73.1266 56.956C73.8226 56.956 74.4386 57.128 74.9746 57.472C75.5186 57.808 75.9466 58.3 76.2586 58.948C76.5706 59.596 76.7266 60.38 76.7266 61.3C76.7266 62.22 76.5706 63.004 76.2586 63.652C75.9466 64.3 75.5186 64.796 74.9746 65.14C74.4386 65.476 73.8226 65.644 73.1266 65.644ZM73.1266 64C73.4546 64 73.7386 63.908 73.9786 63.724C74.2266 63.54 74.4186 63.248 74.5546 62.848C74.6986 62.448 74.7706 61.932 74.7706 61.3C74.7706 60.668 74.6986 60.152 74.5546 59.752C74.4186 59.352 74.2266 59.06 73.9786 58.876C73.7386 58.692 73.4546 58.6 73.1266 58.6C72.8066 58.6 72.5226 58.692 72.2746 58.876C72.0346 59.06 71.8426 59.352 71.6986 59.752C71.5626 60.152 71.4946 60.668 71.4946 61.3C71.4946 61.932 71.5626 62.448 71.6986 62.848C71.8426 63.248 72.0346 63.54 72.2746 63.724C72.5226 63.908 72.8066 64 73.1266 64ZM77.5908 67.348L78.3828 64.468L78.6468 65.548C78.3028 65.548 78.0188 65.448 77.7948 65.248C77.5788 65.048 77.4708 64.772 77.4708 64.42C77.4708 64.068 77.5828 63.788 77.8068 63.58C78.0308 63.372 78.3068 63.268 78.6348 63.268C78.9708 63.268 79.2468 63.376 79.4628 63.592C79.6788 63.8 79.7868 64.076 79.7868 64.42C79.7868 64.524 79.7788 64.628 79.7628 64.732C79.7468 64.828 79.7148 64.948 79.6668 65.092C79.6268 65.228 79.5588 65.404 79.4628 65.62L78.7788 67.348H77.5908ZM84.1071 65.644C83.4191 65.644 82.8031 65.476 82.2591 65.14C81.7151 64.796 81.2871 64.3 80.9751 63.652C80.6631 63.004 80.5071 62.22 80.5071 61.3C80.5071 60.38 80.6631 59.596 80.9751 58.948C81.2871 58.3 81.7151 57.808 82.2591 57.472C82.8031 57.128 83.4191 56.956 84.1071 56.956C84.8031 56.956 85.4191 57.128 85.9551 57.472C86.4991 57.808 86.9271 58.3 87.2391 58.948C87.5511 59.596 87.7071 60.38 87.7071 61.3C87.7071 62.22 87.5511 63.004 87.2391 63.652C86.9271 64.3 86.4991 64.796 85.9551 65.14C85.4191 65.476 84.8031 65.644 84.1071 65.644ZM84.1071 64C84.4351 64 84.7191 63.908 84.9591 63.724C85.2071 63.54 85.3991 63.248 85.5351 62.848C85.6791 62.448 85.7511 61.932 85.7511 61.3C85.7511 60.668 85.6791 60.152 85.5351 59.752C85.3991 59.352 85.2071 59.06 84.9591 58.876C84.7191 58.692 84.4351 58.6 84.1071 58.6C83.7871 58.6 83.5031 58.692 83.2551 58.876C83.0151 59.06 82.8231 59.352 82.6791 59.752C82.5431 60.152 82.4751 60.668 82.4751 61.3C82.4751 61.932 82.5431 62.448 82.6791 62.848C82.8231 63.248 83.0151 63.54 83.2551 63.724C83.5031 63.908 83.7871 64 84.1071 64ZM92.2516 65.644C91.5636 65.644 90.9476 65.476 90.4036 65.14C89.8596 64.796 89.4316 64.3 89.1196 63.652C88.8076 63.004 88.6516 62.22 88.6516 61.3C88.6516 60.38 88.8076 59.596 89.1196 58.948C89.4316 58.3 89.8596 57.808 90.4036 57.472C90.9476 57.128 91.5636 56.956 92.2516 56.956C92.9476 56.956 93.5636 57.128 94.0996 57.472C94.6436 57.808 95.0716 58.3 95.3836 58.948C95.6956 59.596 95.8516 60.38 95.8516 61.3C95.8516 62.22 95.6956 63.004 95.3836 63.652C95.0716 64.3 94.6436 64.796 94.0996 65.14C93.5636 65.476 92.9476 65.644 92.2516 65.644ZM92.2516 64C92.5796 64 92.8636 63.908 93.1036 63.724C93.3516 63.54 93.5436 63.248 93.6796 62.848C93.8236 62.448 93.8956 61.932 93.8956 61.3C93.8956 60.668 93.8236 60.152 93.6796 59.752C93.5436 59.352 93.3516 59.06 93.1036 58.876C92.8636 58.692 92.5796 58.6 92.2516 58.6C91.9316 58.6 91.6476 58.692 91.3996 58.876C91.1596 59.06 90.9676 59.352 90.8236 59.752C90.6876 60.152 90.6196 60.668 90.6196 61.3C90.6196 61.932 90.6876 62.448 90.8236 62.848C90.9676 63.248 91.1596 63.54 91.3996 63.724C91.6476 63.908 91.9316 64 92.2516 64Z"
    fill="#FAFAFA" />
  <path
    d="M85 92.5C83.9 92.5 82.9583 92.1083 82.175 91.325C81.3917 90.5417 81 89.6 81 88.5C81 87.4 81.3917 86.4583 82.175 85.675C82.9583 84.8917 83.9 84.5 85 84.5C86.1 84.5 87.0417 84.8917 87.825 85.675C88.6083 86.4583 89 87.4 89 88.5C89 89.6 88.6083 90.5417 87.825 91.325C87.0417 92.1083 86.1 92.5 85 92.5ZM77 100.5V97.7C77 97.1333 77.146 96.6123 77.438 96.137C77.73 95.6617 78.1173 95.2993 78.6 95.05C79.6333 94.5333 80.6833 94.1457 81.75 93.887C82.8167 93.6283 83.9 93.4993 85 93.5C86.1 93.5 87.1833 93.6293 88.25 93.888C89.3167 94.1467 90.3667 94.534 91.4 95.05C91.8833 95.3 92.271 95.6627 92.563 96.138C92.855 96.6133 93.0007 97.134 93 97.7V100.5H77Z"
    fill="#FAFAFA" />
  <path
    d="M16.996 97.5V89.1H20.632C21.384 89.1 22.032 89.224 22.576 89.472C23.12 89.712 23.54 90.06 23.836 90.516C24.132 90.972 24.28 91.516 24.28 92.148C24.28 92.772 24.132 93.312 23.836 93.768C23.54 94.216 23.12 94.56 22.576 94.8C22.032 95.04 21.384 95.16 20.632 95.16H18.076L18.94 94.308V97.5H16.996ZM22.336 97.5L20.236 94.452H22.312L24.436 97.5H22.336ZM18.94 94.524L18.076 93.612H20.524C21.124 93.612 21.572 93.484 21.868 93.228C22.164 92.964 22.312 92.604 22.312 92.148C22.312 91.684 22.164 91.324 21.868 91.068C21.572 90.812 21.124 90.684 20.524 90.684H18.076L18.94 89.76V94.524ZM28.1482 98.94V87.66H29.3482V98.94H28.1482ZM28.5802 97.644C27.9082 97.644 27.2642 97.556 26.6482 97.38C26.0322 97.196 25.5362 96.96 25.1602 96.672L25.8202 95.208C26.1802 95.464 26.6042 95.676 27.0922 95.844C27.5882 96.004 28.0882 96.084 28.5922 96.084C28.9762 96.084 29.2842 96.048 29.5162 95.976C29.7562 95.896 29.9322 95.788 30.0442 95.652C30.1562 95.516 30.2122 95.36 30.2122 95.184C30.2122 94.96 30.1242 94.784 29.9482 94.656C29.7722 94.52 29.5402 94.412 29.2522 94.332C28.9642 94.244 28.6442 94.164 28.2922 94.092C27.9482 94.012 27.6002 93.916 27.2482 93.804C26.9042 93.692 26.5882 93.548 26.3002 93.372C26.0122 93.196 25.7762 92.964 25.5922 92.676C25.4162 92.388 25.3282 92.02 25.3282 91.572C25.3282 91.092 25.4562 90.656 25.7122 90.264C25.9762 89.864 26.3682 89.548 26.8882 89.316C27.4162 89.076 28.0762 88.956 28.8682 88.956C29.3962 88.956 29.9162 89.02 30.4282 89.148C30.9402 89.268 31.3922 89.452 31.7842 89.7L31.1842 91.176C30.7922 90.952 30.4002 90.788 30.0082 90.684C29.6162 90.572 29.2322 90.516 28.8562 90.516C28.4802 90.516 28.1722 90.56 27.9322 90.648C27.6922 90.736 27.5202 90.852 27.4162 90.996C27.3122 91.132 27.2602 91.292 27.2602 91.476C27.2602 91.692 27.3482 91.868 27.5242 92.004C27.7002 92.132 27.9322 92.236 28.2202 92.316C28.5082 92.396 28.8242 92.476 29.1682 92.556C29.5202 92.636 29.8682 92.728 30.2122 92.832C30.5642 92.936 30.8842 93.076 31.1722 93.252C31.4602 93.428 31.6922 93.66 31.8682 93.948C32.0522 94.236 32.1442 94.6 32.1442 95.04C32.1442 95.512 32.0122 95.944 31.7482 96.336C31.4842 96.728 31.0882 97.044 30.5602 97.284C30.0402 97.524 29.3802 97.644 28.5802 97.644ZM34.1234 97.5V89.82L34.9634 90.66H32.4434V89.1H36.0674V97.5H34.1234ZM41.1266 97.644C40.4386 97.644 39.8226 97.476 39.2786 97.14C38.7346 96.796 38.3066 96.3 37.9946 95.652C37.6826 95.004 37.5266 94.22 37.5266 93.3C37.5266 92.38 37.6826 91.596 37.9946 90.948C38.3066 90.3 38.7346 89.808 39.2786 89.472C39.8226 89.128 40.4386 88.956 41.1266 88.956C41.8226 88.956 42.4386 89.128 42.9746 89.472C43.5186 89.808 43.9466 90.3 44.2586 90.948C44.5706 91.596 44.7266 92.38 44.7266 93.3C44.7266 94.22 44.5706 95.004 44.2586 95.652C43.9466 96.3 43.5186 96.796 42.9746 97.14C42.4386 97.476 41.8226 97.644 41.1266 97.644ZM41.1266 96C41.4546 96 41.7386 95.908 41.9786 95.724C42.2266 95.54 42.4186 95.248 42.5546 94.848C42.6986 94.448 42.7706 93.932 42.7706 93.3C42.7706 92.668 42.6986 92.152 42.5546 91.752C42.4186 91.352 42.2266 91.06 41.9786 90.876C41.7386 90.692 41.4546 90.6 41.1266 90.6C40.8066 90.6 40.5226 90.692 40.2746 90.876C40.0346 91.06 39.8426 91.352 39.6986 91.752C39.5626 92.152 39.4946 92.668 39.4946 93.3C39.4946 93.932 39.5626 94.448 39.6986 94.848C39.8426 95.248 40.0346 95.54 40.2746 95.724C40.5226 95.908 40.8066 96 41.1266 96ZM45.5908 99.348L46.3828 96.468L46.6468 97.548C46.3028 97.548 46.0188 97.448 45.7948 97.248C45.5788 97.048 45.4708 96.772 45.4708 96.42C45.4708 96.068 45.5828 95.788 45.8068 95.58C46.0308 95.372 46.3068 95.268 46.6348 95.268C46.9708 95.268 47.2468 95.376 47.4628 95.592C47.6788 95.8 47.7868 96.076 47.7868 96.42C47.7868 96.524 47.7788 96.628 47.7628 96.732C47.7468 96.828 47.7148 96.948 47.6668 97.092C47.6268 97.228 47.5588 97.404 47.4628 97.62L46.7788 99.348H45.5908ZM52.1071 97.644C51.4191 97.644 50.8031 97.476 50.2591 97.14C49.7151 96.796 49.2871 96.3 48.9751 95.652C48.6631 95.004 48.5071 94.22 48.5071 93.3C48.5071 92.38 48.6631 91.596 48.9751 90.948C49.2871 90.3 49.7151 89.808 50.2591 89.472C50.8031 89.128 51.4191 88.956 52.1071 88.956C52.8031 88.956 53.4191 89.128 53.9551 89.472C54.4991 89.808 54.9271 90.3 55.2391 90.948C55.5511 91.596 55.7071 92.38 55.7071 93.3C55.7071 94.22 55.5511 95.004 55.2391 95.652C54.9271 96.3 54.4991 96.796 53.9551 97.14C53.4191 97.476 52.8031 97.644 52.1071 97.644ZM52.1071 96C52.4351 96 52.7191 95.908 52.9591 95.724C53.2071 95.54 53.3991 95.248 53.5351 94.848C53.6791 94.448 53.7511 93.932 53.7511 93.3C53.7511 92.668 53.6791 92.152 53.5351 91.752C53.3991 91.352 53.2071 91.06 52.9591 90.876C52.7191 90.692 52.4351 90.6 52.1071 90.6C51.7871 90.6 51.5031 90.692 51.2551 90.876C51.0151 91.06 50.8231 91.352 50.6791 91.752C50.5431 92.152 50.4751 92.668 50.4751 93.3C50.4751 93.932 50.5431 94.448 50.6791 94.848C50.8231 95.248 51.0151 95.54 51.2551 95.724C51.5031 95.908 51.7871 96 52.1071 96ZM60.2516 97.644C59.5636 97.644 58.9476 97.476 58.4036 97.14C57.8596 96.796 57.4316 96.3 57.1196 95.652C56.8076 95.004 56.6516 94.22 56.6516 93.3C56.6516 92.38 56.8076 91.596 57.1196 90.948C57.4316 90.3 57.8596 89.808 58.4036 89.472C58.9476 89.128 59.5636 88.956 60.2516 88.956C60.9476 88.956 61.5636 89.128 62.0996 89.472C62.6436 89.808 63.0716 90.3 63.3836 90.948C63.6956 91.596 63.8516 92.38 63.8516 93.3C63.8516 94.22 63.6956 95.004 63.3836 95.652C63.0716 96.3 62.6436 96.796 62.0996 97.14C61.5636 97.476 60.9476 97.644 60.2516 97.644ZM60.2516 96C60.5796 96 60.8636 95.908 61.1036 95.724C61.3516 95.54 61.5436 95.248 61.6796 94.848C61.8236 94.448 61.8956 93.932 61.8956 93.3C61.8956 92.668 61.8236 92.152 61.6796 91.752C61.5436 91.352 61.3516 91.06 61.1036 90.876C60.8636 90.692 60.5796 90.6 60.2516 90.6C59.9316 90.6 59.6476 90.692 59.3996 90.876C59.1596 91.06 58.9676 91.352 58.8236 91.752C58.6876 92.152 58.6196 92.668 58.6196 93.3C58.6196 93.932 58.6876 94.448 58.8236 94.848C58.9676 95.248 59.1596 95.54 59.3996 95.724C59.6476 95.908 59.9316 96 60.2516 96ZM67.3306 98.7L71.2906 87.396H72.9586L68.9986 98.7H67.3306Z"
    fill="#FAFAFA" />
  <rect x="147" y="37.5" width="116" height="46" rx="6" stroke="#969696" stroke-width="4" />
  <path
    d="M168.296 65.596C167.432 65.596 166.664 65.372 165.992 64.924C165.32 64.4653 164.792 63.8147 164.408 62.972C164.024 62.1187 163.832 61.0947 163.832 59.9C163.832 58.7053 164.024 57.6867 164.408 56.844C164.792 55.9907 165.32 55.34 165.992 54.892C166.664 54.4333 167.432 54.204 168.296 54.204C169.16 54.204 169.928 54.4333 170.6 54.892C171.272 55.34 171.8 55.9907 172.184 56.844C172.579 57.6867 172.776 58.7053 172.776 59.9C172.776 61.0947 172.579 62.1187 172.184 62.972C171.8 63.8147 171.272 64.4653 170.6 64.924C169.928 65.372 169.16 65.596 168.296 65.596ZM168.296 64.54C168.957 64.54 169.533 64.364 170.024 64.012C170.515 63.6493 170.899 63.1267 171.176 62.444C171.453 61.7507 171.592 60.9027 171.592 59.9C171.592 58.8973 171.453 58.0547 171.176 57.372C170.899 56.6787 170.515 56.156 170.024 55.804C169.533 55.4413 168.957 55.26 168.296 55.26C167.656 55.26 167.085 55.4413 166.584 55.804C166.083 56.156 165.693 56.6787 165.416 57.372C165.139 58.0547 165 58.8973 165 59.9C165 60.9027 165.139 61.7507 165.416 62.444C165.693 63.1267 166.083 63.6493 166.584 64.012C167.085 64.364 167.656 64.54 168.296 64.54Z"
    fill="#969696" />
  <path
    d="M199.16 67.5V63.924H202.928V55.404L200.072 57.036L198.464 53.844L204.224 50.58H207.32V63.924H210.848V67.5H199.16Z"
    fill="#FAFAFA" />
  <path
    d="M236.624 66.5V65.684L241.28 61.124C241.707 60.708 242.027 60.3453 242.24 60.036C242.453 59.716 242.597 59.4173 242.672 59.14C242.747 58.8627 242.784 58.6013 242.784 58.356C242.784 57.7053 242.56 57.1933 242.112 56.82C241.675 56.4467 241.024 56.26 240.16 56.26C239.499 56.26 238.912 56.3613 238.4 56.564C237.899 56.7667 237.467 57.0813 237.104 57.508L236.288 56.804C236.725 56.292 237.285 55.8973 237.968 55.62C238.651 55.3427 239.413 55.204 240.256 55.204C241.013 55.204 241.669 55.3267 242.224 55.572C242.779 55.8067 243.205 56.1533 243.504 56.612C243.813 57.0707 243.968 57.6093 243.968 58.228C243.968 58.5907 243.915 58.948 243.808 59.3C243.712 59.652 243.531 60.0253 243.264 60.42C243.008 60.804 242.629 61.2413 242.128 61.732L237.856 65.924L237.536 65.476H244.48V66.5H236.624Z"
    fill="#969696" />
  <rect x="2" y="2.5" width="276" height="116" rx="6" stroke="#191919" stroke-width="4" />
</svg>