<svg width="196" height="62" viewBox="0 0 196 62" fill="none" xmlns="http://www.w3.org/2000/svg">
  <rect x="2.5" y="2" width="191" height="58" rx="6" fill="#333333" stroke="#191919" stroke-width="4" />
  <path
    d="M11.496 21V12.6H13.104L16.68 18.528H15.828L19.344 12.6H20.94L20.964 21H19.14L19.128 15.396H19.464L16.656 20.112H15.78L12.912 15.396H13.32V21H11.496ZM26.7849 21V19.74L26.6649 19.464V17.208C26.6649 16.808 26.5409 16.496 26.2929 16.272C26.0529 16.048 25.6809 15.936 25.1769 15.936C24.8329 15.936 24.4929 15.992 24.1569 16.104C23.8289 16.208 23.5489 16.352 23.3169 16.536L22.6449 15.228C22.9969 14.98 23.4209 14.788 23.9169 14.652C24.4129 14.516 24.9169 14.448 25.4289 14.448C26.4129 14.448 27.1769 14.68 27.7209 15.144C28.2649 15.608 28.5369 16.332 28.5369 17.316V21H26.7849ZM24.8169 21.096C24.3129 21.096 23.8809 21.012 23.5209 20.844C23.1609 20.668 22.8849 20.432 22.6929 20.136C22.5009 19.84 22.4049 19.508 22.4049 19.14C22.4049 18.756 22.4969 18.42 22.6809 18.132C22.8729 17.844 23.1729 17.62 23.5809 17.46C23.9889 17.292 24.5209 17.208 25.1769 17.208H26.8929V18.3H25.3809C24.9409 18.3 24.6369 18.372 24.4689 18.516C24.3089 18.66 24.2289 18.84 24.2289 19.056C24.2289 19.296 24.3209 19.488 24.5049 19.632C24.6969 19.768 24.9569 19.836 25.2849 19.836C25.5969 19.836 25.8769 19.764 26.1249 19.62C26.3729 19.468 26.5529 19.248 26.6649 18.96L26.9529 19.824C26.8169 20.24 26.5689 20.556 26.2089 20.772C25.8489 20.988 25.3849 21.096 24.8169 21.096ZM32.8712 21.096C32.1112 21.096 31.5192 20.904 31.0952 20.52C30.6712 20.128 30.4592 19.548 30.4592 18.78V13.116H32.3312V18.756C32.3312 19.028 32.4032 19.24 32.5472 19.392C32.6912 19.536 32.8872 19.608 33.1352 19.608C33.4312 19.608 33.6832 19.528 33.8912 19.368L34.3952 20.688C34.2032 20.824 33.9712 20.928 33.6992 21C33.4352 21.064 33.1592 21.096 32.8712 21.096ZM29.4632 16.128V14.688H33.9392V16.128H29.4632ZM39.37 14.448C39.882 14.448 40.338 14.552 40.738 14.76C41.146 14.96 41.466 15.272 41.698 15.696C41.93 16.112 42.046 16.648 42.046 17.304V21H40.174V17.592C40.174 17.072 40.058 16.688 39.826 16.44C39.602 16.192 39.282 16.068 38.866 16.068C38.57 16.068 38.302 16.132 38.062 16.26C37.83 16.38 37.646 16.568 37.51 16.824C37.382 17.08 37.318 17.408 37.318 17.808V21H35.446V12.096H37.318V16.332L36.898 15.792C37.13 15.36 37.462 15.028 37.894 14.796C38.326 14.564 38.818 14.448 39.37 14.448ZM46.9938 21.096C46.2578 21.096 45.6098 20.952 45.0498 20.664C44.4978 20.376 44.0698 19.984 43.7658 19.488C43.4618 18.984 43.3098 18.412 43.3098 17.772C43.3098 17.124 43.4578 16.552 43.7538 16.056C44.0578 15.552 44.4698 15.16 44.9898 14.88C45.5098 14.592 46.0978 14.448 46.7538 14.448C47.3858 14.448 47.9538 14.584 48.4578 14.856C48.9698 15.12 49.3738 15.504 49.6698 16.008C49.9658 16.504 50.1138 17.1 50.1138 17.796C50.1138 17.868 50.1098 17.952 50.1018 18.048C50.0938 18.136 50.0858 18.22 50.0778 18.3H44.8338V17.208H49.0938L48.3738 17.532C48.3738 17.196 48.3058 16.904 48.1698 16.656C48.0338 16.408 47.8458 16.216 47.6058 16.08C47.3658 15.936 47.0858 15.864 46.7658 15.864C46.4458 15.864 46.1618 15.936 45.9138 16.08C45.6738 16.216 45.4858 16.412 45.3498 16.668C45.2138 16.916 45.1458 17.212 45.1458 17.556V17.844C45.1458 18.196 45.2218 18.508 45.3738 18.78C45.5338 19.044 45.7538 19.248 46.0338 19.392C46.3218 19.528 46.6578 19.596 47.0418 19.596C47.3858 19.596 47.6858 19.544 47.9418 19.44C48.2058 19.336 48.4458 19.18 48.6618 18.972L49.6578 20.052C49.3618 20.388 48.9898 20.648 48.5418 20.832C48.0938 21.008 47.5778 21.096 46.9938 21.096ZM54.0841 21.096C53.5481 21.096 53.0681 20.992 52.6441 20.784C52.2281 20.576 51.9041 20.26 51.6721 19.836C51.4401 19.404 51.3241 18.856 51.3241 18.192V14.544H53.1961V17.916C53.1961 18.452 53.3081 18.848 53.5321 19.104C53.7641 19.352 54.0881 19.476 54.5041 19.476C54.7921 19.476 55.0481 19.416 55.2721 19.296C55.4961 19.168 55.6721 18.976 55.8001 18.72C55.9281 18.456 55.9921 18.128 55.9921 17.736V14.544H57.8641V21H56.0881V19.224L56.4121 19.74C56.1961 20.188 55.8761 20.528 55.4521 20.76C55.0361 20.984 54.5801 21.096 54.0841 21.096ZM61.7704 21.096C61.2184 21.096 60.6864 21.032 60.1744 20.904C59.6704 20.768 59.2704 20.6 58.9744 20.4L59.5984 19.056C59.8944 19.24 60.2424 19.392 60.6424 19.512C61.0504 19.624 61.4504 19.68 61.8424 19.68C62.2744 19.68 62.5784 19.628 62.7544 19.524C62.9384 19.42 63.0304 19.276 63.0304 19.092C63.0304 18.94 62.9584 18.828 62.8144 18.756C62.6784 18.676 62.4944 18.616 62.2624 18.576C62.0304 18.536 61.7744 18.496 61.4944 18.456C61.2224 18.416 60.9464 18.364 60.6664 18.3C60.3864 18.228 60.1304 18.124 59.8984 17.988C59.6664 17.852 59.4784 17.668 59.3344 17.436C59.1984 17.204 59.1304 16.904 59.1304 16.536C59.1304 16.128 59.2464 15.768 59.4784 15.456C59.7184 15.144 60.0624 14.9 60.5104 14.724C60.9584 14.54 61.4944 14.448 62.1184 14.448C62.5584 14.448 63.0064 14.496 63.4624 14.592C63.9184 14.688 64.2984 14.828 64.6024 15.012L63.9784 16.344C63.6664 16.16 63.3504 16.036 63.0304 15.972C62.7184 15.9 62.4144 15.864 62.1184 15.864C61.7024 15.864 61.3984 15.92 61.2064 16.032C61.0144 16.144 60.9184 16.288 60.9184 16.464C60.9184 16.624 60.9864 16.744 61.1224 16.824C61.2664 16.904 61.4544 16.968 61.6864 17.016C61.9184 17.064 62.1704 17.108 62.4424 17.148C62.7224 17.18 63.0024 17.232 63.2824 17.304C63.5624 17.376 63.8144 17.48 64.0384 17.616C64.2704 17.744 64.4584 17.924 64.6024 18.156C64.7464 18.38 64.8184 18.676 64.8184 19.044C64.8184 19.444 64.6984 19.8 64.4584 20.112C64.2184 20.416 63.8704 20.656 63.4144 20.832C62.9664 21.008 62.4184 21.096 61.7704 21.096Z"
    fill="white" />
  <path
    d="M17.5 48C16.95 48 16.479 47.804 16.087 47.412C15.695 47.02 15.4993 46.5493 15.5 46C15.5 45.45 15.696 44.979 16.088 44.587C16.48 44.195 16.9507 43.9993 17.5 44C18.05 44 18.521 44.196 18.913 44.588C19.305 44.98 19.5007 45.4507 19.5 46C19.5 46.55 19.304 47.021 18.912 47.413C18.52 47.805 18.0493 48.0007 17.5 48ZM27.5 48C26.95 48 26.479 47.804 26.087 47.412C25.695 47.02 25.4993 46.5493 25.5 46C25.5 45.45 25.696 44.979 26.088 44.587C26.48 44.195 26.9507 43.9993 27.5 44C28.05 44 28.521 44.196 28.913 44.588C29.305 44.98 29.5007 45.4507 29.5 46C29.5 46.55 29.304 47.021 28.912 47.413C28.52 47.805 28.0493 48.0007 27.5 48ZM16.65 32L19.05 37H26.05L28.8 32H16.65ZM15.7 30H30.45C30.8333 30 31.125 30.171 31.325 30.513C31.525 30.855 31.5333 31.2007 31.35 31.55L27.8 37.95C27.6167 38.2833 27.3707 38.5417 27.062 38.725C26.7533 38.9083 26.416 39 26.05 39H18.6L17.5 41H29.5V43H17.5C16.75 43 16.1833 42.6707 15.8 42.012C15.4167 41.3533 15.4 40.6993 15.75 40.05L17.1 37.6L13.5 30H11.5V28H14.75L15.7 30Z"
    fill="white" />
  <path d="M43.264 42V34.32L44.104 35.16H41.584V33.6H45.208V42H43.264Z" fill="white" />
  <rect x="114.5" y="17" width="69" height="27" rx="13.5" fill="#00BFFF" />
  <path
    d="M129.496 35V26.6H133.132C133.884 26.6 134.532 26.724 135.076 26.972C135.62 27.212 136.04 27.56 136.336 28.016C136.632 28.472 136.78 29.016 136.78 29.648C136.78 30.272 136.632 30.812 136.336 31.268C136.04 31.716 135.62 32.06 135.076 32.3C134.532 32.54 133.884 32.66 133.132 32.66H130.576L131.44 31.808V35H129.496ZM134.836 35L132.736 31.952H134.812L136.936 35H134.836ZM131.44 32.024L130.576 31.112H133.024C133.624 31.112 134.072 30.984 134.368 30.728C134.664 30.464 134.812 30.104 134.812 29.648C134.812 29.184 134.664 28.824 134.368 28.568C134.072 28.312 133.624 28.184 133.024 28.184H130.576L131.44 27.26V32.024ZM140.648 36.44V25.16H141.848V36.44H140.648ZM141.08 35.144C140.408 35.144 139.764 35.056 139.148 34.88C138.532 34.696 138.036 34.46 137.66 34.172L138.32 32.708C138.68 32.964 139.104 33.176 139.592 33.344C140.088 33.504 140.588 33.584 141.092 33.584C141.476 33.584 141.784 33.548 142.016 33.476C142.256 33.396 142.432 33.288 142.544 33.152C142.656 33.016 142.712 32.86 142.712 32.684C142.712 32.46 142.624 32.284 142.448 32.156C142.272 32.02 142.04 31.912 141.752 31.832C141.464 31.744 141.144 31.664 140.792 31.592C140.448 31.512 140.1 31.416 139.748 31.304C139.404 31.192 139.088 31.048 138.8 30.872C138.512 30.696 138.276 30.464 138.092 30.176C137.916 29.888 137.828 29.52 137.828 29.072C137.828 28.592 137.956 28.156 138.212 27.764C138.476 27.364 138.868 27.048 139.388 26.816C139.916 26.576 140.576 26.456 141.368 26.456C141.896 26.456 142.416 26.52 142.928 26.648C143.44 26.768 143.892 26.952 144.284 27.2L143.684 28.676C143.292 28.452 142.9 28.288 142.508 28.184C142.116 28.072 141.732 28.016 141.356 28.016C140.98 28.016 140.672 28.06 140.432 28.148C140.192 28.236 140.02 28.352 139.916 28.496C139.812 28.632 139.76 28.792 139.76 28.976C139.76 29.192 139.848 29.368 140.024 29.504C140.2 29.632 140.432 29.736 140.72 29.816C141.008 29.896 141.324 29.976 141.668 30.056C142.02 30.136 142.368 30.228 142.712 30.332C143.064 30.436 143.384 30.576 143.672 30.752C143.96 30.928 144.192 31.16 144.368 31.448C144.552 31.736 144.644 32.1 144.644 32.54C144.644 33.012 144.512 33.444 144.248 33.836C143.984 34.228 143.588 34.544 143.06 34.784C142.54 35.024 141.88 35.144 141.08 35.144ZM146.623 35V27.32L147.463 28.16H144.943V26.6H148.567V35H146.623ZM150.099 36.848L150.891 33.968L151.155 35.048C150.811 35.048 150.527 34.948 150.303 34.748C150.087 34.548 149.979 34.272 149.979 33.92C149.979 33.568 150.091 33.288 150.315 33.08C150.539 32.872 150.815 32.768 151.143 32.768C151.479 32.768 151.755 32.876 151.971 33.092C152.187 33.3 152.295 33.576 152.295 33.92C152.295 34.024 152.287 34.128 152.271 34.232C152.255 34.328 152.223 34.448 152.175 34.592C152.135 34.728 152.067 34.904 151.971 35.12L151.287 36.848H150.099ZM156.119 26.456C156.895 26.456 157.563 26.616 158.123 26.936C158.683 27.256 159.115 27.724 159.419 28.34C159.723 28.948 159.875 29.708 159.875 30.62C159.875 31.588 159.691 32.408 159.323 33.08C158.963 33.752 158.463 34.264 157.823 34.616C157.183 34.968 156.439 35.144 155.591 35.144C155.151 35.144 154.727 35.096 154.319 35C153.911 34.904 153.559 34.76 153.263 34.568L153.983 33.14C154.215 33.3 154.463 33.412 154.727 33.476C154.991 33.532 155.267 33.56 155.555 33.56C156.275 33.56 156.847 33.34 157.271 32.9C157.703 32.46 157.919 31.808 157.919 30.944C157.919 30.8 157.915 30.64 157.907 30.464C157.899 30.288 157.879 30.112 157.847 29.936L158.375 30.44C158.239 30.752 158.047 31.016 157.799 31.232C157.551 31.44 157.263 31.6 156.935 31.712C156.607 31.816 156.239 31.868 155.831 31.868C155.295 31.868 154.807 31.76 154.367 31.544C153.935 31.328 153.587 31.024 153.323 30.632C153.067 30.24 152.939 29.78 152.939 29.252C152.939 28.676 153.079 28.18 153.359 27.764C153.647 27.348 154.031 27.028 154.511 26.804C154.999 26.572 155.535 26.456 156.119 26.456ZM156.239 27.908C155.959 27.908 155.715 27.96 155.507 28.064C155.299 28.16 155.135 28.304 155.015 28.496C154.895 28.68 154.835 28.9 154.835 29.156C154.835 29.54 154.963 29.848 155.219 30.08C155.483 30.304 155.831 30.416 156.263 30.416C156.543 30.416 156.791 30.364 157.007 30.26C157.231 30.148 157.403 29.996 157.523 29.804C157.643 29.612 157.703 29.396 157.703 29.156C157.703 28.916 157.643 28.704 157.523 28.52C157.411 28.328 157.247 28.18 157.031 28.076C156.815 27.964 156.551 27.908 156.239 27.908ZM163.76 26.456C164.536 26.456 165.204 26.616 165.764 26.936C166.324 27.256 166.756 27.724 167.06 28.34C167.364 28.948 167.516 29.708 167.516 30.62C167.516 31.588 167.332 32.408 166.964 33.08C166.604 33.752 166.104 34.264 165.464 34.616C164.824 34.968 164.08 35.144 163.232 35.144C162.792 35.144 162.368 35.096 161.96 35C161.552 34.904 161.2 34.76 160.904 34.568L161.624 33.14C161.856 33.3 162.104 33.412 162.368 33.476C162.632 33.532 162.908 33.56 163.196 33.56C163.916 33.56 164.488 33.34 164.912 32.9C165.344 32.46 165.56 31.808 165.56 30.944C165.56 30.8 165.556 30.64 165.548 30.464C165.54 30.288 165.52 30.112 165.488 29.936L166.016 30.44C165.88 30.752 165.688 31.016 165.44 31.232C165.192 31.44 164.904 31.6 164.576 31.712C164.248 31.816 163.88 31.868 163.472 31.868C162.936 31.868 162.448 31.76 162.008 31.544C161.576 31.328 161.228 31.024 160.964 30.632C160.708 30.24 160.58 29.78 160.58 29.252C160.58 28.676 160.72 28.18 161 27.764C161.288 27.348 161.672 27.028 162.152 26.804C162.64 26.572 163.176 26.456 163.76 26.456ZM163.88 27.908C163.6 27.908 163.356 27.96 163.148 28.064C162.94 28.16 162.776 28.304 162.656 28.496C162.536 28.68 162.476 28.9 162.476 29.156C162.476 29.54 162.604 29.848 162.86 30.08C163.124 30.304 163.472 30.416 163.904 30.416C164.184 30.416 164.432 30.364 164.648 30.26C164.872 30.148 165.044 29.996 165.164 29.804C165.284 29.612 165.344 29.396 165.344 29.156C165.344 28.916 165.284 28.704 165.164 28.52C165.052 28.328 164.888 28.18 164.672 28.076C164.456 27.964 164.192 27.908 163.88 27.908Z"
    fill="white" />
</svg>